<mxfile host="65bd71144e">
    <diagram id="DCh0O6-_EmkJgPc6u69m" name="General Algorithm">
        <mxGraphModel dx="799" dy="458" grid="1" gridSize="10" guides="1" tooltips="1" connect="1" arrows="1" fold="1" page="1" pageScale="1" pageWidth="827" pageHeight="1169" math="0" shadow="0">
            <root>
                <mxCell id="0"/>
                <mxCell id="1" parent="0"/>
                <mxCell id="2" value="Transformation" style="rounded=0;whiteSpace=wrap;html=1;" parent="1" vertex="1">
                    <mxGeometry x="240" y="170" width="120" height="60" as="geometry"/>
                </mxCell>
                <mxCell id="3" value="IN" style="endArrow=classic;html=1;" parent="1" target="2" edge="1">
                    <mxGeometry width="50" height="50" relative="1" as="geometry">
                        <mxPoint x="140" y="200" as="sourcePoint"/>
                        <mxPoint x="320" y="170" as="targetPoint"/>
                    </mxGeometry>
                </mxCell>
                <mxCell id="4" value="OUT" style="endArrow=classic;html=1;exitX=1;exitY=0.5;exitDx=0;exitDy=0;" parent="1" source="2" edge="1">
                    <mxGeometry width="50" height="50" relative="1" as="geometry">
                        <mxPoint x="270" y="220" as="sourcePoint"/>
                        <mxPoint x="460" y="200" as="targetPoint"/>
                    </mxGeometry>
                </mxCell>
            </root>
        </mxGraphModel>
    </diagram>
    <diagram id="PZxDIb1rG13j3xtWBT03" name="General Process">
        <mxGraphModel dx="799" dy="458" grid="1" gridSize="10" guides="1" tooltips="1" connect="1" arrows="1" fold="1" page="1" pageScale="1" pageWidth="827" pageHeight="1169" math="0" shadow="0">
            <root>
                <mxCell id="0"/>
                <mxCell id="1" parent="0"/>
                <mxCell id="ejrkXJwfXo6LCveghfUV-1" value="RESOURCES" style="endArrow=classic;html=1;rounded=0;" parent="1" target="ejrkXJwfXo6LCveghfUV-2" edge="1">
                    <mxGeometry width="50" height="50" relative="1" as="geometry">
                        <mxPoint x="164.625" y="180" as="sourcePoint"/>
                        <mxPoint x="267.77777777777777" y="144.21052631578948" as="targetPoint"/>
                    </mxGeometry>
                </mxCell>
                <mxCell id="ejrkXJwfXo6LCveghfUV-2" value="PROCESS" style="rounded=0;whiteSpace=wrap;html=1;" parent="1" vertex="1">
                    <mxGeometry x="112.22125" y="54.74000000000001" width="104.02875" height="71.58" as="geometry"/>
                </mxCell>
                <mxCell id="ejrkXJwfXo6LCveghfUV-3" value="IN" style="endArrow=classic;html=1;rounded=0;entryX=0;entryY=0.5;entryDx=0;entryDy=0;" parent="1" target="ejrkXJwfXo6LCveghfUV-2" edge="1">
                    <mxGeometry width="50" height="50" relative="1" as="geometry">
                        <mxPoint x="50" y="90.5263157894737" as="sourcePoint"/>
                        <mxPoint x="244.44444444444446" y="90.5263157894737" as="targetPoint"/>
                    </mxGeometry>
                </mxCell>
                <mxCell id="ejrkXJwfXo6LCveghfUV-4" value="OUT" style="endArrow=classic;html=1;rounded=0;exitX=1;exitY=0.5;exitDx=0;exitDy=0;" parent="1" source="ejrkXJwfXo6LCveghfUV-2" edge="1">
                    <mxGeometry width="50" height="50" relative="1" as="geometry">
                        <mxPoint x="205.55555555555554" y="135.26315789473685" as="sourcePoint"/>
                        <mxPoint x="286.25" y="91" as="targetPoint"/>
                    </mxGeometry>
                </mxCell>
                <mxCell id="ejrkXJwfXo6LCveghfUV-5" value="CONTROL" style="endArrow=classic;html=1;rounded=0;entryX=0.5;entryY=0;entryDx=0;entryDy=0;" parent="1" target="ejrkXJwfXo6LCveghfUV-2" edge="1">
                    <mxGeometry width="50" height="50" relative="1" as="geometry">
                        <mxPoint x="164.625" y="10" as="sourcePoint"/>
                        <mxPoint x="244.44444444444446" y="90.5263157894737" as="targetPoint"/>
                    </mxGeometry>
                </mxCell>
                <mxCell id="_3sbaqARadIHxU3pbyvI-1" value="Manager" style="shape=umlActor;verticalLabelPosition=bottom;verticalAlign=top;html=1;" parent="1" vertex="1">
                    <mxGeometry x="40" y="200" width="30" height="60" as="geometry"/>
                </mxCell>
                <mxCell id="_3sbaqARadIHxU3pbyvI-2" value="" style="edgeStyle=orthogonalEdgeStyle;rounded=0;orthogonalLoop=1;jettySize=auto;html=1;" parent="1" source="_3sbaqARadIHxU3pbyvI-3" target="_3sbaqARadIHxU3pbyvI-5" edge="1">
                    <mxGeometry relative="1" as="geometry"/>
                </mxCell>
                <mxCell id="_3sbaqARadIHxU3pbyvI-3" value="Planing" style="html=1;whiteSpace=wrap;" parent="1" vertex="1">
                    <mxGeometry x="115" y="220" width="85" height="50" as="geometry"/>
                </mxCell>
                <mxCell id="_3sbaqARadIHxU3pbyvI-4" value="" style="edgeStyle=orthogonalEdgeStyle;rounded=0;orthogonalLoop=1;jettySize=auto;html=1;" parent="1" source="_3sbaqARadIHxU3pbyvI-5" target="_3sbaqARadIHxU3pbyvI-7" edge="1">
                    <mxGeometry relative="1" as="geometry"/>
                </mxCell>
                <mxCell id="_3sbaqARadIHxU3pbyvI-5" value="Organization" style="html=1;whiteSpace=wrap;" parent="1" vertex="1">
                    <mxGeometry x="240" y="220" width="100" height="50" as="geometry"/>
                </mxCell>
                <mxCell id="_3sbaqARadIHxU3pbyvI-6" value="" style="edgeStyle=orthogonalEdgeStyle;rounded=0;orthogonalLoop=1;jettySize=auto;html=1;" parent="1" source="_3sbaqARadIHxU3pbyvI-7" target="_3sbaqARadIHxU3pbyvI-9" edge="1">
                    <mxGeometry relative="1" as="geometry"/>
                </mxCell>
                <mxCell id="_3sbaqARadIHxU3pbyvI-7" value="Check" style="html=1;whiteSpace=wrap;" parent="1" vertex="1">
                    <mxGeometry x="380" y="220" width="80" height="50" as="geometry"/>
                </mxCell>
                <mxCell id="_3sbaqARadIHxU3pbyvI-8" value="" style="edgeStyle=orthogonalEdgeStyle;rounded=0;orthogonalLoop=1;jettySize=auto;html=1;" parent="1" source="_3sbaqARadIHxU3pbyvI-9" target="_3sbaqARadIHxU3pbyvI-10" edge="1">
                    <mxGeometry relative="1" as="geometry"/>
                </mxCell>
                <mxCell id="_3sbaqARadIHxU3pbyvI-9" value="Direction" style="html=1;whiteSpace=wrap;" parent="1" vertex="1">
                    <mxGeometry x="500" y="220" width="110" height="50" as="geometry"/>
                </mxCell>
                <mxCell id="_3sbaqARadIHxU3pbyvI-10" value="Communication" style="html=1;whiteSpace=wrap;" parent="1" vertex="1">
                    <mxGeometry x="650" y="220" width="110" height="50" as="geometry"/>
                </mxCell>
                <mxCell id="_3sbaqARadIHxU3pbyvI-11" value="Developer" style="shape=umlActor;verticalLabelPosition=bottom;verticalAlign=top;html=1;" parent="1" vertex="1">
                    <mxGeometry x="40" y="300" width="30" height="60" as="geometry"/>
                </mxCell>
                <mxCell id="_3sbaqARadIHxU3pbyvI-12" value="" style="edgeStyle=orthogonalEdgeStyle;rounded=0;orthogonalLoop=1;jettySize=auto;html=1;" parent="1" source="_3sbaqARadIHxU3pbyvI-13" target="_3sbaqARadIHxU3pbyvI-15" edge="1">
                    <mxGeometry relative="1" as="geometry"/>
                </mxCell>
                <mxCell id="_3sbaqARadIHxU3pbyvI-13" value="Design" style="html=1;whiteSpace=wrap;" parent="1" vertex="1">
                    <mxGeometry x="115" y="320" width="85" height="50" as="geometry"/>
                </mxCell>
                <mxCell id="_3sbaqARadIHxU3pbyvI-14" value="" style="edgeStyle=orthogonalEdgeStyle;rounded=0;orthogonalLoop=1;jettySize=auto;html=1;" parent="1" source="_3sbaqARadIHxU3pbyvI-15" target="_3sbaqARadIHxU3pbyvI-17" edge="1">
                    <mxGeometry relative="1" as="geometry"/>
                </mxCell>
                <mxCell id="_3sbaqARadIHxU3pbyvI-15" value="Implementation" style="html=1;whiteSpace=wrap;" parent="1" vertex="1">
                    <mxGeometry x="240" y="320" width="100" height="50" as="geometry"/>
                </mxCell>
                <mxCell id="_3sbaqARadIHxU3pbyvI-16" value="" style="edgeStyle=orthogonalEdgeStyle;rounded=0;orthogonalLoop=1;jettySize=auto;html=1;" parent="1" source="_3sbaqARadIHxU3pbyvI-17" target="_3sbaqARadIHxU3pbyvI-19" edge="1">
                    <mxGeometry relative="1" as="geometry"/>
                </mxCell>
                <mxCell id="_3sbaqARadIHxU3pbyvI-17" value="Testing" style="html=1;whiteSpace=wrap;" parent="1" vertex="1">
                    <mxGeometry x="380" y="320" width="80" height="50" as="geometry"/>
                </mxCell>
                <mxCell id="_3sbaqARadIHxU3pbyvI-18" value="" style="edgeStyle=orthogonalEdgeStyle;rounded=0;orthogonalLoop=1;jettySize=auto;html=1;" parent="1" source="_3sbaqARadIHxU3pbyvI-19" target="_3sbaqARadIHxU3pbyvI-20" edge="1">
                    <mxGeometry relative="1" as="geometry"/>
                </mxCell>
                <mxCell id="_3sbaqARadIHxU3pbyvI-19" value="Deployment" style="html=1;whiteSpace=wrap;" parent="1" vertex="1">
                    <mxGeometry x="500" y="320" width="110" height="50" as="geometry"/>
                </mxCell>
                <mxCell id="_3sbaqARadIHxU3pbyvI-20" value="Maintanance" style="html=1;whiteSpace=wrap;" parent="1" vertex="1">
                    <mxGeometry x="650" y="320" width="110" height="50" as="geometry"/>
                </mxCell>
            </root>
        </mxGraphModel>
    </diagram>
    <diagram id="j8XgCnKVgYuxq1kX_nRB" name="General Architecture">
        <mxGraphModel dx="799" dy="458" grid="1" gridSize="10" guides="1" tooltips="1" connect="1" arrows="1" fold="1" page="1" pageScale="1" pageWidth="827" pageHeight="1169" math="0" shadow="0">
            <root>
                <mxCell id="0"/>
                <mxCell id="1" parent="0"/>
                <mxCell id="it73dJdkJrCQRFSknOX9-1" value="" style="group" parent="1" vertex="1" connectable="0">
                    <mxGeometry x="200" y="120" width="315" height="226.5" as="geometry"/>
                </mxCell>
                <mxCell id="it73dJdkJrCQRFSknOX9-2" value="DB" style="shape=cylinder3;whiteSpace=wrap;html=1;boundedLbl=1;backgroundOutline=1;size=15;" parent="it73dJdkJrCQRFSknOX9-1" vertex="1">
                    <mxGeometry x="100" y="136.5" width="60" height="80" as="geometry"/>
                </mxCell>
                <mxCell id="it73dJdkJrCQRFSknOX9-3" value="Bisness&lt;div&gt;Logic&lt;/div&gt;" style="shape=module;align=left;spacingLeft=20;align=center;verticalAlign=top;whiteSpace=wrap;html=1;" parent="it73dJdkJrCQRFSknOX9-1" vertex="1">
                    <mxGeometry x="150" y="57" width="100" height="50" as="geometry"/>
                </mxCell>
                <mxCell id="it73dJdkJrCQRFSknOX9-4" value="API" style="rounded=0;orthogonalLoop=1;jettySize=auto;html=1;endArrow=oval;endFill=0;sketch=0;sourcePerimeterSpacing=0;targetPerimeterSpacing=0;endSize=10;exitX=1;exitY=0.25;exitDx=0;exitDy=0;" parent="it73dJdkJrCQRFSknOX9-1" source="it73dJdkJrCQRFSknOX9-3" edge="1">
                    <mxGeometry relative="1" as="geometry">
                        <mxPoint x="340" y="41.5" as="sourcePoint"/>
                        <mxPoint x="290" y="69.5" as="targetPoint"/>
                    </mxGeometry>
                </mxCell>
                <mxCell id="it73dJdkJrCQRFSknOX9-5" value="" style="ellipse;whiteSpace=wrap;html=1;align=center;aspect=fixed;fillColor=none;strokeColor=none;resizable=0;perimeter=centerPerimeter;rotatable=0;allowArrows=0;points=[];outlineConnect=1;" parent="it73dJdkJrCQRFSknOX9-1" vertex="1">
                    <mxGeometry x="335" y="-113.5" width="10" height="10" as="geometry"/>
                </mxCell>
                <mxCell id="it73dJdkJrCQRFSknOX9-6" value="Server" style="verticalAlign=top;align=left;spacingTop=8;spacingLeft=2;spacingRight=12;shape=cube;size=10;direction=south;fontStyle=4;html=1;whiteSpace=wrap;" parent="it73dJdkJrCQRFSknOX9-1" vertex="1">
                    <mxGeometry x="20" y="46.5" width="100" height="66" as="geometry"/>
                </mxCell>
                <mxCell id="it73dJdkJrCQRFSknOX9-7" value="Backend" style="shape=umlFrame;whiteSpace=wrap;html=1;pointerEvents=0;" parent="it73dJdkJrCQRFSknOX9-1" vertex="1">
                    <mxGeometry width="310" height="226.5" as="geometry"/>
                </mxCell>
            </root>
        </mxGraphModel>
    </diagram>
    <diagram id="zxWQDTZO6OxjBkabRK6X" name="General Project">
        <mxGraphModel dx="799" dy="458" grid="1" gridSize="10" guides="1" tooltips="1" connect="1" arrows="1" fold="1" page="1" pageScale="1" pageWidth="827" pageHeight="1169" math="0" shadow="0">
            <root>
                <mxCell id="0"/>
                <mxCell id="1" parent="0"/>
                <mxCell id="rrkOhQrYPCJi9ltD8ljX-1" value="" style="ellipse;whiteSpace=wrap;html=1;align=center;aspect=fixed;fillColor=none;strokeColor=none;resizable=0;perimeter=centerPerimeter;rotatable=0;allowArrows=0;points=[];outlineConnect=1;" parent="1" vertex="1">
                    <mxGeometry x="115" y="219.5" width="10" height="10" as="geometry"/>
                </mxCell>
                <mxCell id="rrkOhQrYPCJi9ltD8ljX-2" value="" style="group" parent="1" vertex="1" connectable="0">
                    <mxGeometry x="40" y="30" width="520" height="330" as="geometry"/>
                </mxCell>
                <mxCell id="rrkOhQrYPCJi9ltD8ljX-3" style="edgeStyle=orthogonalEdgeStyle;rounded=0;orthogonalLoop=1;jettySize=auto;html=1;entryX=0.5;entryY=0;entryDx=0;entryDy=0;" parent="rrkOhQrYPCJi9ltD8ljX-2" source="rrkOhQrYPCJi9ltD8ljX-4" target="rrkOhQrYPCJi9ltD8ljX-5" edge="1">
                    <mxGeometry relative="1" as="geometry"/>
                </mxCell>
                <mxCell id="rrkOhQrYPCJi9ltD8ljX-4" value="Timeline" style="shape=image;verticalLabelPosition=bottom;labelBackgroundColor=default;verticalAlign=top;aspect=fixed;imageAspect=0;image=data:image/png,iVBORw0KGgoAAAANSUhEUgAAAtIAAAEWCAYAAABL+3CVAAAKq2lDQ1BJQ0MgUHJvZmlsZQAASImVlwdUU+kSgP970xstIXQIvUlvAaSE0AIoSAcbIQkQSgiBIGBFEVdwRVERwYquiii4FkDWgohiYVFQAeuCLCLKuliwofIucAi7+85777w5Z858dzL/zPx/7n/OXAAoClyxOBVWACBNlCUJ9fNiRMfEMnDDAAYkgAPOQI3LyxSzQkKCACIz9u/yoRtAk/auxWSuf//9v4oiX5DJAwAKQTien8lLQ/gMoi95YkkWAKj9iF9/WZZ4klsRpkmQBhHuneTEaR6Z5PgpRoOpmPBQNsI0APBkLleSCACZgfgZ2bxEJA/ZE2FrEV8oQliMsHtaWjof4ZMImyAxiI88mZ8Z/5c8iX/LGS/LyeUmynh6L1OC9xZmilO5uf/ncfxvSUuVztQwQpScJPEPRawScma9KemBMhbFzw+eYSF/Kn6Kk6T+ETPMy2THzjCf6x0oW5s6P2iGE4S+HFmeLE74DAsyfcJmWJIeKquVIGGzZpgrma0rTYmQ+ZMEHFn+vKTwqBnOFkbOn+HMlLDA2Ri2zC+Rhsr6F4j8vGbr+sr2npb5l/0KObK1WUnh/rK9c2f7F4hYszkzo2W98QXePrMxEbJ4cZaXrJY4NUQWL0j1k/kzs8Nka7OQF3J2bYjsDJO5ASEzDNggHaQiKgEMEIQ8eQOQJcjJmtwIO12cKxEmJmUxWMgNEzA4Ip7lHIatta0DAJP3dfp1eEefuocQ/easL/8zAHNfT0xMnJ/1BSH/1ZmXABBHZn0mJQDIGQNwfT1PKsme9k3dJQwgAnlAA2pAG+gDE2ABbIEjcAWewAcEgGAQDmLAEsADSSAN6XwZWAHyQSEoBlvADlAB9oGD4Cg4AU6BBnAeXAbXwC1wB9wHj0AfGASvwCj4AMYhCMJBFIgKqUE6kCFkDtlCTMgd8oGCoFAoBoqDEiERJIVWQOugYqgUqoAOQNXQz9A56DJ0A+qEHkD90DD0FvoCo2AyTIO1YCPYCmbCLDgQDocXw4lwBpwHF8Cb4XK4Cj4O18OX4VvwfbgPfgWPoQCKhKKjdFEWKCaKjQpGxaISUBLUKlQRqgxVhapFNaHaUHdRfagR1Gc0Fk1FM9AWaFe0PzoCzUNnoFehN6Er0EfR9ehW9F10P3oU/R1DwWhizDEuGA4mGpOIWYYpxJRhDmPOYq5i7mMGMR+wWCwda4x1wvpjY7DJ2OXYTdg92DpsM7YTO4Adw+FwajhznBsuGMfFZeEKcbtwx3GXcF24QdwnPAmvg7fF++Jj8SL8WnwZ/hj+Ir4LP4QfJygQDAkuhGACn5BLKCEcIjQRbhMGCeNERaIx0Y0YTkwm5hPLibXEq8THxHckEkmP5ExaQBKS1pDKSSdJ10n9pM9kJbIZmU1eRJaSN5OPkJvJD8jvKBSKEcWTEkvJomymVFOuUJ5SPslR5SzlOHJ8udVylXL1cl1yr+UJ8obyLPkl8nnyZfKn5W/LjygQFIwU2ApchVUKlQrnFHoUxhSpijaKwYppipsUjyneUHyhhFMyUvJR4isVKB1UuqI0QEVR9alsKo+6jnqIepU6SMPSjGkcWjKtmHaC1kEbVVZStleOVM5RrlS+oNxHR9GN6Bx6Kr2EforeTf+ioqXCUhGobFSpVelS+aiqoeqpKlAtUq1Tva/6RY2h5qOWorZVrUHtiTpa3Ux9gfoy9b3qV9VHNGgarho8jSKNUxoPNWFNM81QzeWaBzXbNce0tLX8tMRau7SuaI1o07U9tZO1t2tf1B7Woeq46wh1tutc0nnJUGawGKmMckYrY1RXU9dfV6p7QLdDd1zPWC9Cb61end4TfaI+Uz9Bf7t+i/6ogY7BPIMVBjUGDw0JhkzDJMOdhm2GH42MjaKMNhg1GL0wVjXmGOcZ1xg/NqGYeJhkmFSZ3DPFmjJNU0z3mN4xg80czJLMKs1um8PmjuZC8z3mnXMwc5zniOZUzemxIFuwLLItaiz6LemWQZZrLRssX1sZWMVabbVqs/pu7WCdan3I+pGNkk2AzVqbJpu3tma2PNtK23t2FDtfu9V2jXZv7M3tBfZ77XsdqA7zHDY4tDh8c3RylDjWOg47GTjFOe126mHSmCHMTczrzhhnL+fVzuedP7s4umS5nHL509XCNcX1mOuLucZzBXMPzR1w03Pjuh1w63NnuMe573fv89D14HpUeTzz1Pfkex72HGKZspJZx1mvvay9JF5nvT6yXdgr2c3eKG8/7yLvDh8lnwifCp+nvnq+ib41vqN+Dn7L/Zr9Mf6B/lv9ezhaHB6nmjMa4BSwMqA1kBwYFlgR+CzILEgS1DQPnhcwb9u8x/MN54vmNwSDYE7wtuAnIcYhGSG/LMAuCFlQueB5qE3oitC2MGrY0rBjYR/CvcJLwh9FmERII1oi5SMXRVZHfozyjiqN6ou2il4ZfStGPUYY0xiLi42MPRw7ttBn4Y6Fg4scFhUu6l5svDhn8Y0l6ktSl1xYKr+Uu/R0HCYuKu5Y3FduMLeKOxbPid8dP8pj83byXvE9+dv5wwI3QalgKMEtoTThRaJb4rbE4SSPpLKkESFbWCF8k+yfvC/5Y0pwypGUidSo1Lo0fFpc2jmRkihF1JqunZ6T3ik2FxeK+zJcMnZkjEoCJYczoczFmY1ZNGQwapeaSNdL+7PdsyuzPy2LXHY6RzFHlNOea5a7MXcozzfvp+Xo5bzlLSt0V+Sv6F/JWnlgFbQqflXLav3VBasH1/itOZpPzE/J/3Wt9drSte/XRa1rKtAqWFMwsN5vfU2hXKGksGeD64Z9P6B/EP7QsdFu466N34v4RTeLrYvLir9u4m26+aPNj+U/TmxO2NxR4liydwt2i2hL91aPrUdLFUvzSge2zdtWv52xvWj7+x1Ld9wosy/bt5O4U7qzrzyovHGXwa4tu75WJFXcr/SqrNutuXvj7o97+Hu69nrurd2nta9435f9wv29B/wO1FcZVZUdxB7MPvj8UOShtp+YP1UfVj9cfPjbEdGRvqOhR1urnaqrj2keK6mBa6Q1w8cXHb9zwvtEY61F7YE6el3xSXBSevLlz3E/d58KPNVymnm69ozhmd1nqWeL6qH63PrRhqSGvsaYxs5zAedamlybzv5i+cuR87rnKy8oXyi5SLxYcHHiUt6lsWZx88jlxMsDLUtbHl2JvnKvdUFrx9XAq9ev+V670sZqu3Td7fr5Gy43zt1k3my45Xirvt2h/eyvDr+e7XDsqL/tdLvxjvOdps65nRe7PLou3/W+e+0e596t+/Pvd3ZHdPf2LOrp6+X3vniQ+uDNw+yH44/WPMY8Lnqi8KTsqebTqt9Mf6vrc+y70O/d3/4s7NmjAd7Aq98zf/86WPCc8rxsSGeo+oXti/PDvsN3Xi58OfhK/Gp8pPAPxT92vzZ5feZPzz/bR6NHB99I3ky83fRO7d2R9/bvW8ZCxp5+SPsw/rHok9qno5+Zn9u+RH0ZGl/2Ffe1/Jvpt6bvgd8fT6RNTIi5Eu7UKIBCFE5IAODtEQAoMQBQ7yDzw8LpeXpKoOlvgCkC/4mnZ+4pcQSgFjGTYxG7GYCTiCLjB6B4AjA5EoV7AtjOTqYzs+/UnD4pWOSLZf+Uv4u+igH+IdMz/F/6/qcFk1ntwT/tvwAzYQaZCX51igAAADhlWElmTU0AKgAAAAgAAYdpAAQAAAABAAAAGgAAAAAAAqACAAQAAAABAAAC0qADAAQAAAABAAABFgAAAABloyCVAABAAElEQVR4Aey993NcWXbnedJbJJDwlgC9Kbry1abaSy2pZ6WRRtLETszGuthf5/fdv2I39jf9uDExM7G7EYqQQl7b05LaVHeXYRW9AQlHeJsGQPr9fO/LBBMgWUwS7CJZhUsCyHzvvnPvO/fcc8899xhf+8V/W7M9pVyqWDQUsO+9d9J8Ab9Nza/ZnclF2y6ULcD3g/LiMFCtVK1ULNnb58ZsdKjLltY37fbEvM0vZywYDJrP9+L69pVvmZlUKpZtpL/D3rk4ZtnNok3Nrtn1O7MWDAXN7/8SDA7vWK1WLRoL29hIv/0f/9v/ZG++dtSqtZpVKhXLZDK2trZm5eK2fXzrvv3jr+/YlWvjltvatgA4+MoU8KTxjoSD9ubJIevvStnf/vyGZTYL5g98CejgKzOQL/eLBvx+i4ZD9t23jtrmVsH+4YNb0JfffF8GXvOFot7nZJtgIMC8PZBxmlEvPtbf2Wbff+uYfXp71i7dmvVwdMDGdtAUDEfCO18aH3yBCgt/wEJMUG8xCFmIehXzW/BAkG6g6YX8lRBTY6IHGZswgokW6iBjox99P6DtFzIsO426sWEsQiGNT83CjFPAfQ9a4EuyuIkGxTcijj88vOiIBv3s6ApsKpbXc2zyNiyb30KQDu3g6avwQetxNBKytcG0Jdl4LICH9fy2W4RqbDxq4Ei40ua3VuW7rrnvXNe9xmTWxabianGtxtOOpFRvT52m6g9/rNdvwFFDri21X4er76qmDZIuCry+e3Uf3zdVOShfHAak2IpBY9ncluXYpM0trSNIB9w4iZ5ERyo+X40NsBvclmlMQ/95dPjYt/SadLS0Qzt1GlOf1IEG7YqyHlyjPQFl4uhvvetPR9uP7dTn3KAxtef1g84dlF0Y0MZ/e2vTlo502f25JRufmGWjRhWHKg95DTpxNOYGuPm6sLu31HkNMByv2RnsvfU+/7sbM6qoK64PDXryKMldU53Gj0baaw8ae1S3Pr+5x979CqmIHouDgxsHGDjAwHPEgJhag7EFgwGnjW9s/J5jMy81KMkLEqS1uQ2BAwk8ATa9oaJ3MlEulxCkpTlEYeGvosEvWZGTQAkeHC2ZXxuxoAQKcXth0ytaEKrVinEwxVU/8B+u06j7+L8+mqlahT5U6n0I079qpQxcrgM3FNSCU3OnXzppqKlrSO2BEJt23inIvYPyYjGgEZBGOgxdBRCeA9BLUIoVPotOyuUyRCja8zFeVStsl7gmwmFsEb7d3NTpyJ6hFG1os1xmzH2Cj1LN0eVTva7Po1NoqmqeljdEWxX6VKG9GtdEYzVouVSCDumXSF/tBYP0TfPF7yo+VasHlZ8/BqQAioZRDjEuUq6KxiqMa01KPdFSAJqDJzBk8IuCN5ZV73oAXhZ0PEoi7IMiHtagMY8OJZk/fanCmyowwwr0FIT+A/ClSqWEAgB48DbxUPHacgk6pJ7bwNHfAO/DLU8R8fTNPvTEgSD9EEoOLhxg4AADzwMDnpYC9gkj3vn8PAC/EjA8bWDjvT0tCB3nQzgatYGeEYuUs1bKo7HPxm30SK+NjnRaOuyz3OqKLS4s272lvBXQIjaO6SVo+FnMkvGUpZM+C/mKaIiyVmSBYN1yxdPKeJ+p7gQqfdvph7tWZTEMW3pg2DoCW2bbOZtc2bJoKm3tyZh1BfM2v1q0XDlkQ4d67VB3wroSLBWVos3cn7OZxVVb2/Z7gk/z6qiGDsoXigHRhje2ElS8z/qUTEEj3Z0W2lyyXK5oi/mInTo3ZIM9cesIlW1yas5mFzdsKVNygrZgqEhpHQrHLRZvs55UzQpbWza3kLUK7YieVB5JYzzvRCH+CpKEpGiyzdo60tbpy1oum7f7G0VLdvVZOua3lG/TJpYKCPQd1tffY6PdcUtwYFUubNnE9IzNr23aRkHvo7c5KC8SA9rcyDLBnWrUAhaJddjo4SEb6oxbe6hqm+srdncanpWrWPrIcRvpgl9E2ITnN+ze3LLNLOesUNEpiTeW4mORWLslE1Hr6zBbXs7ayto2NOa9ZYMWG+PunVo8oDvd9zTMVUukuywlngWNza1u2nrRb8nuAeuOFM2HeeHE4rZ19gzaQG+njUH7AUTubGbDpqCxpVzV8qXnI0wfCNIvkkIP2j7AwAEGvhoYYPEQ8w9HY9bb329vXDxjwdU7tjS5aavlTjt85Ih98+1D1o62Z3N2yiZu+W11fcJWChXDM8UJKU7I8Yctle63k4cClvSzAM3nrCwhhucQbT0TESpK6PEWv4Zg4x1vCtnSzETiYes5dNgO+5fMNsoI8xXrHz1kx4e7bKw8bv9yNWPT+YSdfu2MvXEkbSMpv21l1+xXtaxl1pdtdUutHQg5wufLUpxwwdhH25I2Mjpi58+esNLdX9i9mZyt1vr5ftJOH0aA8ResHUHHj+ZujTGVdrgxloIRDCcs3TVkF45WbXVx2eZnMhaIISqgwnM0hkrZ+ychxDsil5itY30JSa4faCyjiaT1jx2x49VJm50v2xKbr7ETx+xYR816tqZseaNmoXSPnb9w3t46nLS2QMnWV5atml+0LIL36haadAlXDYnqZUH0V7AfGlOYC2MRsWRbN7R0yk4OpRBYK1Zcm7ew3Tb/wrYdO3vaXhvpsMFIybLz96xUyNnCyoZh0Mbz3kDKXCwSTVl/X4+9c7Jmn1yatjU28hx9uFM8HXbJ1E36Yw2+42MO59CXoz2+AKPK6YYE6ZHBLjtRm0YTjna6FLejZ8/asfCSbS/N2cRCyfpQGLxx4Zi9ezRlFZQG01NTVlibscxWzbJF4D8H+joQpL+Ck+LglQ8wcICBLxIDEjA4cixWbRDB4hvffMv+6OvHbPrDjP1idcr62w5ZT5yj0sU79rONpB3vjtrxU6N2c2bOCgsVhGlPK621zOcPWjyetqGegHXAvUMI1slYiAUlzmImDeImTmdF20IDFI9HLBHlOBbTkVx203LYZxfrQpCPY/ZYW8xiRZkERKx3uM++/+037esn0+a/PG+3Zoq24m+zk2PdFg1uo4lesjvYRt6Y2rDlvLfyPIf154schC99W074wBzjyKkz9v1vXLAfvXXIPvjzy1ZES7cxfMZGIxnL3V+xv5+t2bHOlB0a6bLM6qrNIcNsYQWio3nkF6xBJCx12uhA2SKVLUQgTkE62i2W4HgfG5+tPDTGBq9Q9VubaCgMDbHd21jP2ybmIyVgSFgKYBKSSHF/w2ftiZQNH+m0P/jd9+xEZM22Li/aT24hbHe224mxtFVLawj8C3br3pzdnt+29W2vPwdC9EtCtuJfmFHEOOnoQfIcS2zb0uy6TZdrdvrokB2+ELSOTN4Oj0SgjxX7bGLZFmcRZBc3oS1tturcAtoQHwuGOBnp6LDjh8ymxlcsHMhboqcDXgOPQ0DezENLaItrgZDTOEdQaFdKRdvY4JQOgbkEENFYCP4WQykQz9Wso73L2vvG7N/+yfvWNfuR3fh43f4mUrAB1N5DvTHbzC7Zvcl5uzE+a/dW0EYXn482WiN0IEi/JHR60I0DDBxg4EuMAS0k/gTCdME2NxZtaqXXcggjfo4aN9fu2+VsyWZiNVsNj1hbsM3CiSI2qtgma9WRNqe5SAMNOGd/iMAzQvSe48d6LY7JiGUWLbOxYdfQJp8d7bQT/W2YaFRsafyeTY5P2Sf3M2gOfdhkF23h7m0WK5xAcQqthgq2vpGx2RW/pRHc/eGItaXbrK+vy7oRpMthLF1rZVtfXrdFTAJydW1Rc7cOPr9IDEAnPpZz0dhWBqEWoWGl07YZezn++nwBi0Yj7m8bphVHhpKWj1Rt6u60LUCHTvCV1CpycwV7eFSDgVDEwu099trJQzY40GFxTj5sbdbuZ4o2sR23b53usc62iGXZvC3dvGW3iCB1eS6DFjHACUbWZm7fRvOXwfYeGoamF1fXrCOWs2AZbXMsah0I0v2YdiS3MUfxI82jJV+cXbL1zLbl6Udd/Kr36eDPC8OAeA5jWi1lbRWH1l98vGA5/D2CmAB19rH5hi76utM23NuLk/m2JZGI26xgy6s5m13Os83yTN1c/0Vjjod5tvv+KCYivf124dyopVNxi9aQoDdm7dZGwErhNnv/TK+etswam3jo6bMpzN4w4whg65xdWbKJQp6NF862tai1p7bs/iKnbDjfFrGTjmA+kqZffb3dlobmMJi24uaWzSJQ531lNOXPpxwI0s8HjwdQDjDwBAw47vFQnUdffajawYVXGgPeKPsCYcttoMWZGLdLPb2WyOCYg7CcWZi0qc2axWIJGz4xQAjBrM3mMkT4gOmjYXRHjwLBcuKie8jZEM1yBSHbJ1OR3h47feywpTuJDpJts43VJcuvdNibJ9rt9eGk3cwGbchfso7Cul1f2MBeEUG6gCB9757drxJVBq1PR7xkdycJ0+gr2OlN4KOeDIWohyPYFsf0IX/Ihg8N2wJCjuy3V1YQvmk/wIJ4UF4SDMjMghOKjeV5uzsRs0hHlwVRNStcaja7YhulpHW2Y4/fR+jKvoQtVnJo9MI8s82GzXP2E5lp8yZnsLKcuIAZiCdteLDfTh8fsnQ7JhjrYbu1jE3rRpt941yn0xjeXa/aWDVjtc2MXZtbdw5o2wjSs4TDnKqFLILzbJoTmet37luto2JDBegaJ7RAoIbGvGh5+hmOJW10bMTu37tva5lNIv6UEN4QwA9I7IUTmDTKOg0rb2dteR774ln2RR39NjSUsJXFBXhXG0IwPhbQU4bxSiRT1jU6YNOETr43t8YYe3SlFxF9yVHRhfLFwboKb4mlonbkEHbX/d3WyaY9lQlaeAFBOZiy71/stuViyBYW1uykb8NW4I/TawjnCNK55RXL8nMXPpbEnKQcXbZPrk9ZEbO3IoJzGIHeh6NtkTmQ2y47m/3RQ2WbuzNp2VKeaFIwWDnc7rM8lSDN63tIABG7ipCsf/vvzy6wzV+cZsa1w1VNdN2sf/8NNtvchVfis6fBekC0jgsJTyBJeGrgUS/zLHhrwG/g/pVAysvQSaaMcLeDv0afGBjNJseoGtda+itYwHR1n4+dV0vNHlR6Bgxo/knozKJpK9nUXNRGsc+L1j0Ea2gNg+E0ttOD9ttv91tpgaPH67MIIVXbQpMnWcJbeHS8qogKfNeE5hy+tLFqS0spu7+UtWA0YXGk7lAUh6Agi8X4Ncvc3LS/XR6yi+lNBO0Y4fj8lmPxKsvbHhghv7znS7a8VrDE6rb1dkFLHNX7qzh7sVr+7Mc/tsUl4oIHonbh/W9ZLw5sZ7Gzvb607KIvPBcDw2fA6MEjezEgHlDm7GKDcJNBSyDojuGs14bwU8wv2ez4Vft111E7fnTQ+joT8H7lIygQMQNdocdEdmhMAo5oDMkJDWTJttFuzy2uodnrwLY1YikMlyPQURB93t3LH9pCPmg/X+2yHw5B0+1RIjzgv8rzFdGY6JFTF7W1uLJpbSslG+acPkjEDn9522bv3bF/3FrA+XHeOoZG7fTFi3Z4rNPW2Uhep81gxKPTvW978P1FYcCL1FGqtdvJE6N2/ijegpPXbL39mFVwhK4uXbV/+mjRri7W7Pe/e9I6emVWsWjr9wtszBRniGgyUgLIBhq68xFhprq9aXmcm6fn18lPgNNpGk03UWUiEbPVzLJd++VV+/liypZLUftdTEeiSe4hucI2tXC687owpxmbCtG3ipnbkkyXoDs2aQFMk+5evWwLd65hGz1rh994144Np+3dc92YNJVtZiOHSVNAYPZVnkqQ9ml3qnAmCrWDxkJhUbST1WQs6nhQiNG/fXbqwRtJdBdMz2tUYoPCRemIQUiSNqcENhWC5aCAAcZCY6Q4oiHC0YhopVkootaS9sjxS913m3zdexqseYTfcC7RWDQY8NNA+arVdTjnpb2wToTdYRFSaCcdt7rCmOkIX6HPvBicrWHIm4tooBgEechrLBpttQbhoNYXh4H6WCNMa6y0iOionWnoeGm0vdtOHR2z149zTF7Mou1bJ8IBCw80UsMm1Y8mOz00ZD0IyB2YbwQ7Ehb25V24uq6RIRsgqkZHgCgbHK93s/iEicgh/lwmrnB+M8fRetnKadkliu7c2uPoxfVKvxwNif5EQ+KvSk4h22mSffAMcrV7tjOVsGiBJQOaPSgvKQbQvjU2W1orITkiJESsY6DbErW8ba0u2G20cL2hKLRRsOI2mmWMmqNonbv7e60vXHM2+CEEYl951YU66zs8agMdYYtZ0SUUGkCK8XJMKKReHtt74lgXIDDRjQub+DBunMbbCU8iQPFAVnU0iiHoLAqdyY4/DqF1tMUtuAZfexjEwZUXiAGnAEKWMH/MOnuH7Nw5HFf7sKUvbtgn8xmc9rLWl9iyQjdygWQ0IrBEXEg8RlI8Dxkx0dnFRh1THjZH/gSa51TIyvl1fDWS1jdMhKAE4IkMBFli9qNwe7QHr9nOE/VlM2KbFnE8SXJnY/ncQQnNiMYUvrMKZ5WSQGEf/Wwkw8ismFLjuFqxNuC2xWPmW9FqWZeJdoA8+4eWBekqx4GRSMK60UgMoNmIwGAdcpmpW9kcx4lrNo+HQIF4kJ6i5cHL7mjheDk3QcS4tfJT9ML85ofv3n9d9hCl+jg+pNqi2Nz4LYsNX9kftTCTvj9Zw4GGYwYSPmyjwtci4AC4Zz1ECrTadu17zakJrw9uMOr90aOvfNEiXbNke8o60xBrOuoIqVwoWBaHkvm1Lctj9N8OIQc50ihhU7S2yViBH4d9Nx4aM+9HuHyAO7AmphxiErVHLMImZmM9A97ZXTLYoPKgPBIDHkHXwFEs0Y42L2UDXXERpSNVN43LBVvbyNp9jq22dJQqIYt/zXTqCd3U1kIEofs4ig9H4hyrpS2MNnFzadWWEZa22em76fTIvhxcfPEYaMwvrS1SAqB8QHBNdg/Z6xeP2bdPt9vMh5cxr0CwSEYtxuJTxmZU2udkd6+dGmq3w+mY5XwJC7EAyYEw0XsY+7+49bUFbQWhW8fxfqdRRMHBX3m5I6s42ilBO470pCncgwy3QYbqqsDQc2X4vXhvG+YBCYT3CAl4DiWrNj+1bYvrRWoCYS+QPTAPvr4IDEh40MCgaIK+pGjyBREeughDF9+0qIRhNIBLaABXV3IcbSvGLpsv1tgOTkQuDuIElohjbxomesY0z5t1DI/g3MpmDtvqLPDKQQnr0ipyZM4aoDWEUOlOgBf9eSvKbvporCs+hB2P9sXrZCcdt87uHtYUn/WQEXYgWrLpddamXMkpH14EBg/afBQGtPYQrRkZoJtx+u53zlrvFmEwx9etxlq0WSD03AYh8EoptNC9dgJeEaps21Zu2zLQmGLUR4ji0jcyYu9hblYOxDBX3rbcyioe04T9HPBCIBZkTiYag460FmpTWHA0pRM9g97gTVzX+ri3iKtJOaGg96LNsuQT+FgYk7m+ngQRkXyYNMUtSdjQmSWcr7dRUjxKKN8LuIXvLQnSEqjKHBP1D4zZN779rv3p1yF8zMcXsVMJMREKi7M2c/26/Zef3LC7pKrO8xLI/06LoV1BcRsDGWlCpc3WjhlEldDAqSiYt3bOhiOLC/DNBFVdeZUHwhwTpQbs4oUBO3soaD/7yYe2VOuwBJ6Z3z1as4m79+zXl9dR6eOtXvIWDcFUMoMAoVSkSVHgcAV8lxJFP2IwAHc77UYQ8UeOiqq+KoVXEsqL/B07edq++d55+8EJFlsIaFu2ltd+bf/xv07ajY2gfeu337LA/at2/9Yd+yl2bUUWahEe/+tjhDabY5Uq18WIq2KUjFeAcDWJzkP29Xd70Ixt2j//149sJlPjCE8aq4MV9dGkAu6g5zKREQZHz9rvfOuM/en7/bawmIG5FJ3AYlvL9tm12/YXP1m1fLZgW9gRKpOUhGZ3+kICjDDMhRFmwStakVTbQaI2JAcG7Q/++H3rx+717t/8xP5qcsNmsAOTFvGgvMwYkIBD2LGVFStzrFgs+TgyT1kbsVATiTYbu3iBsHS9dmxywv78X65ZscBixPxbIdZq7fioDZ0YcbGfr/x6yy7fnbd5FqHSWJe19fUSl5qEF6tbZFBcJVZqwvwsYn7SRhdw9lrGmbDCwiaba1eapqwWIJ2YaHOdXd+wuTBOQiuEucNuOwO/feu1I3ZIMYXXxu2nt+/bJ/dwNWQBYmv9MiP6K9s3jYo0zSvLS0RQKNnSWo7xnLLSiTft7Kk++w5jefnDT+zG3VmbzrpdlvlZI5eJ9xs8d9TGDnXgKJazD368bhOzRVuOdpol+4jHm7IUtJhdytjiMoqZHHar0NfKJpv4QobY4znC6RURrD1FQPMAOIUZG8IiJyRr6wG7jzCzCo2FaynbDvXY1947ah3+vK0tXLdPbizaLUKJhMJSiDVDOfj8ojCgDbiLDU6EoI543FLICO2pfkujTe45Omw/++gaY3bXftnzNTs3Omjnwls2fe0yUTIWbXYVkyNOyLZQNWe3CL05REjEDvgNIeh+9f/N2TTXQr04LBJjvIfTjupW1uYXV2x11W+ZXMFm8efIKOoQcuEMYfJ0wiYaQ2DZhQ6ZEamP28SJXvLlzJ/dso0V5J+hQ3ayc8S++/ZrZpvLdvv2HfvJpygXt0ouicsuIM/4pSVBWoKmhNBgOGZthD/pim7bndv37G8/mLBw96i9drjHTrxN6KSFdUvOp2wO78kBeYHzIsscI/Ud72Z3AkNHc71YDFsHR4QDBO2Wyr2K8XpxM2trNZwYEmg8E/IM9YLAr+UDduyNC/add7VTLlsQW62P7hPAu1pGcJbwzHEkQnGsq9eOEjplBE05B5q2hv3eAvZVi3gCd3R3oaGFAXCckJTdDUJKeStn9zk+nYXBYJHC62kpeYWLpGA2I8F4lx0+MmYnRyDKxct2JRO3ReK9DpZxNjpy1HpiXfb733zNNsfL9in2bdeXps3f1m+daCsG2zn7QFO9zuI+Pr1hIY6b29vbrJ9EDAEIOJZIW9fIcfvuBRb92orhYWA/ubZidxa33D7klcbfb3ro0byEo20ku4gwd7L2D59dsiu3l9jFQ3fVbVvOIuBEmENn4kReYAMIQ4gSOqqwxcJCXNVpPJRLnMSkCSw/0hWzjnTaUgSdPzPKhnYRT3g57fAOTNOD8pJjQPNke3PTbl+9SpZDImgUsEHN3rF/KZB693IMfQIauyKLRhanmpw01jLR4pnVRbt86bKt3p+wBI6DC7PYUJPQIhOYtF//asPuj8fd5quM0LwJ/Hmcc8LMZx9C+yob4mvLpHWvEQmBfTNnGrv5HdJKAPvGHG3c44h2w0/sV7TOWzx39cplW5/Fq564wwViDo/PrBkhp+E3e2C85Hj/KnVPYuwGSX2uXfrUgjj/5aURZMN95cp14o5PWZpoHTOEVpwj4Y87hod7VEsFy2ET/8EHZRu/hh0qmuupiTUvaUXwjv34n5ftY8Lf1dAOlvNrREkgLnTBbwuVrG2zGdyo5O3DtZJL4FIiWsLeNdUpyyD+jflpu7nus1kSsmQwRfKvzNsnH1dseTIGfWKKlFmzO0R5wN8VbeFeUemrNIov17tqIyRFaHEbZ+n5efuLv8xYgmMIP7JYTYma5hZJ7oPctv0J0YBi2NGXbWVhwaYVsYOBlAyhGM4Lk/fsx/91E6dE+BCy38wUYTbLKxbIVOwvCotOPqtBi6XNdeKO++BX0Co0toqNPRKg/fMqtILlQ4nEMHs3WTLjUIi81enb9ukCytsSZku1os3dn7JfEm1kdjzm2lxeWbM5Nn8EJ3oIxrNivTVBug7d21XSP6T6mzev2V/8/Sfm7yOg++9/x86cP2Nvnb1uwT6zu75eezexSLw+Jsl0wd772uuW2F61lXv37Jdr7XYarcq3zg6wYLBjWJyzFSb9dnKIMDqo/pPYTeF9efvajE1Mbdqxk2N25nifnepmcTjUYzNo5LJ4oUfIqBNC8xzFO7T3yCl7/Ui3vdYfxa6QI86pu3b3prQnm9Y3eMjOsss+1oFXMISAXtziTOJLn92yDz4dt+kNjhGc9u/VFQV1YqCxCUQQ1trb2TEGrUB4l5u3SnadcFYjyYqFuo7Y6ZNH7e1jfbZQ7bfluTkE6Iz1HzlmRw8fskNtCMvBLUJbLVitcN1CI8fItjZs7w4GYcRMlkCSWLNH7eIx4tJuhWwOIe6z6bwF0EwcCHBPmH6QljR+UvtXOAKbmJpGC30fT3V20DChCtp+Pzvmd949bMPpiFXIdhfDA7qcZ85MXre//nDOtsKddpLEBe8ciiGQx60UZDOKpzMKbXdc/4QevJDbDdMgL9KEZ0b0vDqi2fpS0x1zErayYx4ljY5nJ8pRJdnipu7egyi0GCCQ1iZsdsI7Lnf4YdGRBkepxb1kBJhp5NbsxtUlu4IgI/FCvioB3a8RbmwBLbGu1+nM2c9jcqcU5K4uDmhr3JRwI/t8bwHagz3q5nFczK7VjO019oT0y7dt47dW7RanKuq/Z+fPhh0YurAHguv6l+nXS09jINubW974aETcd8Y+SwjEddZVhcQTDQVxxrpz87rdvKY6OrWVr5Pn56QxkwBSXl+0TxCmvcQq0Jhs7Rlqfw3t9NyEO2pXXXdSBkw/7bj03yCK9EEow0QzPCcaexR1QDAZIoqs81fPKfO4FZZRFsxD1+r9brr/KtCY8PmyF7+OuxmzAIJqgROFmYkJmx6/Wx9hMR2PH7mT1MWrdsfxC0/w9mhMGytojKyVSiA1Pz3heKP8RGQ5ELAMXoVrNnP3jqvn5EwUg5CY+xGtyFFbnZiTOdAO3QpqU6EfLtY0m7VVaAlChcZ8trR43+Znp+xD+iUe5nzI4J2ODz4nPvZUgrTrsvoOAuTQEseJIbfJERLpHRcJ0j842m35gS6E3MP2w/RtC+NENUWokne/dtG6stM2XduwW8EBO//aGfuDbw7a9Y9+bh8so76PD9p33zrMseQ2nuLbNvzaeeuNxexY4paNo5XLYBudixewa8lYkWOg0ZPH7A/fLdvPEbo3/Wv2/u99zYZ8axbKzNtk5Jide7PN3jraZYv/1yXrHj5kb7590b7fjUbn7prdgre8/+0LpLDEpIR4g8ssHhlWPO3MxThfxaIjDZnFaLFdXCDMUREcf+23bTv2mVV+ftX+/CdT1n2ceKDpAYKQFzlag8myI7P+4/bmeTyl8ay9c3XZRt844lJ/hrPLtn7olA0fO2Y/Gt2wv//pTbsytWBZf48d6YlaHE3XDFECsgTfl7DgCPJVRNwX1WdwVMNUxheMWbJnzP70D1P27W/l0eSQKOP+LcJFbdvH62n7ra9fsIHIpl3/+CPLpY/bIY74f+tU1O7O4x/fPmI//L3v2Kn8Nebbln2ajcEkglZjQazzuS/qbVpuR8KXiwDAyVEZY0sXaaLlpx9d0c1R8e76Ui1h/XkVx8AdMPjBfsECwBNgYO7wQRd1AxzIzEyM3MHXSRKTB3nECb1+fA9c8Tg89n3cl/bXFQkaLE4yg6t/F1xZpAqvErxdqT/LmgFQT+jWk/qnUvLs29znh3+pjoQh2RbqWUBIOIK/qI/cgtZwjBXBPWV5rrhtaltwRRPuDb1XbLr7bB93aAzYTjB9NjCPfEq4dEMBATyP7gYRDOS4p3HRXKtAX86PQmuCjr+hMf0VKe2MpUOYt3HT9QeFPiF8sLw7nIr4RAYabV33++mxoy/BwkTJvQB1uO/q6I24r/YfW0T4GjNMPEuYDQKJf81tivaAuKtfj4W2c8MbM/fbg+n6tnN7Xx/ko+KBo6/PCa6HRo92G/5i++pk/eEGXPf1OdFYFfqSP4dz5GNsNScUbcPDtvdbSgL50dU4jYBUvHtcc7b0zWMpBEpIFh55tAbdQqH8AxeCWacPRxfUeUBjDcTLblo/n4MtB1sQMV1VdiDhQfQr1qk26ZdHe58D4xG33JsKwQ6G4D6o9PSCdP1ZMTARmNI0KmKHbJSDskv2KZNWEO0mwnYdodKcBPWj3YAmvq5jrzc7OY69yobd3kpbdzuZlLqSNnCkx7qJh1rIRCwfJpEANtera8RfbS/YnZkVtKloRsnqFSTUTxeOj0eOJu1sv9/mP+VY6hdX7W571b733pi9MTxqZw7fMl8nThMMfGF1zu7dnbNLi2G78PUzHLWT553MXyEPKw8w8ip+EvMTKZbzdvWTDzFdWbP750/YsdSwfe9bcevp6SKUUAwbRxIpYAc5j3PazH1C0iy32fT9nPVGkzZEyKFe8tFzwGu9abxp8W5FTLNwfpnMQ3fto5tEBCjhFDWasFSVeLRTS7aKSYIEaebZQXkSBsRdOAYrMTbjdyfs+iQbOM6WCmtzHJFykhLqY8dPuDPC/YzfuIpJVJ/VmAsXBtutjzSoPkyXjgyGbPkfZuzynRX7qEKa6df7LQFDkQz1sg2BFtowE70d298e+h7nr/jDfosTnMUYYejSLjhN/36BuufFnHHM4rODq/HaR1E/JUhHSVSQaksQZzUKHjotkiwyXvuDrW65hUs40D/hwVtB99Fj71H1W45BgvlAaN8fWC2Tzv8F2G7d2NkM7A+unpYA6eFak8BhY99ABa9xeqBNjzT8z6N4uIXGtDERz34OY6YIBlHmVQKzSGmK+4jDqz7vRAXaR8clEGvsduaE+7QPgPVHHVzGTf11tLt/kI4GGuMm3Lr4088BrqQljy9488yjsf0BdvJXg8b462jseeIWQbFBX8+Lxro7kyT0wSxX5p6isefCc+A10JhXpCR4PvNM8KrwcscXmAvPY8wEs0FfDq5ot2n+PqMg7SHAeegykfmPMFXFNo/QJWWcqEIcV6N98Tx72WE6TQxCBNtbMagKdXI4wc1wxD03j+MNqWjXsa/qbcPBjXS1Rbez4f3JcLOxgV1ffsu2cZ6YXdqw1dCmdSC4b+LAGCAZQRfemP0kE7iNPc4nH2PSge31yZND9sbJfhvA0zgXw74Qc5CV3H2bJMXtreWECy3VSRsxmXrQdzGKV7lo+RANhoI1jk7u2yW8smcwWflv3jtt3zl90v7nsz32n/7qvk1tEJ4GW6MVIm6srnJUUm3nmFnxFwsWQ3jGfJKdIjFo2QH55RTKUUyRzEH3p2ft9mTZttKcDnDy4CeM0hSJHTJ5HdezMXqVkfdF9F00xsRTvN5CdtE+/vSy/fOl+4bfBMEwixZsH7T2w35ofMtKy4t2d/yeLfKvE+ZVGSYlNPGBo9hXd5BG+vY0KU5vYLaDzf8ijhiD7GS0kXnZaFib1zY2qsdGekjhGrUS32WKtWsb/wy4F+MVbylCmyFOxSI4O2ux1/9nLiBPgt4WaWnFHINk9VP4SDHgZ4Wr7ujxELuckU6cc2JBe/uN0y6q0b6EHGBqvssJUclS9DlEwFU5TrMm77uUUYxsZTPglRMP+CvN7a8IheC2iMOQlC5aLCM4KznA++lvHQ9bmEFJ0IngWO1MCpoWt2fruHeCoMyPJfhoNJl0dLZf3KpbLrkN6bWDzIMgtKv5sF/aFb0qhNzwQML5DH3DH2ejBlXsBw8adMamwJorgUSwwsSPlsD3rPOheSzkCCn/jyhpw7W5VnP7KgCQQ7xOe6SRF35Fv/vFrTom2t3MZaFbwqihfPOE3n311qFQeC0xh+XQH4fGpI3dF27pq+ML4FYxuwM4qYu+pMTcP+36HP/q7myzk8dDFu/qcRu1fY2bcIs8KBpTB3WiJvzuh+e6UanjYYsxE1+IJtscz9lvX4VbzV/vp+jWHYWAbOD2qWUgNz/ZTRYJq5bHrMOHANZOgOx0tGYz0ys2XyP7zYBin2onQCh2Ms6E5AzFaq9GxTvdD1+k1u8cHLSeY+/a//jdXkw9rtjf/PlHdvJH3XaYiSGNluwEHWOgfpkfaUBVtOMq4vCQy6H+9xEqSoIGfUl2JNmdSzNesRwJDQqEyVOf1baPwZJmXNpbHae4I5U6PA/qq/lbk132RrEO4tEe6bMOHIPuX/2F/V0mj+nKeftf/1ti0PYQ9BwnTg24guxHkgk78/o37Pdfj1tXccn+z//8M3v9+wE7eTgt/uE2GGAMTAln2KQTOiaCUZvGgoFw9nLamR2UFjHgiJBjLMZgdW3NFuaXCD8oLRrxU/2dRrQgBG02pOBcwoaEAqFaY1uAIeBpwUYUJobzZ4L5FsKhN4a2M1wkaQLD8DKNhOhCm+ahnnYyVXVZtKuflNfEh61HFHmWvoomVcpEJtlmY53B2TWB43OaUEvSaTwLTAeQX9KDSHBavj/rIv4kUu0418Ydv9gPXHUKFkfmrQVsC7P2g98ZwSYwsq++urlJfzPQUB7nbcXibSPkZZz5vF88CPY2gun8vQlCWPVZe0+PWMC+isMt/CZHiMcCTpDiv539fU4Tqf4+a2ngYWlm2mUtSw8MY26IYoR586xj1njVEiZreTLyKUNgz9CwJfA72U9f9Y7Cg1Jmyzcl3tbOTxtrljaB+6NdR2Pw49XZKTe//s3QyL5hqq9aMNdx2i9sI5Sxlrd3cVqJML0fPDTwm1nGLho89Iwetih+UU6mUJvPUARTPxLON7PEyUaAigOzo7t73/NBeKjAFxamp0kQErUUQQ3CMgmFMe+Hxhx/RHbJrIJfbI77Do2wGY7uG7fq7wbRgPKYwkqAFB4inIQ9DxpTWu3VmUl7+50uQnHCFyjPigM9q76K564TYUibihDhNRUYQicU+6Ux0cMSY1aEdnsOHWazJllUrT5badDYFptgzeFNFA2dfX0WZ/1p4PbpBGknOHGUREi6CxfftH9f6iY5wJAdI/ZkceIm+ddnbJH0jn2BQds+RSzBcwH7UTxnIx3EDJStOMV1ipmjuKUSGCrEYypuEp4uErNBUtC+jiPbyECbpTZIdcqOqooJSIWEBIkuYhe+cdQuZ7tQ87ALRwOTJ27hxJ11+5dDg5YePGb/+k+SNhsbs7FUyeavXyMne460lSzo9R16o21NXH3eD3L1+MtT2JQwomW8p3sHD9kbx0k/fLQPbfwgkz9hq/dmbBpN5izhivJGitijh7GVjNolyCDELrCjc8DeuXjGjo50WU8qYGtu5w3D0D83VgAnPGGptGnVYLf1dA/bj949Zn97ad6uz+H5DSIcPl8ehLxcPRGCkKj8QezL0x32/tffs+6B45Yn8LyRQS5bTWB/HrYom01nNgjOhU/NDxTZViS972rFb1cnN23kzFn7Xv8R69tqt6NE8KjoVGBfLO03gyq9sjbPYSLlpEiyEIGxB9mI6XpzEX15Pw+uaqF5lG2qsFJiA6+oJrVt7M0xmeggZrpzjnrwOJ/qdOskAr7SaJWTMP3d274ek4ZYC2Yxs84YcUwO3HhKmgz1t/kJ7+RH/XVF/eSnsbn3Lj747e4RhaOcI9pBOWwpGK8WzAbMxnsLmjb1/Keo7/zm59E4EF1QB/OLAPavASdIa9FsczAetC4Y6m+9r003HFy113RNH1Vzi/p5zARkjtIODty7OhC0KXzyst5zDdh8r1+jhqvT+O5g0gfhNsCGcBvDSGkL04yZKjbbhqoJz+RhT3/Vzzr85v6qlt6tgI+LFsx2aCyMZt5p4NRwvegZja+D3bjI38fSGHWLKIgCnIZWN+GNHGUnOqAxb3B2IHhjB9xGd7n/MB3uVHcKiIj6C40l6Gs8hcIH/Lp+PKgmDDocOrzr+hPgCjcKJ5tfkcKK0GT0tRmm109vbB/0z6NjDWRz3UY39E6yia9y6lNg4yOcdnRAu6wLe/EgHrWDgwYAdZvxFsqE/+ai90M6t1LGozHNM42NSuPdG+OtKx79NmjAPe3aa+63xnd7E1NEGsQoEbwmobEOZ9Pb3P5DY9bo2GNwLLgKObq5tsy8xck7BY1JM887N8P1+snvXYhQn7153Whm5y9jViTEJCknrUCSEI2ZE6SFsKayt78OL9TZXct7QBhUv3TC6ccfR5s00VcUhcDeMdsFV23yv7Kn7aZuuPknvpBF5opzmtTBxrK5Fx48ngDOg7Y+n8aEW/HyKrSgkyppo0VjWvA0to3SoInduFVbj59vgl1Yhy+guFGEODk07tBYY4x4Xq0IrmjsAW5pUfTvmqjXqdcLg9+QeC68QRHNkoybYl2rtCZICzALurIYKTblxFKnBclMc/E8IWviCSuvEffx0m378OYCwhtEkuyyq6eOEnIuZqMD7GwX2YHOrmBSsUUswSyRIZbs1lTUlkkIskpClU1MPC7dabNOJmw39jfBwppL+DFDdq8NbEbvL7bb5HLY+rrTNk2s1LkMudVnq0Q/mOMYfB77aeJbH0/b6yeOWLs/YZmp2/bxlWs4cWXsUO+aDc0v2F20N6u5ovOYn0WozJAAY4GwQCj6PKzp76taGHkRcIkFhVNvjk5TduL0cTIBYdrCLurDX163y3jfL/va7drEqnWiwY8mErZ5b9puT8Hw+ttscKjPIr4Smr41UhMTI5wxyOKQeCOCxz9/K0SXyG/gzLnQYR2M09hgl6UJxh5cyNcdAl5V5P0m++3NSB8CxJYcQQm5eHexFxofsgvJHrS2TMIK8Z8JY3adTd/sLCHxMF/aQMuc56hlCVv22zM1YsAu2QJ1fB/fs9ThNlLppux4joREaB+WZpdtnsDyRca/wSN+k2/UKmwxIvEYOagoKYSfHzl8NDNJwVLmPp1MObtJj7PxHp5mUQyxuUhbIU23HF8EU6ZlCkevWN07cHnG52LS6z6w0X3IrEZaNUHTj8f6HkCWFlNChhIBsHUBtueM4sdmvQHX6wnMW1FWqCvLUWUcFBOWHAD6Hyp6VvbGnpOOnKioAmxdd/3gr4OvPje9q2PfDuDu62rAMX5tuHh39VcOZGX1FxzI2exBAQptK8GKF3O18e7qNza04MR7pwdPCLbgCG+CXcLvpbEA6QVdv9XPel81dkKm8OuKw4F+qY53SYu7UgJrvPQjp26662A9sI+krvqp/uqjYPK891f9DTlh2IPo/VZflUVP/XW0AONToiJlNXM4bapcU4gu4Ltxc7ClxFE0iz1CIDDVbqOvjtaEZ9pQYoidonoStKFb4V6Lv/DpaMyNG33fqex9qMIzZd7k8Opw4dFuYwFXLb2T62tVNAYMKZugMYbbo5c9MPVV7+ri/TPP9H6aD80wZUqpAhY9IO4zc0aYdp3cgwPui6Y9POjdGReuCRdi9HtpTIourT1urKjnvbcidzBmmhh7it7R0S5wHZ7psOa1ihs3ADW+C5p32ioEeHW8BtRKHSl80jh6c9aD6fiCuotWopkWPNx6MYgdBEC4fmvsoAe9c3NR/2We6sY44PEcH+Ot681wvX6Kh2mu1XHhaILIOg/hwGu0wcNcv2njIdzq9USz4MkJawhgek+Xzlp4ae4on735oLkr3oW/Wp3GAuCgeZ55NIaZlfgSQDxeqxC3eotHF42B6FbvpghnmnO65hV9doAYEXX6AQxaBqiu7r6uGuK5giW42gj66LemEp3lf1NPoF/xXF0S1xR43XV28I4v8KWp6P3Esxp8wSW9AncNPtYYN9Xzivov8yVprUVj6rPu8Kte5wFM4dbjja7vzDVHG9RuSZAWoCDmAivLE/azfyLyxaUYDg4aWK/BTY7B1lc2iNtcQPOyYNc/+YX97zNXSfnJhAIRJUKWbG/q2IU4xeVF+7uFO/bLnwZ4Jk9q0U0rz31of7Z8h+yFhL4DZkXPYJ8mVfrKptnc4pT94hc4K5UJl0fw7mzRZ5OXCPGDmn0Nh7epf/qJTX2WsH9si4Bo7q+t29oq9tRs+ravX7KFmZsWqdBHwrgpu9//8x//0vxF7LQyOTS0YtT1SarXeRVLnQCqpOv81U9/areufGrdhEZTeCKZ4GQILbNKTFpp9v/szzgSJ/WmtETzawUbvx4nfjfZIkGBtHayM9siJee2j2NuBvgnPhI8EG9biUKKk1fsv/y/k/Y3hNcL4th4nxiRDeJ+FdH2m++zaIs5gNPs7NRV+6vslP3qA2KdM9HFXx1TYEHO41uwtlG0e/fQpygk5DomUbnrNj9x1z5mYzo/t4Z5x5pN/tW63UzjuMYkqSIciEFqjmRIhLABw3yl6JiX90NvW3mS06yvEHifWNp4WEsYSrT3oJ3gVIr5LA7q+FqLgyWGWSvk0S6zcSdOLvprMmq1O4fbOMeyQeaEFs+nKmLO9KJGFsrs0oytEy81j5lNrGsIJ2m04rEAPKv1fmrcFRmjgE32Fv4JVbKFxXDujUVg+DD1POHxthEwQjgBK564Qjg9XZ95Qezxs8SFzqyvkzHT0/I4emOT0kGWxHZikUfrUUI+Hx20Da3J9nSLI5Qw2uowsc592livZ92incBmUimeq8Ss3syiXZITN3Va5aqK4FCE32cIvZZlU1hAGaBNlOhbSaU6+0bIrojzOmtdy3jgZR2eobFshrB+hIPLkNegwsIeIENvMtWD1jLm4rYL6OfjoIlaRAvwxdomjtvg9v5iznwRtMvtaZy1uzEpRNB6Vhqjw+UCKd2J779K/oVyEPOPzkHrT0EbMGgnUDV15fM+6t0lFOgoWtkHa2SSS2ISJhwyUM7vSNvGILiIcsKrcIct49ZhFsGK3BDrC3OYV6Igg8acnhb8YKBrXX2DrCucROG30ywXuW7t+uX1tKYTT/yeCiTJiKJRDrJJ0nzLIFf4ScwW70gjrJSog2kXNBKR8zJzo3UaI3lYfsOymITJyVv7Ask12iAl2ruYE32WwO/k8wTKXd3WF7pOL+knc21tyTLIEzmSjmjjGol3kGW407qgsZBM2iCwlmmMsZAQXdviJJL3X2Ft4IU5OfZyYkRQzAhrn4/Xh3rr3lfrzlZulTjji/iNoV1N9Fhbutv6yVisexKWWy2uDyg1NqGxEia9fszW2pJs/HhTafKzmIP4OIUNcwoXZTyfrggH+MIQe3p9YdZykj84lRWNSTmibIVdKKQ0LyCDlmhXfGw77wVIEI3pRE9JqDIr6xbt6HTKxSDKRCUxUtbNCNllnVnxEzvO/HlinXoFadWKWuTJUpPLaPddj0FZF75KOABWxGTY6WziSDgNY1RYHg2Odkliiu6HANklNNvEZK/vtkRg0saRsQ2CU8dlM6O6YhzaEW4jDK6vcw8G5XaIXMttMOgsOvpeJXnBPDDXlqVlQRjEjrKEhqKKgKm+yA5J1wVPGpyFuSUaRTPEd22CGjuPVnHxMtYTmWpBymMjJqe11VXtsHlfcFkg6YObdEQ6mZ3GuU3MFKwXMatR8oYlxtKFUKqPkycUMAmYUyvAFLPhP86HeVtYIIEI4yqBpMhi/xTz7mVE2xfSJ80dneYsL2/b2po3dyQoeKzFw2+JsVjPajHTDpy/pZzbfG7Ag+Wsy3QgKceqFRhfjZVS7ZY1p6B/jY8YoAfvC3ml/TXCu8uZNVRaJ5LOZ/Zrsqwt489QZjGOcZoydOItHIZHOT7D+UQE5v3//DZ5eS1qfmzIZiav2q1rl2ziPo7KxSB2mN125u137djogPWnsUsFX09Dt+JhxdyyLc8SveajD20FBUCxhg1112E7T/z8C6cO70QoeuIy5Madd/cVbOrOx3bj2h2bDZ/CVO6YnT/WYb7cjF37+BYnbpt29K33bWyo03ra0LQy1q31WVSAqqRKMqwpso1d/tTuzWYQdNA8ksq3Ld1nr731np1MIkizuDlB4HGdbhBUFX+YlVm7+fFnljx6zrpHBq2vfNc+++llTidrdvi7v2+n0jirEDbzxx9l7DRx+48fG/AEq88fNe6qERbJ/IrNXvuF3bhHJjQ26EoLrA3QwOETdv7rAzYC00LP4rRoTwSpCqIx1ppwecMuXf7Art0Yt0UcsAN+fHoQTgeOvWVnz2DnGNemwIP4ODTstEdX/Wx8/Sh0bt360O7cGrd70yiCfPiZDJGYDBo73E+K5LgSl2jBb604jRewtzdmbXKczH4f/RpnejR2ZK30d43Z++9egA5IviR5DKBPhOvmF+9a2bTpT//JxmeJ1BQ+Zt/7JiE1u1gJ12dQZF23rUCHjb3+NTvSi7ADLWgtbbU4QY/kPXO3PgIPd21yHmGKTVqIMevoHbDXv/YdG+VEOoaQLkw8kXbRbK9Mj9vkrXvWeeEb1kvmu0R+3H72t59YMTVmY+99x15LzuOHtWqXxov2zntnSPuccjJBK332yWdqZdruffqBXb+36iJO4foKb2i3I6+9ba+90ettKCTAP7Gz9RbBc5CEWtvZObv8y5/a3WlO3rPMbcytugZP2Mjx82xe5LjcoqQnsKIx5tt2bsluX/kFEZ6YD4tkJfXF7NCps3by3Fk7MtBO4pI6MbTy8gJLX2tsfPKZObt+5RO7eeMmQQZQACQGrJP8EKKxzhRCP+23RAXIVgGEzkJ2we787Md2N99hte4j9r33T1o7MZ/XZybtn+APqdEzNnrqNTtKam6WLfhYS9Drb4Xgm1m0ycs/tTtkSJwnzDKupORY6LTBseN2MdFrA+mo26x9LunSLi+PkmLTZm9+Zuukn++48E0bDC1Zduqm/f1f/9o63/i+HT1z3M61L9mHV9ZsrRCxt6GxhBTGev4JpXVBGkBa5F2aYmWVbgKsdiQYNI5iJQhvs1NplJ1+qA4XFcPPPc9gcAnagZEiLPPfXW/UdwyG+jreQIHqiu7pRwKwx4CAoZ0Fagw9r6LlQTbYrh7P6ujLXaUxCZdFqTx0xX1vtOYuvdK/nKaEMZLXrqJzNIoT2oRoNh56d3eH7xoLeelrLPTTwITw4q5wUeKZ9zyf68+7sWu6TuWD8hgMNHCqY/aitAwOp7srq04d4yJKPuuf6BZa1Tg1xgMY20RZaYyVGwfdV/1GQ7tBv5zfXF+JNoIgvYaG99adcU5AUghKMbQEHIFrU/5UDFevKZxxvI9J0ixM/OMrt9hoJNCkKkMk2bM4lRno6+SkMeHqehT/ZPQIr9rAb2WWOFW4iYnUDFJ1lYgkLEoIO+sjA2RhO+xO0lobAm+sggh52cVxG7/yS/uYyDftvV12eoxIAwjSd69dsY9u5C126KL1EzpQpxpVNCQt99nVZHNVZpHHNG7l3m1bLqHdT/XaaBh/FrTLraJX7+80Q5uE1LzzCdroHisiLHWVScpw54pdmsYMaezb1ldZtCCRkT6+tUUG1H47xmi02l+NgtN6YzOahx4WJsiStlWxHkKYpvpH6goQ1WodpuPtaOUDJVIBz07Y3YlJTh/JcEs0g2iUTKFuc7prJqmBzy0eTGxQlYVyfNyukd23UMYGFYEygNZ0aXXdBojQUkuAazdLPxfczk2Jmlqscyv4skzcsY9vzFovpnfBmBQdZCk8c5R2ujkFbhWqeAIwEfLWpq/Y9WsbdoUrZ19Du93G+rsxwWbtEuFlhyx5+A2ypXKSqw58rjSy012P1zhGhhIAv5n86qwtjk/auj9JnPwhCyfb2RTD6x488vhPNMt/N3fz66SLvv2JrfeddZubcJbwuJwor+PntD3wuh0ZwgcLJ+1PbpudOn/MehvD93joTXeQObAdLpH5MzM/yUkC2mnMRAfGjtoggoP36upJi0X9Fu8Fx1US1E1NjNvUHMqPWoLMkSE0qUTVwQyA7W+LAL1qDmZ5kxM1Ei1dvclpPJvKEhuzEiaWy72YwmKu2tfGxkdKw7oc1UILmsc6Qcgs3oV279o1TGJ7E0n8AaCpQIQsk2dcZmnMiZ+86XHtob3n7apbmCyO/4pMgn1W6g/bO28dsRi5PVaxOvjop7+yoW1OFgePk7MCxYM60SI+vKq8n07DijnLLkyRyAUNPT5e/SMVSz81X0CSQcO9vnDXpsDp0sDbnHItWn4Onv7ZR5ZOnLAAJxPnApOYDK/ZfKHTLr4tXLRGEy0L0sKdlioJa1JoNpPH3qaEsIDDhJ56uOj+7mcgyLrY/6i54Q3AbjhOqdq4JHhNkTU1JAAAQABJREFUMJthu+t7+iKThS9rabxvAweNv+5963hqfvcGbh/GO0/uethjHI36zTAOPreAAXCvzZ1w2jx39OQeNNeBeTS9A1k0rPHbufCKf2AhVhjMaMeAjb79Q3vt9Qt2uAsTDLQ3FYSSKjaLVWc01+J7CjFsIg0hZyPPwhB8x/74j79mI+2YGGxt2poiniCIyH5QQf+fBo/a6Oc59VonbXbs0I/svTPD9o0TMUxupq3c1kOzjOjDE+jxHaduhX7ECW/YebjHwjOsXmweihyR57ZyzhE4HiQtNzwxjBC/l14eD1h3VB/uGEzbibd+G8fis/b6pZ/ZdDVl1c5D9vrJw5aIJxHOqQkengRb90MhRUXSgpi0RTZ3FbTlo2jNesbG7BAa/u1ZhJLIkrXFtqz7yIClMMvBqs/Dibr0uYU+cCzc1n3Y3vy9/x6t0A3Cbc7YjdWSnTz7mo2O0V+OhlWednPlbDs5RU2SeOps1zk7dfGCjaDWThHdo8w7OZt9nU58bv+ab/JSvLd/e94Ws2j00UL/uz/6hsURzsqc+q2WPfMT2WfuWp+aQTzms2IVKIpDvpyy5Mn/zv7wW4M2mi4T3QcTu27GToLrU1Cts5NmrNoG0pZaQ3O6RAsKdYqfUK6A5z8b10SgHe2hktBrDB7TsUdcdhpbH0f4sT67+L0/sSPHL9jbNy7ZpL/fOofIJHx8jNNlTAuhX9mSfm6pv1YQeo+3I4gjcM1ncJZjo9PN2Iy+ftZC2/2WY3OVRfDxoZbvOTxoSTYrIeCLgluZy1Wih/UduUgUliP22vnrnPgsG4fgdv7NN9BsczIhvgMSntTdve8iW2PUiJYau2DvvjlkR0+ctDFMRJSwTqF8q/Bsxx/2Pvio73oR8XjSrZfwJZteH7Qjb5yw979x2tq2sjinV2wLW17B0+nB00gxAq2sf2tkki5GjtoIGth//+0h8xVJ9455IEcH1Hg6GpO9vB+8peFhyUqbZel7OYvJVzBrOdoKkOY6ic9aGzSm8gRKcHUavzwai1p7/wn7+h+M4PP1id2fmbV7VTL84gs3NsKGDRqDmbvT8sZzj/xLw/JhCIaS1qZTDJSJ9+Y30UhvGm7advoHX7NMJWG5aWgstWhRnKG7Aj3QBCf1LSEZJ+pHNtzCxVaItwUwD1XZD9z9PPtQR17xC0+Li6et/4qj5wV0/wGGH3x6Ad14WZoECf5g2EqkQV/kuE3Hupfa0jgU99nJN9+z/l4EABR7njlWC52GWUp8qSWGbGyUWMi5Cbv9k3+w64TgDKS6bey1cwh9xFtm8XXHi61ydepVpDHuGbHDxzBruzJnE5/esulr9L/rkB07SXQiuChrSOtFUguaFovgrd/Wb70RkuCiddnYCDqb1gAe7GL4Lm6ObHpa7euuHiA8EX+8luywCJEGImVSz3PUHk0SfYFwlhIyWxIa1DabmmCszdJdwwj6RHLAZvEWvibBKEm0uv22hpZngSP3TFsQjSxaX4Qc0Nwa/HqffRyHh2L0FdvHCNE3wgq3mSDqAEJ/kA2So4Nd7/fkL07pg8C8jcZ04g4/N69ZJ0f5w4eO2Ik33rWeBLkEkB+eKOzVm3Ibj0Cc4/AxO3eijPZ41n7+n/8TeRPw4O8fttEz51A0yQ7/6d5dKK5wEtM9ctyOFKewvb5lH/7zJfsYR37R2MWumqU5lXgaYZcBpj42K/EuQmaiECRPQ2WLDQ8O/FuEiYsQeSEAvv0SBJ8KcAPvCHwMcija5sYpguAYRrMZdjHvUXuzUXT4aol2QRh21VHMjdJEkMrk2QxnKjZuhLTt6OeUxtB637Z74ytWIMjBcA+242yIpJdg/9Fy8YeI6sLmIUx89Ajh1sJoG6Noz/VdabAF6mlRofHWBN1a4HTp1g278cknmGKl7DBmGIdPn3M0JpOGz4uKsfMC4EpCcjVE+E3G/esXJPjetZ/+31fZ+CXZuGKac+y4ixsuyw6xhlaLhkG+AQNHztvRwn27N3HZ/vovPzB2sGy2xozcXt7GpKXxqrcqxYWc9DAPScVRnuIku5VbhxeucyJetAQh4qJE+fAjcD9bgcagC/lcOL4gGqvi8wJPiGhuQGPaYLbUZTFo53+Df8haGfO8ezaPCcpWMOFisK8sZq2K6eSVG9gMh7qsl2hnISZyq3z9mQXpZ0PMwVMHGDjAwAEGhAEtxGiBcDbOcZy/urlkwXjalkcK1nHkAmHtiA4TxcGqNTbpVkBpGKtoYgcGttBCr9rP/u6yzeFkW+vOWah3FJidOAeqZS19rRXVk/NQHGG8f7hiWbTQny2gMV0iWcdYmKPsfhvsJy47dswSHltbiIHKIlRV8owwmSsT2MAX1jnGRTuIM4wSrKTQQoqJO81ia13dUwtNDW8pO/qCtN1o/xU/XrbHQWz2+f/kojrqg7Q5YZwqCXW6kSX6D457U8GUDXdGbThISEwcxecW2AyQjXPkYhuaaaRTIfkpiprS8XoRTWSRRbiERqvIQllEsFBYs9bwurtBKMwJtmUEyNXZSVvMz1kKx6pNQn92nSDsGE6icSeNtYIMYLtFG4fgULcdGctZbWPBfk5EpEys3UhYaaG+ozh5k/k1ppZbXOAdWJ15YHnTNWiDbFTys+P28fVJW6pwElCM2uDIiHUSaiuGs6DT1LXUXeEMGgtgMhXdtv4EpkhEDlryFbHDR+NLaLQQQg42GPX32o27J3/z3k/m5YroUcQvqehnzByNcSBCH1uiMTUkWuGUOAIeO9r7bXWSSFzbAZuJpexQP0KvDzvhpQm7M83JxSD28iMI0tiuuvmh51ssTpxjDNXXAgmCSiU/84EoFNxQf1tmCk3tNaJBKETp4uQKtrXzNo9TINKpdY5WrSvO3JHA39KYCTDzFnvoMBuGc6fz9tnKpH1KKN+NaAeaXsaSDf1AF5th5FehrVWwmj9+NOQdfWM2Qobjzfnb9tG1CSuk8tYbaLPRzDaOtwipbFBaEvrVVVoXz63Ac9ti+MRx+rNCqMDNGn5pBIVIYZYWQQiW5trN36fkCQ4+rXCwgqOhzHsZM4T1IjSrUx/xhdaK+smMhMbiRJTriG5Y2/07toEQXWWdGemGD+du29K6zIYi1nsiQhhg8h6wA3JdbqGZA0G6tZE4qHWAgQMMPFcMoHkpFdCM9dnw6z8gfOUbNkzylr52tA6xpMlWTwt0q7xSi6ocSko4p2xixhEYecf+6D+8A4OctNX5u/Z3t3HgY/Ht6njNkEec40sL/NF7Y0XSwLQjj6113zu/a3/4Dczb0Jrd+ezvbGp92n5xu99+5wLpvzl2VoSEVksNu2fZv3f3FLFRXLfMeMkGdJyIlodTbk+IbRXYb6Se3kUO2QrDFrH2RBcp6SdsvYQmZ+ioteFYl/Yt4ICM/fh8JzuODnuDWNlJtH1uPH4jfWodqHw6KhiBxnsP26n3j9kPjr+J8B9GK41zHU6GkINzhG8VoosIQ7SnEtlJc8YG6PXv2//yjR+gybqOkLdgf/fxB5aOfd3iZNtsjyIcQ7yt0S+SHBuejbUVK0VSNvKDf2cXfhszjIWb2ND/o03MDFjJ324/hMa2kfpaF3TYnOC4HOHEo6e3YHOEy1xfM+vGLCOOV5ksZphiLfaxVSw9bT0J5KIxotPInAlhOrHtOUKWB04Q/SNh26E1Nmo4382NOvOvtzEdinCq8jSC5NP2qtX6tbr/VdvIWXvrBE6sY6dttJPEcC66jXzAWjA9aGpMppNVIlUUiGa0Eeiz07/1b+zd3/k9q63dsF+RM+PG1U+su+N9G+rmFESOnK0RGIMs/7ZtopbMW6DnsJ39V+ftW/+6gn3zL3CYvWe/unGIjX3Y3iC86jbRk1oGi5KhwulUIgEhYSoxPrPAzNi2GDy4MwmNcbKkDfKLL9qsslmLgDdyBcRz45YbOGf+/gEb6G8nV8NNm17K2qeTnfa9E+3WTTKbgEyAmZetdP9AkH7xI3zQgwMMfPUwIO6ks0k0Gn60nQrB1NnFTwrGy2WVVpm5qyzJTQ9gX7g4cc9u3pvHthfnRUwmKmhKypEjaLziLNY06dQM7qkn/PKWaiktiwjOixPX7dYsYem4EPVzPEh8zeAgtpeEJ9MC+FT9lfCA85M0JfH+Uducnibxw6RtHjvPkWXR4mhk3TFvK1z8c95CjzfidD+VSUsTTNZgl5Qj3UPKepyY13DUKvcTdirOouQnuyKZvsiNZdW2LCGklK4cCbUlu5GmRvTRDSF4kQDsNlH7fHktgcCSaYrC6HWQma6rK+iEXC3u3uju6cMTvyrmbc6mrn9q88s4GUJjQZzNNrHBjbSNOTMaZDxogQZa7L5oRz/bG/dtahLn29mydaLJrOF8ubpGlIKTYRzB0BQ+A05lF+vHwTTBaULu1lXbRFjaGj5lEZxyI5gXofR/Srp9FII0Zpyq6Azk6SaBB0yooh9hNKIpwntuEUZuvUaCFeZWPIX5CYnEahvrtryUsN4RNKckG5GQI1+HZynS1Ls54ZTxEuOfvbhtgJsgjD9mUx6NIbBBA09NYxCk6AAVAtGZiIZx+Q4OzQqnyFzbwmnYx2Y9PehCD3u2u0/Rc8HFvn9r7Z7dmVq3+VUc9ghju4kmfbPqt+TxiAu/KZbceqF95leZzWUIs7wIzpu58U9sMz2COV2/xYvkmZCzYKOberVnLXTM8QXaexYac9ORd4uzwYlxYpYlo+JGHJ+XCgqCTvwd6FsJGpudi+CjQsSgeBT+0DptBD0nht1vp47u/Aic+y7eyIRRjw7KC8OA03KIoWpM6IUbDn3WD9dbdDJ9Yf3/sjfsxkCD0hiTps/PsA6+lOhq0KD72wo7aGagEhokwvBX3uIRhLF0BwsmcZQVJkr83oVtFN6ai27slPpnD0z9qr6gKSa7Wxnt7trUdVvO41eOTZ2O84beGLAesqMqZq5fETCa4Dto7pcHyusDnwVS/7DZ8HNOXSHG79yde8T9JhpEFC/01LCdxMZwtBeBnTp7x9fB2elzHZ6a5kYN4S6MzXKKWLMxsrIasV1z20uW6CXVNTasQWJMK7Z00IW5agYi/Hiw3NV6Iw1hTHyguch8JoSddLzMMSbpgp1Tt57ZU6/5GffiuuAa8u74FX4ujSYQO9ZQFFMW2VsjnMaCOKzFejCZwbmqg8UYQVqJSWjAe1593Slu5L1vu657l9QlRb9Q2LsUJgIRZSRzt/iNZm+XxLP3efra1F33VE2OWcRPjiPgtBP6T3G6gy4ZDWtZnYd6LXu/d0DufNB1te390QeX3AeNe4mwXwukUl/MIuSg4e0YOGyH3hgjky423ghRrq96rj4cOyC4pLKrr67v0C6xuBVlZfrKXUIiEpdXNsztI/ZGV9r6O7Fx96wwPAC7fgs6pf5HH3XkLvtdjVEK845g9xhOotcd3cXpq6J8y1krglDxcPx5r+NN4FyHd313zXGF95OvQwRBKunD5AKzJFky7K2rPrmXdi/u3XW/9Z0f0W2IaBeJdIqoHwiMJcwYwph1EL0kkMB2mlBnvTi2pol3HMFrWMpC17h73gOtK42y00wd/43raisoWsA2us3FIPZiUbtq6lBzfQdk58n6B6/v3huq74wTm6m2VLsFk8Tk5phDGV3Fwx4l6Auk10QDjgfJA65r8Bolj4LfbK9O2fR9onXkoTE2QD3HR2x0cNjaef+wbOYFSY8I4ANwzaC4rr54c0N/RWPZxfs2QWSYKXilEUe6ffConRhgE0AMaE+J0QDqgRKMRxXNLx/mInF8GYLJQUvohG3mIwtxYhDHBCUKDoLE+45qQjwahOvfLviureZBoGVoI8CYReFjqRo8iH4LnNt0cG9P7T1dpWa9/+Iv4Rj9bReNddGvJCZCSk6nXBqdluZab1oZaMEvcfAfDbjpRbxOuP4FS5qde4oyzYRoXMymhseli1fLNV1/Urf3gDr4+pwxoLjBVY0FFL/zg1pBUQCKxMp8DM0/514cgHskBpioCtUomzBpj9yPPkvtw9gojNkrX3hHxTQOKqmP47qPZ2ONDTgvz8KghZ3VT9zMFTLcxfqt/1A7dn8VEmQkXQInpxBxvO9hXDWExQaRA9UxU3fkLrA4FgY7xuzoOUwjsLWcJOvmFhqHaFsXzj/HrKcTu1An8LIIMVF2WnjEpNEl/SgmgBaM9r7jdjzWiUnADWyEgVtDaCTSxNhov40g5EiKVt8bNpN6RSfUuhXfa2mnGeCVEUB7hk9YvBuhHNvwwzDv6vZ5jl2PEnmkZD6SWwUSKSeYOpTxcGNB9N5fMBtwdU9fvTpqW0WmI0GOMrtOEOoJZ7aaFiPUpU4G0Xh41Xb/BoYboUZ7rv9UQWCo4AQ19sbXLXWUvhGPurudlMnAO/P+n1rvBWgfp7t0G9EckKOFN/Vp75ipMV3nt0cP+kjRNcVejnYNWV8MoYzj5SQOcWFueBRTf0evugdbRumCRR23qEp4FCB951/NH7NyYphICjioVQOk5g6yCOuI12tP9faWnY2GA+zV895BtAtUnL6CncT8frtmPQPHbWIeTzgSpyh28thJBGk0x55Dq8PygyZcPxutqY/OLJi+eO8neuw69LqdDfeykN+wNTSR5XAap7NRO3UETTr0ITbi3q2538xF9871/mq4pFWsMReqPD9y9Lz1Mfa+aMqORH6oowXzd46YDWKDz78ATqRO0NG7Nca6Ca/qqPf+tM11H463zUXKWJln9Z55jwgIRNJAcNc26sE4NNduXBd9uEp12F4bNR+bsGSvnf7WD220wilCB5ETEMx9g6fsze932PDb2LTj5xBTSBiEtMYc9try4Km/jeKu610axTXKpr3/iI2goe+h720Iv27fA+2oNKPWvXcdF/SQe8305bVUDWIC0EEM8XO9CNQI6AlO2AClppp5gQPe/IuGdvpNfdcWXRU+fZFOIuScsfe+FbLh+ys2R+K0WiBpA6NjNjw6hImV549RRZPs3o5f6reDt9OG4HvXhSdVDGI203f8fXszSDz9oSlbxY7Zn+y3NAmPTo+glWXz5lh6o28NWCIornlzut5v7lX9mEi19RFp522rhZPwO+ZW+o9Aaq/5mMP+0S7mC7GpOQl0PQUpDRoTbnb3F4D1dht1dppHRI33jtkgcDtqbLba2h5EhdMzjYoeCId/Ljv62IHpLtBnJSYaOGKv/+iPrUIf4x2kkqd3fcfetffTJ+3Eu2Z9h9D6181m3DszPhrTnfFSO/U2vWvw2R6Y4d4igTmCBiLJblUv3IGWoYt6cYz0lYjloLw4DGhzU2Yc2hmTBONTJMZkJ1kMFQ86oNiSjRF+cV38yrYs5lnGsSuNDWZC2d+QgDoIyN/TwVEk2tZGiMdXGUF6R0V8iKKV03s6jeljXkhhJvXOOl5WBillvpNQ6JEoH/gSINumWFBAKZcV49zFi1crewsME1hlKigrpxLSKD58EeesHWcWPcJmJUg0jC6E1EgXkQoQIuRk04ZjWYBMaUSQ8gTcJvCuj+ob76UjXxcrH0FW/W9oeLWMBMMpGzxywjoZ4xJwg2g0kspqqHdjXnqr5wPAbiPBxkpJkbRClogt6/XViefAZ1GISVvDfbSwqE7pP89Lg4OttA/tkRELuoCdqwfcY+bSIAqnjePpEnFwPTxIzdGMO56jXR+mM8r5KkFIfWW7vQPvQW892GVg6V2VyVBj5haien1p2aJEJOiNAROPdnnplxB4w8Sn7tEyIg0Vdphljni9aOdcAoeCpR/XX+4VGDPueDhr6oAWJcXLDqIlcnbsjEeZhFGNd2+q6hY14aHGWqXjZeFApYIUL7x7y6vGBDvNEAIeV/wVTHwIecYTlGY8uQv1hZK+uwy9JF7hcgVeq3Fzm0Y9Qh8lc0WSPdY/imkL9u01tIXK3pYkjTRG8vBkoIvQm0qFvpahW7WrmPKiYY1ZszOp+hzjhOPQyXPWK4UJcEVjcTJQlh2NCWsU98sD7sx/6vTlkm+RTc7RndrnJ8S7e1snYqx39Lr+10jMhYTqAcBEqUIyqCrZghs48YQc3l1zgr7KSrQknABS9NtcNGbqg1/aPYlLKN5KjxkzPSdhVLQg3AofRd5LMNx4QV+i11QXtvh89CsrImYDxAaxGBu3Qcy+/GwEajgo0zPXDfek+AL9a8yJBl/QmO0eB+8dFd0nxHgFtHnQ+OLgKprfWzT/HQ6gQ+XGKBcgHurJ1ELzzPVZ2GFzkSTyh2jDTwxo8pTVy8Mw9Yz6pHlWlX01sJXRkdd2G0n3IO8DUaGdH7Zh4rZ3wbS0MYqhOU0wXuVtL9JKM3S9WQV7D5czA2DiteKVRb9HD4KrOmDVObWGEKr78efwEbs/zOlaADOzyhZYbQD1KrsnNL6iV721xk5jpmvChf5GidTCwLi61j0MDyPOqL5igqPJ4oPeSsSF94rXgHArPqvwgY7G6K/mg8cDGp3wnnDXaD0gEyXeIsAzj6MxR0uMg3DrE24ZM/EdjY0woHFWwMeuAaLBcGITCOKMzZzB093aUIhEUjoZwWkdGoPiXQcaMMVj3Jhp/Orz11Mm8fg75496vW36rckij8VDA+wo6EAbCOnsSLkYrF8GYaDpVV+5jyJcBbsf7U9bJxJIOlV0jg0bpO/VJqeJ/l+5d/sydFhB+NNtMRsmfJsiEKSYO2nmjnfc9+UYHWmkwxy793WnEQQjdXaze/S0WIhZhnDs8MEkqxLK2OjtrgxjY9Eg7CoJB7wkIbtZ6G6YYoZaIHwwfSn3Bbe8mWct0irk1dUfxQyNoIGLE95MjFN9qSBEV9HAIPc9NEeq9EELpRYKpegmaxGLCmYhYr6NlYXPEgoTHGG36boapG6FVNkl0ps/qqhd2WP6sRN0J3wwdWV+fQCyHqcU6U4CBsasGOohEALfaZF4Tlpat2bVG3At6+XBlxIi+BAGaixIFWJlizfU0bCrO+q3tG4ggbqPrrPzAO2H4SN+3s2NmXvXnbsu9FaEdN0MhBNc6IHDN2TgcFUpsKl4UN2tH1os3ZiBCyXPkjCvjjbw0FTdvbscMJWHQM6ojzMlVLfkha8081qzWd2pi1DDtV2lDkvvX2Ws1OajcLTzDPVrLJKiA6dZhhZKmNlok6XSeFYCXUImKG0eLYgGK9g0a0MlkUFXm0uVMasy/kHg+8BdlUW5pL7S5x2gwiUbAUUWaXcvSGv0Q05iZdJaP6qIxtQ22wcEQ9qGDvSSXm3wCG3TMmOPdE+f3Q1wpU2Vq4PAUd1DE2paLyBaVXxrRd9Q3yv0xROg9vRE7wT9os+ELoEnJD+uqC59Ccl8QZFk6oL0g+ra+HBPvSNpUaWod2Gc6TsmvbQvuoRXPHjAozHGSfNMoQcFv7ylMePZR3WFPng0BjxOf1TlUdU0B2X7LZgB0RZtOBrj+q7Cd81vJisbO95p181HfFGntJkQ7aoNcOAJ7F4v9Ftyl3PwZS1Jt6s9xhkeJRpTuEZXpxk0VcRvyWblaEFjp7lYdvTlwXXV1VcUCxHMZNRl0Z9wKnw9zk/a8TFoJgh8B7dOY17zbHzFj5hbojRiYnowwYNrgCQoSoQjGmsuNfFcaE98RkoRB1e0oJF/1KAJH47G2CR8Do3pldSuGy++1KBbF+vbvazXA9Fq3Jlu6N3FO+H7vFuQ9YkIe26NqbK5aYxjA6Z4s/qrMXM8l+zdshBQCf6H/+EPPOiN3+4pBooHNjMZesIEJRtUUEcs6sxufDSeOvj7BWHA0QO/ihCzdkV+jlaD5LgP8vdR9PcFdeugmToGJBhKM1JAK+MmJ3NH2g9NnC/L+IjRaUOtpAM9JFF5FOPTNdFkIh4DDxImYUJ4d8PlHvAQ8RpJHc3lcfylzpfcJl+aKwT5IAuXL591AvAuvuSakFbUtVa/BbPkMSd0Nbenz9T3098oC4LmV5BFwb8tva0D9KA2XyU4isHyUSPq7knQeFTRfeEhQgXZf0YEVy/cqC8gu4oHddclfWnU12dVgXnX0GILv+pwmAx+QbdQcbO57k59fWgqe+s0bvF4gIWvQtxpycoRMqF5DTYq8JfuO7zQ0ANcqlMq9WvN8LklJyGt8eX6qUxIWkYhurmeB+Ch5h5ZR3VdkzVstBH10NZhQYymCm06GwtpoV2p//G+NP1+VLu6XYcpYUk28Uh0FmQD5t9kwWUcdxXqihYaVx0t8EUU/qii9w0i3CjxhzZAAYRjP7h2SGgA0YPArVOeA/MkuN594UG2udg9k77cARFMvU/z/OI04NFI33PZVUNw42WqEmrp+0O0yyM7RfWbS/P7NF939bjJRPSx84qBh+BeGlMdTmCEWYHZoTH67rqlq83w6zAD8ALt08t4EyvBTAgH4x08PNSH5gt8bobXfAvYot04Jg9ybowoPTzCrNv0Np5x7Tc/VP/cuL/3lnsJbbYYGCR0nWwFEMjcKcDeZ6grWmgIdB5GxKv2AuU7dYWhkNswob0VPphnfn3fQ7uaHntpTLxRXXtUUbtB3jvx/7P33l9yHdmZ4Jfe+6zM8t4XPGEIejbZrWb3dEut0Uiz0mj2h92zOrNn/5U9Z/fsD7NnRqOVRtLs9nSrLZu2STYJT3hTQAFVQHnvK73f70ZWFgpAAUQhEyRQfAFkZebL9+LF+26YL27cuJebQa28ueVRdUzlslUBmfPmw7yZTAwIrCjfVf9gzohGml82n1cq0P2F2+ocOVedV+wXcuwXrOsyu+fp5BxVn4qIyiRbxFFEUNowM9+c/3qe0l6NlJnqy/lZ+jGVeK7aYF38xr9yPUE3yiBFex9h3kq7Q3+TDg/tUmRZZfMNNi7UPnxdCMj4I4PSygJ320ZjFKqFtoRubhpheOFSi/u6CqPd5wEERDYJarBW5heoAOJyHG3wXPQBK+1m57QdeRjWQ1ZGs9pZ9QAMxQP8XTb/ubhhyCQbRFSHpP485IKvOlzUzqapySis8N6cpDiJrzKruKfn+6p87v1diILSakciRdLANiWThCLZe/IOT+QtA3GCS5ZiO++hza9oPe7p1O8tymN+YwAILmVL0AOZrImZjWzAqUS+kqe4HXTS/ZOTS8mVyDNHjWmKWqQ0tbCCqZsyU9g+dOh+TBgoc3l+WV710u2eaOQqU8cKiCeoBaYAnczXygA5qn48brG2OE/KJn5wRWNupqzMrGMSeKao4S2njhU10lEZCzix8rGvqYTMpO7GWG9l9VPKbufkSjZqViLvKCPpyVDllnFLVIBFoW2B2uMeKq7SpqjlTbFdSNt1cgJfibKqPS/MqdTXyJpveXWMwEq/wD9rkaiqZzI+CFF/YLL2uI+vzhOupmNI+TiSNEUyEQOpX9LvVqKOZYhtIRplf8vogGy/lcA2y3Yr7UwmrkauIjq4GVomFJXIW+hwlhNXH22glaa+AnUsw9XmJNtwkmV2sW+0sk2UykqvHesD2/qbdHpidyazbdmNa6RAzNxAYOHGFwNnezuHDKja99z9ETGJmYApluCMk5tCaZtl5q5Z2d285bLbc/eEz3eBlb0t245xNapWcmTzjZU7uoXs7ai2w4dRoba59KlGhq3EJudwILZyAJZNbuUPmByAmKdoj8UZv2xEs3GgUHbHZRBpWTKUZeu4aCJp52vmdymz0o6Uka8MjMyW9px8dH4WraGYulQi5fVcLuXzS32zUcFhrVC+evb9siwq2NorlKeMKToOmrJULpMvybdIpMtHgro8tfJg49ikXKLxe7lJ/DTnDFw9YJktJDhSdytBpHWcABqIBfcxqXztKl/RipVHpIXsJVlmybdSMpO6m+Wz69lvCa5Sx4SoVyKJSYuB+Uobk/ZbiZRhvZKdcrKdwMI2USkcxHraRPGU2oMoFyuRpI4lmVea9UFwMBJfIZRPmkQbLXsGRGYZ5i37Ma2yQlGBuit1QTTxcZa1hMOTlnPzdVnaTmcpK7UvQuoY27D0xZVIMRETy23j8xe9CJWfq9o9wjZMNY6S2eY6ZvTRIXUpSXMWc4EE/YLG+TLRZEC0ajLjl9jusiRTjrBL99HenxwBGYhkU48QM9F2yfKIEIk8t3QrslZGp/zkpdKuFARU22XnpTyrsNNRYWcppyyNz2QgLk/j8GxhLEuBYj8pfcJWSYiSTjRwKyvUxLEL4oS8Eh2a2KDLBpI8880yzxRNO8olOVJWySPHiH2iMcxSk5Nm3uWSPUWkmW+eWiLJXzpgXYWIQ5arHllqDEXbkuGKoZFa00qkLLVZhfl5mjzShvcB+9Unu4NshM6IVp4aaYmSKPJTWqIny+6eq3IMMiL5p5inaN8qkW+GtvcZak3BkMEZ2kVKyPZy65iSk2xWorlkjnUrwzqWqkC+G3WM2s08VyaUTew9CD3ZF8k3yxWarGgipU1QE1mpuptjvoXlZRI+aiJFCyljWpkpw75GbQqVjaHEVdpGJZLUrdzCAsPAm9jXRLlSLx4zyiuvYJsRQsb+Js9ySh0rbZItp8xSx7Ki7We7lb4xzTrGRqGUD+Xkq8or9UDqLvuFLF+VSLLJMxtd779JeLNxV0Xar5RN+gWJ5JpWJj8M3lOmzCRP6bcy1EbnKDPZ/JuVyKDrySgaTUlyH8pXPYjY395NMlAW58xqyNx63Lx7uvbpqSKwpQx4UI5LhdfSN4fAXdkoaRRbTUkmxUPfXOEqfGfVI8gzbTWmsDMpiCZgbgbWiRFkGbEtx2U2XQU0nIrwcgJp4o500cCkmWe59b7Y94ldJTcyyvOQ7GWZ99YPtx0giRIxMnDQFLu7BPvaFAe7SiQhOKLtl5Qm1jm+KpFEu2kR0suBOMZBuAhIeTnLRj0xEWAlUFrpWAUmKRslInESDXqSSp80sa3EgKkUFJSZlXWsIISEdaHUjDfuu80PUq+k7lpZx4TwFKiFrES+amxmHTNJfWA5o+vj+TaL9+DpfGDx0MBCq5WPhBDJCtVd8QBh4SstEwniUIk6VlQo0QyFdSzLPKOUWyWSyMzIOiYmRAmavIrGtOw6RmyVQpJ1wSKEmhMgybP8OsZKxvzM7GvFJDcv/aPUNemny0zShi3iZYPtrIStrDSpWAJPmLdgqyZqLKBo0nOsY2Vju14W5SGJ+a+yjhWVj1sNVNsruPSNMo6JxYb0YclNfS5XFO7tgGWToewc3tasi2WUpYViKg4emwHZPN5+9aBXskEq5rO9R328s++Wbf0em8r/1eV7vHs8M2exgZYkIy1qc5uSzn2jkW0+TyjgphPlvPtJheC0gaOcXDyJ590j7U35lOQqeW3O/+7xHYe9POqW6e4zF/GSkwTku7g8GvO756krN7CXb0z3iEBkIweL+cun9QM8j/msf7+bBY8U/6vzSse3Kxsd+5As4xFHrl1G/NYN5MQl1n19jbr1E/yRMkmtlrKXnuAJsrnnEkGnlKf8ULl8FfhF9DfwvufWT/RFyqoyVYWtVGmLWUq7lhylWVciKQRKFYkZbrcuPaoMpT6oknnK/e7WsQpjS6GVYK1EzqXaJe+qPVRKaILB06pjquoKcawEAiKt9abwFOqY4FpsD+t9Qkl46q5l/FnHoCi3SuKgpFbhOialLGIsJS1VMTP7eHltgn3bgBRLW7yM09ZtX/+wC0r9QrxU2IeduI3jJRTknet295SWpobFwqvKIhVbvm/n5kRR7PRKxLtkXqB2oa4XUuywix2TLHHfFcSDzyDnia0PiyplEfOF7ZTlwQwfOKLKwfIqUPioKn+5p8w0CQ0nMRW/5wOF+JoOiI2nyEHkU/SRK7Dyofm88k8UDEV5FVciFDYsm5wrmyEU9GoGri7hEV6jyk5thUQxWlfacfWEGRSrmapdKn9peBLumfnwZymLnC9nbeQvZ8jxdWGISYScu9OT1HElFz63zMoFFZFR8bPUP37nbyIPwVzgUYMOwZHz5HxlFyz58CXNpZhL8dxSm7mbZ/F+UrklP8lY6rrIV9rYRnlEntLmRGb8ceM4z5ViqjLwlK9KUkKxq1xKpDA4u4TZmUW6iGM4ZaXl/aqrtd81BDQENAQ0BJ5ZBDhuyHjTwYibLdwoaaVtsyTFLdSnJ/sj40ZFkwx1T4FQlLLcXN4NdfT2QSgO4kY6TV8cvYrRm1dxY9HP6E7t2NtXjfjwZdzsv43rg/P0NMKgFG29aOnbiz5GMrPRpY74QpQkg7UQZ/HVqM9FGAN9Bsc/uwadrw41vbwmzEAwdJAthS6SODXWy74CRTaEV2TFPphnCDmRGPQy6Ev2nCwVCYm6kxwr0N1oFNHZIVy7NoCBwXHalNH9DEOxSnSfvYcPMxSrCw5a6ivisH7d8/ZWIkCGQgKr02O4cvwLJN0d8DR0Y3dnFSyGFNZmF9F/fAT+nlaEW4LwG9dw7dQpTMwwNDGjH3UwKlG1nwDml3Hr7CxWFyMIduhx51o/JkenEMua4Gzag+bOHhztq0dyqh/DN2/g5PlR2qh5EGpsx/4XX0KNhNy00NkOZdt/4gQmZyPIhA5gV1c1qhy0x5+9jjNnBzA8vsCNIgycEWpAQ2sH9u7fDQd3zxiVXf7zJoGHlFcRWEKaWsbk7au4dvZzzEW5c99ZD39jHw7sakFtFYOcFGIYOD6GFFeH3A12TFz/EjPTs1iMGxFsO4wOtrHd7SES6Ahmbi/g9sVZBNrNWFudwJ2rVxHJcAnS1wh/y14c3d0In34FK2P9OH72DmbXaBbhqcK+F19BaxMjXDHIgS6fwMSt67h58SKSvt2oa21hNDUfUvM3MNB/HRcuDdG+l278GCHQV92EfS/sRXXQCwcDRWyZpE3zFedS4MRaBKMra0hyz4X40NWShoCGgIaAhsDzi4D0+vLy0zNKIz2vbKRnsX//moacDSK9AcZjflBkjVGM8vFVDvRnceyDd3FqZTfe1FvQ3WbB0IVP8eXZYVy6k4bLlIF7bg3zCQvqAnvpDNzJgVa0j3xK+vnL0Yg7HqeyPDmPhbHbOPnBZ7C0v4C94VY0hix0Rh9DkptrxGRLz+g2YtdtBB1pyyY7OrsUP73UfVJLl0GSYYX0jKyjNnfESdpoh5TlOUabk+5K6LY+E8P88FVcv3wVl27O0tm5i/emE3P7LRqPV+Pg7ha01TDCmFLXPSYYz9xpnFbQt+zq7B0MnDuO93/6zzB0/xjdr1ajl0Ran1vjhGUc588NoMfFML/uLKKLV3H8vV/i1lQGzT/uQ1WVB7U+OtdPTGJ4cAzjY4voYeSuKxcvYHhoUnkJSU3EsLCURFutHYv9F9B/9kuc7+cGFTqGDDO0acHdjKO9fp6bwMrkAE59+GvcnEjCcaQGdbU+BAwkeLdP4+yJyxgYj6G2oQHBAol3VY1yPSX1Q+qZksUzh/H2CyRtWh4nG53H9J1rOH3sU9odBpEwTSHfvwQ3Z/dulx+BwiyGbg5hhe6GqtdMuHDsJHFehJ6ec8Zn6KUgrUdDQxBeLGJxagRnz46im3V8YeE2vjxxHiaHE1nrLPRDq6j2vIFoYQZTZz7BxUtLmFymfaLdQbu8am6csTBKnR1rM7dw9eTH+P27H8O0V4+j9gB6Wt2Iz9zAzQvH8dEnN1EjsqlroV9ZF10AFQMiyPM8LMlvadqSrXBzxhxtbpOMHqUR6YehpR3XENAQ0BB4PhAoEemojAPCk7RUDHi1fRxEi0xSwAADayPXcfXUGXzyyXnM17fQjyN3Nq7M4MRnX2BS342Wt/8crzsu4Pr1OVz96EO8cKCJvjmd8FALnSOryMZXEJkbweWrw/QUsorI4grGZlYQrqMRPjXLhkISi5M3MUTN2NQS3ZlUdzI0awsa7SQRy0kO1GbGeu9g6MwEUqvzGJyKwOOnhtVtw+rQeYxPL2MhRU1nyy70tQQQMsQwOjpJjV0XDv/xn+HHLzXh4u/+CZ9++Bk+/eQyo1U50VzvJhHlzVlJnrdqokxq6OQ+n5jBhU/exQe//i3e/eIK9npfRTvZjfyOtXn6Op7FNLWfbSSzy7du4w8//Xt8cuoa4s42VHOCIl4RC4yilJkaxBInQgtObujhbn57aBd2t76G7xz04d2/ex/Tx9/H2S4vxj+jLexKDq/85d8ANz/D8sws/vDxGYRNHUhZ5vDFz/4f/IZ1ZNnUhFcPssYx/yw3tS4O30HSVI/2V3bjf/2f3qH2WvyVSowskmiiLysPOyvlkViZRizNZ6z7Ln7wchumOFH5//7hPdw4dBDhgAkB4xgWbAnMzE8je24Ct5ea0L7nDfz5Hzfgd//7LzF/yYLrBw5gT2ES8fQC5WhEfXyJm/kCCB74M3zvlVrMXO3Hh//8K/S30f97bBEzn/ej7u1/hw4Dd7PfOYlrl67QpVUeze46nP71T/H+e7/HpxcmcLQprnzTS2S3telJrMXp87aZ9/6bH2NvVyO10NxdLQGXORFWsiktE20hJGk70tHK6pCI8XlrS1s8knZIQ0BDQEPgW41AqV/X+vO71eCJNNKKjGVjJE5TuHLpKuaWovDW1CDtop9UM00l7D707t2P1J0Yxq4fw1nbPJ07htF1YA/8ThtMjI4j/4z5OEZufImLpz7DpSkGfeEmcRvzXV1aRYDLwrpcApPXr9FE5Cau3BiFy1VAbGION67ewhuHfRi8MYGhsSTSTh/C+TFE71zEZzcKaGmrRVPYhOO/+x2Xx/mIzmrMXp7A6iuH8fKhLnQc/h6addyNndFh/PTnuH1rhrswa9HeUYNQgMECZOR/TmdaQj+z6ThJ0BCmllOIwocuai8DNu4MFm09Zb+6tIbo8hpCNGPh7AOLJFpzhSp4fVWoctMFDRmS+L1NM0zm9MgsNYlVqGtupUnBbjQVnHSBswZLnGYAiXlIdORsdAkLK9x1Wwhgf0czTAmGll8hWR+fwPwE/WNSIz285oLXE4BH/JFL/sQ4w13xi7OrWBpb4mQqjQ9/Y0Rz9x40NTWiIUS3PWRfYq+7U5KalvFx7KF27DoYRKiZZkYT1xBdS8DXtRf11V7YaY4zOz5H37UGYsVJRYo7hWnyYmTIaz+jCCK7hMVFK26NL1J7P0c3PGlUV4fQ0tPB0ORO7CNBdxcGMBmfxGoigjQnqpm1NKZWXcy/HnWuKAoxO/pvLGBlagST01kMLxJnoxe9TXQ0L9HnKB+xY19bjmJ5cgrzt2dx8vcuTnIPoKm9h23LCJuZNUlcYm6VFHkuwMPd6F1+D1wBLydT7BeUUf1WF2z/mNRzoeZSAvlUbirmU8xT8qpUvnfLpazS734t89PmZ36IFJ74DpuxfeJM7rvwaZW3lG/lMZAHKNaHStSFu3kU85Tc7x6Tb+Wmu2UtN6fS9SVs5Xsl8S3m+7TK+zTyrXyegmkJB+nFip/l6JOnu/Xp3vJWIu9iqdbzlf6dB2oZndJIjzkFegqRVOyN1cfH+lMs193Sbff6R91ErWRLmSrI44r9YqlXuPd5t0+k+dyi1EysUqNJO88rQ3OIcaBv7qynn0W5CTXJJKmh6ma4pm4hNTmGSWMKVc1NqKurgY2Dq3JqTmfc+tQSbTNvcDn6Elar3+DSNuPK83o9d6+JRoyOAEn4FjA/NY+piUWGI47ThncEiYwXfT1vYX5mBpP9wxgZewWx2C1Eb1zC7ckGuN0m+HQJXDx3gf5rSdBDEdyet6KmqQ37DrvR2X2QLmIWMDN4Db/57BjGoyZ4Ow/h4P4WNIRdiuQ9vxq0ogYwTXW+I9SIxq4kQgWaWZCUiYpf3HCtLiQQmadMHLUkROJGzIeG3Ydgo9lLLk/CTYIk+Kdp8jJ5J0Kb2joEahtQ390Ca46mMbcv4PQXJzAbpT9Jdw18Zprn5OgORu+Gk+TcSjkuScz66IqKApQPuFDVeQD2fBTpHG2CFZGWFYccliP030ubnURyFgPnT2FqIY2FVZoCvdLLcLo0yeGqhTiv3xGJjyFdpsVXj6ZgLbpaY/hsup+ThRz84SruBcgjTXOO6bE1hjatRTgYhseVgH+Zqy0rk7h5PY/5yAKxZRAemnpMx9bYloy0Za9CLe3KGwKUcWQO5z7pZ5uYQNxdzWhRdIm1psNK2gmT0wW3n0i66B8+E6d8Y0gwgoGjthMtDCBTY8shRSKtVM3sICNRfk9KWNwUJm5e4+csRmYy+M5ru9BI0u+QjmCLJNISV0EuRvJzcZ9DPc2nxHxLXEhVIskGyRw7b+ksxcOQoFpe4nOwjkmZZUTbcHG19eNt+1ZqYyjzlyiPYtpTiSQbU2Wyo0zsiGtp4Cg3bxl4svTvKj6/xb1gpZLaYCwzYwJQCX/ipXLlaD4ksjNIxMhKgcvqJPhKHZOyFutt+XWswDYldUz2D0ie5Qb8KWEg74KDKLju98K1+ZztfhaXclIfKl3HpD0ItkZuUqtUnyB1QMoqclMb2CtUd1VfxvYgMlN9TYXar3RZUhek75cV2GLdLb+ObfQLrAtKbtzMX37/KE1M+lwGa2I7ExykpAH6AHdIxMv1fn27pVfy2lTHVL9QoTYs/r+lvUkQIUWAK5BvqQ8TjCXKZ3HsKbaqbRNpqUfUPWJu5CYuHf8MA9E21JCwdbgmcediigSbdq8MXz00uIgUNZkte7pQlx+kdiyBcZoQrLzQRc0aw66SMGfWpjA9kaDJRj1e//c/wSt9FpKGa7h6Yowb4oRAmeDnBrmOtRRtermpamKS2rplwEEn6aFeNDctwjR+A7GpcWpgp5CczCHYuBcNzTZUW+7ApTdjYmoOSyQEjoZX4PeR6JHgiZOJ1bkxjA5cwpdDK6h78S28+pMf4XCHV22EfJ69RwjJMJhd8DQdwVuNGexqr8fxvz2PaXYsssFTgmiszZHATpLQtbgRbqylva0NB49G8Wl6hJrKGZ5HKXMyk4llMXWLG/52O+ChjTmHFMTmB3Htyz/gP/+nD5Bq/RPseekguuotOGvVIZrg4M7WVHwVOzVbsAW9h3tx9GgWp/9xGtduTGOWFbGQp40731dyblTvakWT24Fe1xQ+PnkcY6Nz8Le2Yk+NDUG7gURbJLaDEjGStYG03oqG3j7MLqxi9MY5DN9pQ5yREN2jHBTCHlS3t6K3pZOTx7/jys9p/J+n3IgsTcHbG0K4sIzFiQxD4Tq4GuRlezHRM8YcFmlz/qv//j4uTttg6PkJmlvCNG0aox9f7icQ7cG6gKSemGgLHWw9hD/hJGfipAlnf30bo+yA84xWKDb2MU56bLXd2NNWjz2hJYwO3cFH/3Qddt9/4LVO9FVxU6PYX91PZHmPPP3E2uobuImyCS76X5VABuISr9xUoB/PLFcyVhnMQEItOxiuVg0e2+3FNxWk5N1kjRsj5bOZvlLNLLMMRALXk6diG0iIE3/WdW8wSA+A2+5yt7x9kpMg8ZUqpMHCTT+yT6QSScJ4r7CvldDYdq5wqJlFmRnnKTMJZKAC89Am0MENSkUSWWbGvHyNgT3yHDQl3LT4Ka8EMRMNW5LuGlcY9MdNHCTUstSxcpLs2UlzlTXKYCQmhraXMNYqRLhqk+XkXKxjMYYIlyjEnkCgnMw2rpV+IklPO2rCyrJbGTlXgrNVIsWpLIiurMIb8MNMP7+sDGVnK8oYaQ8qMA/ztFNpUIkkfoNXF5fY1xjZ1zAojWBQbnmJrdQxqQtJ8iI3FQ7i0aic1VcpktSxOPeiSIhw6b+kHzOx3CLLcvsxIaYRBv1xsp05XMUNhrJqXU7GkmeUdUERU/aLEn5cnqESaUkFU8qoOiYTFenLy01JKoMEWxUinDKz2YoxWCTf7ffqCjuptAnESZqzi4O0Q+Ymwew0Jsac8JGsXuQK9MDAJEwNNAXYfRi7OOs6feoON6pdw/63XkM4HICX7Ud8bciMTFykGcxWWDi7sdA0REFZYLQqbsq6cf19asFyWLQ245W3auE+e41aZ9p5clNjqCEAY7sDv79xjIo4dv6s5G3t9PZRZ0cVM3nx7e9jhIR/dmEKU+NnMHK9Hlc7SOR3VfF+XnhIEl58h2YLJDMdjV6G0+RMS56vXMS/weul7Dq9kR0Uw4ZzJSDhMCs7VQnPS4oEXTaKuD5Lwka7cb8PDoavdtOmxkRia6LLE2nMBpnFZuPI5GNYoSY77HPBTnmJrE98/BH+QK8qUed38Pobb+GNN7oRdjHwhl5McRhxLss1iQy1WuS+OYaYN3Ezm5NkJ2BOqfyFUAjAWWq9DU4v6vsOoaG+Gz6/GY00Sbh05QvMJhY48WIeRQXWN4jm07h1AfEl2kgn6NQ960CVtwEhL4nwwgimR8eRDoTRaKFmyeMgQbKzgwUa97wOdxOjarG1fvFzRoLiBDNo5kBHcwmzi5MNvxv65BwGb53Gp7/9JW2qa9C05yDe+os30VOzyA2/I9Qqx1T0yxxlw2UBrhqRdJB82ThA+iwZLNlos03ZS6cr71lGz/Q30ctLNUlwTTParMwjEcWlC8MsO+uVbPyVOiX901YNhvkUhNyx4zV5+Hwq6ED5naT0FyCRBgc3HfM0kugoIr1lIR5PfqKBlnqpIykTImYQLQvJkyLSj5fF1mcpLJkvN0rr2CAs4RDbQGXISI5EWiJsycBjZj2xVIhIc6RgPGR6jhG3VsS2EkRaBTFgvlmSdKkzVtb3ShHpGCd0BWq1TH6/0hJVYsAUTWGGMitwkmrwMV9q3ipBpFVkRxJIPeuWqmMkfDKhlX9PmqS9qv08q2vciG+GtarqSbO65zrJV1xWFkQbS5JnYT9hrFDdTdODT8HhgolltRLbStSxDIl0Xla92CZMxNW6Tvbueagn+CJkT2d1KGxN64RXaTifIK+7l8jqF1eHyZ8KrGcGP3kMO/pyokZLmaQv0JOYgnuPdKqOsR1z0iaa2SevYcKVRTHCyIYsr5Ft18r+vJiK48WTZq4jtgaWV+qvKBjMnLhLX1yJZGDblcmVpYrerYht+TSafFWiOrIf03OSbWRdMJPblNK2ibQIRDYQWd10j9bUhT5rBvOTtJGd4FJxSuyOqX3gK5dlWOB0AmlqIlL0sJHgEjEdcygCRbmqjlRvdsLpopcGWwxzY0O4Qy8Cq9FpvpLwcyaYS3OZe+gi7sy7sWTfg5dCfs7e7NDRw0MqVYA3HIatvQYLJ09hdlWHmtbd1EZTy+Y3wrhmhZsz3mC2GjluRJwZvIE1aloWVkj2WInFRrdQEOGF4fJ54XUTCjI3Hn7SelHC9Jt/52BloObHSHKr13FQEHnwwYSEZOKLSIDaLIcOziBnVWTIYrMu0cFEEymaSyOvzSZWkSosIe5iJ+qjKYGe3hcGz+DU58fw5aU5GOp+iNq6EGqDNhRMPvi8BizEVjDa3w/DMF21JXScqNRxed9F8xHaztNVmmimJMSzdBhSHiEtdqeF4VG5hMgwqUkOYGZ2rC6dg/by4l9aNILldAHfvCg2l6A4yJMAc7PhOLXuNydy2NUTxDLru3g6MaepuSThjXICFPDJxFKH9OoicTHB4vaiLqiHL9BMm38P6qw0gaEpRs5lgpvnxucucaXgGN7/4CTdC34XbdUN6KjjgEJXhHbuS6gJUIs7Mcy2lIBuNg69u5XtIwCnxcgJF1kxZSJtVwilTKakjVusvK+0B06Q0uxIdZzZu70uOGlvbxYNCn9j1XloktDCOWpFChyEpWMXeZabpO3m6b5RSGSO5DHPzcGKXJdRT/Isp1puTjKEtTwXB2J5KXmVka9AI8vjLHJRs8fOXU8teqVSjoOOYFwgkdazvJVIsmqQ4wAhJFJPbCuRVNQ59il5vjjaQyd5870SqcB6kGefUmBZJbJfJeqY8gbFwuVIcnLEtiB4yASujCSh0fNsP7kUzeA4UZP6VZB6JvWrnDrGa4Xk59h28yTSera1SiTpd9VSNsmIyAyVrLuUV45tjTv7oaNWr/xegU8sRFrIqLQJ4lopHITs5Rl2O8f+iyppQiHKg/JKrEQu/Sz71BwVStLW8qLE47EnTaIo44xHjatSU0t9mNQJNYaWW8eMXEHmKmOxX4vrkk8AAEAASURBVKhMHZOVJOkF5Ll1JNIGriJUql/QkfDqWCcMLm62rxCR1pPf6jmZFCWAlNXAvqGUtk2k5cJ8wYLanqOo6z6E71FACzc+xNXT72LltA+7Dx/F97+/C1VrtH2+egWf/fNlXKKbroKvA+0vvYT2Wg88JAgZKsMN7nrUt3jRUrOAc7/7Z4y4rQiZ0hiaWEZvX17ZFDpcPhSG6bbrzpf4mJVlYnASS8s2LruRdNEll4/+d+2Tv+JMoRbZrlY0VzvhNi1jZnwIX3z0G6Ttbtj8NTAH8gjX1HHDlZOzNC6BLJC4n/09/v6nGXzv3/8QzfubwKaiGvUjuEEJt2f+XTVWIawcyLMkaOJrW5ZWo/O0nU3MUltohreKWk8rG1qergdZmbNcehT7SFJpbiSd5qbAMXb6KS7xsrInF3Hl89/gKv1vTy7r0dk1g+sXj1G7Sa3+G2+glW71Eiun8d5//L+4jBtDoL4Nu77/Iu3iOdkh28qxLNksVzLYGDOiaqbpSHptGjNX3sPpMQnewYmQg24QrT1o27sPfTW0v6I/78zDNrQ98xLYuoDSBWfpYWP0ymd499ef4UxbK3SciCTqDuLN1jDsNm4M5IbaRp+JNtNcCh65hs9/+Tu6vePm0JomJF0Hae5Rg2bbIpaMNEWwZeF1sV2cOokr507j2tgy2sLzmJ24jA9+voDDb34X1jBNp16w4Pd/+CWmuQHVzElN59s/RGtPJ7x04C4eOLIycaXGUMlfSEM2geVhTpzODXEjsA61XhJpSwjO9lfQ2Rii/2kDUpSjQSraw8YV+Y31T15qkGCHVm5S2hWWlZWJ62nyzoGedbecCZcyB5AyMt8CJzSy7CovGTDLyVf1I/L8UlbBVPCoUFJ4Sr5CcsoYgB8ojpKZlLeIabmkQeXPPEVrLJiqJZYHblrGASmnqg/UmNGUj0IrI7PipRtlXZedqg9lE2n2efL8fBWyJE3qnd8FmzLqhVy7URdkyaqSaV1mEs68knWXBV5vEzIOSP9RvsxUG1jHVOFRKRykfFIPpG+Q/MXkq+y8pT0wL6m3Kl/2YVTflVNu1U71m+tYsa5J/6DqV7l1jM9e7Md4j0olqbtSxwTfStSBzeVS/cL6uCN9ZCXylzzXcbhfVk/e8vS0j2THxQkaNyvRXnl/Hv/Kb+Ou/na43FXY/erbMIfGEBqlTTOrnqe+A3Wdu1Hr56YnHslyk1Ne50R9z4t4k0vVviFqyrhJ0U4f0eG2LOp6etDS0giz80/hqJ9C/WQEjqAZ7S2cZfC6nnpq2kg0MgYLzUTcaK3rQsuBQwjR1tZFcpij3ecf/TjCIBZ02wY3TT5eQufuPnTVcSYhdpBebsTb8yp+wg6yq68BNpkZVm6c2yzSr/+zVFD+y+ZNsPqbsPcHf4WYuxfOmlr6jE6huUOPKgZUCXNTppkkN5vnTBYutB2mzOojsHT7EfIQo7wVB6kdrQ9xI5whg5o938MfmXZjDycxTroYtHF5LuCvoh0WXQYeeJW2syHkr83RpMOGQF0T+g40IMyNhzmae6Q4TWnY9wYQWkE82IRQ0AcPO6WD7/wZLLfmMbNALSk1Nr7mXWhu7+RGhiLBUxqbrx/Bp3LHYvXSwV3XjT7ajOdMdkTztLOi/3JHsJVuBT0w6eIIhsLcd+CH107TBfOreOv7BkxMLyCjI97tL6Kpzocafwy7jdXUVIfoMtCIVMsLOPg9+ldvWYTTG6QW2kM7V7YRm5vmI30Iv/MXSFymffpahpsOPeg92Iv2Bi87MXpn4cTJ29CHfT/8H9Dq2cPJLZfDLB50HvkO4G2B/w59WHMwtQcbEWxmkCT6AKcliNJei5vErzVJIy011NJ7mQXYIDL35V12d7BRvk1lLrOsG5dv5L1x5Nn+8DTLW8q79F42EvfLq+yaoEpUrGfreVesrMy6lFfpveznvy+Dp5Xvfbcp9+sGYax4eUv1Yf29EqRMyljxcgqCzFe9rb/f/7n467Pz96nhwEdk3ht9e6We+CEye2IiLbZdsnlNfEHrnbUI0F/tq3UG2nVS40siVdv1AklcI2rbVkiirPBUhRGkjaBT7sjCZCnnPMm4j3bKDk8YvoY5arhoy0JzDyuXZhy0l5ElaXPNyzxnHs20iUwbbHQLxg1G1KZandQqU2s6yiXygqOOURN3Y/+hbm6K40Yh2jR5uUnxpbctmF+I0t6WtqS+WpI3D4IeLjVzZmHy0hVYnw8/aCjATr/WsoQtaVP1Kx54Xv8KxiTIFk8Nul/7IcktNwtaiKc5h1qLn1pnmmwwQI1EDpTNhTrYUb/rCKMXcrnFQZMPA5e26c6ul3tXrMRT7Kvrdr8JT1uKGm1OYLh0kqOdrYUrBm5i7m7uo4a7FtbQFJfWuPzvDaCm2sP8ZSIrqJpQ3XOQvIxLcCY3XRna6MHFhfZDb5PgT3GVQTxImBGsb0SA7tIs1JpmOPkVhfTXzdWemsilYfNprIza2bKLdvzVYcwuppG3cFJR04IAzaTEztwfqqdNIm2wuJxopK3fkTfoaWaZm3hjBYSa2uFxWjnJiaHNxZ36RosK0VrVsh+2qna6dkxRNtQss20WuI+giqYYPk5s7TU+HPFOIpqi5O00E6kJwUGznhxlQ8MeuGra0PNaAFkjva5wqVHyre06BEdVMz2CzDFKIV3e+UMI0lzHS8WfQYIxiUJpxwjnqUldy1hDQENAQ0BDYAcj8MREuoSJMH6D2DqTPDHasLKbFK8X3GHE5X1qw0hUhaYVOOLKio4s8fOSIjmSkZikW9yldfhqiur39dmenKteJGuhRiftsZt5S95ABm7aX2eXR3Dt/HF8/PGXmHTsQtfu3XhhL3cBkxZkycB0JBHu6i54quX+cmnRfkjZ0/GrQdzikSC6g+KlQIz/heztpCSzMdpKW7jRr542TXw8QUIgN9vkE38XjOUfzxNzDpe4WyNYIp8CIwwKInb5LqSMn221LWoTJxeL1HdBS66VlRkau9FzgA27gtXypZgnMeWl6kXEqcUO0f6Zv8o1kqf8ZqTXjhYX7dvX6wlJvWihU+vyULKTG+2YxLrGVTKj1UuPFm4EGuXB5CmlfkpzpG00SbSSjeDD455wMz1zEB9+F9ODvMhLIkDSREvJili6AtWcrFZztUWO8UQmhS/xFGSh89JHt6e4wsU2lieBFlt1NcfhpMrMe1pd/F1kx3ohttI5ytRd1Qgvib2UUHy+KHnzNyHqYqix8+QjyGlJQ0BDQENAQ0BD4PEQ4L4yjrxMpQFRDPa370JIiJMM+vK+TrJkLOeArwZf+SjH1Uvutimpc3gtDbiFKJQYmpA3/lff82I/oszSS7/TOITL4Z0viDZzDxL5IGqb6xSRZyGYhdyLZEE0rZJvkQXw2Eb2PIMH+V2IpRzfyamEY+np1eMq3NdlxYdXEAkeAgTfS5jIuep8eRcSJ3jJyaWkThS8iwcKhaId7OZ6UDy9KBM5S36TXNWbEL11+aqjPFjKq5jjTvxbxCJPrNSj88FL7aP4tNJuiv8EfCHOOoYAl3pcOq+IlXwXJCVJ25MJSjGH4t/1XNRJJZxVJuo6ubAkG9VWRbCS37oAJN/ipUW/ofJFechY/33znbTPGgIaAhoCGgIaAt9GBIziK1IlGVE5cma501E2hKkRVo2yxaG2+JfnrGuMixcV/5YG3OLoXDxHHeOgTv3z5lMfuH7j2kdohEVDdm8+JGtmH+o6/GjsJsVm4cR8QFyqye7V0h2LBLL0bb0Ym8ovfGAj2Mem4/cW+Nn6poq5IYzSMwmsMmm4++ybSy3k957E51ao3PfMijTdB1eRMxVvqAjWfb8X810vEH8TGdxNPL6prPfmX/xNzi6Sv83X8eB9Zbub5zP+ST2v/BHdrjyjOrCOw/pn/ipPqyaLWzzOBubrp29Zj3mdOi7Xi9yZ4UZdvifPu/e8F2cev/vTRnk2Ll0vt9xDrTBt/FC8n5r0qj+bf9A+awhoCGgIaAhoCHy7EDBO37mtnliNmzIYc1eiREhSARR4UI4rkkbFtRBW0To/K6no0q1YGiEmUthnp3RPCSUlj3WZKPmIjOTgt+T5nxKslcq2OKFRVVHJREQjLpNEW7zT0regte00kWnPoyGgIaAhoCFQYQSMsrFoc5KNeHrx6Ue/hhI9SyJdiW/RFJ1Qi1eF0rLv5mu0z18fAkLUstzBl6Hz+Zy4q6PpSoq+VIW1lRs04Ot7ip17JzGVSknwCa7siJY4zc8J+iGVdrXT2o5YdOcZFEYZZu9ckWpPpiGgIaAhoCGgIfBQBGgjXbRp3TiD3/Uk0aJJy4qJB51jCSNQCk/+ttPIwMZzPycfhEjrGT49yWABQtJUcBmSN5GVImvPyXPsxGKqNkKflWlG/VQTHfE5yYMiM2k3O6ntyLOa2B+46eVDI9I7sTZrz6QhoCGgIaAh8DgI3LWR3nw2R0kJfJCiRlq0ahLaNZMSP89b2+BuvlT7/PQRENObNLXQRXt2CaKRYpwDE+1clYHL0y+AdoeHIiBtRFYKRD7iDF+C4WRIrHcMiWYVk1omEeQs9AOep4tK8F1LGgIaAhoCGgIaAt9GBIzBhsYHnlvZQtNH1/IcfTRzo5qFoRDtEgddwlhqXO0BvL7OA6IJlEA9a0vLymTARF/DIhuzhJzVZPN1imLLe0nbSdIMKkK/52IiZXXQzaLHrdrRjhHP+oMYWBGNDEH70ESyrTwA8bztewLaOleZqIipmTSCUt5ypq6Myl8qm7yX8pR7yL3KalSCE18qXymf5FehpMom+ZVeFcpXZVPBclayWFpeGgIaAhoCzyICRpfP/0C5OJ7QZCCLeCSqxhEbg0I4fV6G7KaN9P0eIB64WjvwNBGQMU5MOzISypuyMNtscHi9JGxOyoaDtQzeWvrGENCLybDJzNWchHqXtuPyByirnSUbWf3Q85n0BZqvPKzSCXmUELAM453PiPu+oqvNcoSjQuvS/lyFWhZTMzGfoTuSslZjpFwSAlocfNPNoMqb95DylpOvWoUQVymqjMyfKxWVap7F5y6WtyD2+BUKDy2yUo7hy5iYlCNf7VoNAQ0BDYHnDQFjNivRNO5NsmGq6MeZwwgHyzwHQwlYUqC7K7HD1dI3h4DyqMLgMkLM8hz8RTbiniyXlUhzlE2lRupv7hGf6ztzh8G6bLhpl/IQmUjbEVv2HWPeQQkpIy8hWwwxv2WSGR+JaYFmLflIBDmah9H+aMtTt3NQvArluTegQLedBRLTPO9T3BvwkHI8RuZCmHNC+KNUHPBzXu7B8hZEo1BGgxJ5i/zz3M9QkD406oDeVBkzmLyUlZO1PMsogXVyMgmoQFLY0qQPXEXRkoaAhoCGgIbAVyPw6MiGm8amTR+/OlftjKeHgAjifmGUvpfen97dtZy/CgElg6IgNn38qqueu98fWdWERFNDqp+bhuHiKKJLi4iT6OkqoDUtTkxIerm5NkMSGSExLXeCIm78JA8h5jmWPcVlhayQaD5GuUnyFfIv7ytcPdIrcl5urlRuc0WqSJ5pk09c4zS7KztJWfnScz6u/+73oQuFy85Sy0BDQENAQ2CnI/BoIv1VT89BR2xClWcCvrEPXn89cpjlkimHrvVBqnjNo8//qmJovz8cgYdhXTquCISCX+xZ17mDkiOJhcq2KCuRl8hK3kuykxPkmIT0LtpscgC+T67yezFtyp8HZKVDfiqVo5SnOn89z/ULd/Db1piIFEp4CMDiM2cz7oKRyG0r7Eq/CWglmZQAFNGU8i2dJ+/35KPyLsp04zpedPc6lkeukX+isH1YovZZT020fvAmUkMDyCfiJNeV0caWbilraQ+up5V+fcJ3PmiWD1gZ/e56GQR4YkYEKpvWhSLlrUiiZltsw/UOF3QvHKxIllomGgIaAhoCOx2BMoi0DK7cbESfxmIXqpKYA3IJO8cog4/q2sU8wWDUQy7L0iRBohJyXNZSpREQAkSsjcRagtCJOUhGmfKI7CToDpeFRV5itkOTBFEYChEu8DvFQrIrBRJZyYSJmi8el9V5A220VWKeciydyan7yHEjXzK+i7lJNsO8mbMKcc2D8rtB3UA0aqRAInZq6Gh6r+y+JU+5p1wrv/PnHZwIkshgHVt5buoY1fMLcZbjsoFOsJAgSGIXb+IxkaFgLhEkJdCLyMbE3yQpzNmWaEUgEb8VtkVZFcmvyEYUosK7xBQomxMDDcpU2qL8JtlIOcQMZb0NSz0RLaqURwonbZW3VhVFbcwTc6JHSUoqg5qh8cYV0sbyhk83SZkrnZ5ClhtFrFR5RZRqdiSFfZoF3ii59kFDQENAQ+C5R+CJiLTSdOUSiC/N4PqXn2FkcgErGTtCnS+hp6sFHY3cwCgD7AYT0iuyLauPcsO54QGMDd7CaKIWje0N6OsJK1ItfKA0JsjlHM/V2CtduiIaJBFCHtR4LBpNNUgX3diqbp/3E4Kh7If5uZTXcy+l7T4AwVDkR5fC2twE+k98gYSzHe66TvS2B2ExpRCZW8LAiRF4Ka+qlioELTFcP3YakzMRWFpfRluTH2EfBVaIYOjMLFaXYwh2mTFy7TLGh8exmjLA0/oCWrt6caSnBsnZGxi+dQMnvhxCzsZrmztw4MhRhD0mOC20Fy6kMHDmBKaYfzq4F70dYQQdaSTmB3D23HUMj84jlTfAGWpCY1sX9h7YA6eJJJEzAEXctovBM3y+mkhy/dyQj+PGsS8wu5JHxt+Hvq4wqnz0gpGNY+APw8gYrAjuakeVI4H54Zvo//Ic9A1HUNvcjPZaK5aGz+Pm9Vu4dG0GsHtQ296H3gMvotFPs4rkKhZnpzE9zQ15WILVPobLF2ewtMY26Aqi59DL6GiuRq0ji8Hzn+Pm4DCGZ9PwtR5AV1cndnfWkqCzGSeXEZkfw/nT/dB5G9B04GXUuGlTTLlFpq6ioeVFmFxV6wRsK9BVy/wWN8atMNGOaQhoCGgIaAjsFASeiEgLmU0sL2Bu6DJOnTiPuVUu4Tr8mJo3kxzoUVXlhYuruNyzqLi06L1y6QTSfOW4KXxy8AaunzmNC5HdOGpxorcvhEIqilgihVSa+jiTFWa61RJNqng/oPsDas0sSmOWo8/kdJ6bgXRWGPXUhObTiPI6UjW6GzPDYqUdIrUqetkYuVOktM3nELx1+RRW5u5g8OJpfPAv/x2GznfQeTSELhJpfW4N0cUJXLw0iA66zjN5cpwUXcfxD3+L29MZNL7Tg2CVG9Ve2nYmpjB8ZxyTE8voMuZw9fJFjNyegslmx535PJZXU2gJk9T1X8KNC+dx5cYaJ0CsA3OrgLsJR7oDMJEIrk7ewqmPf4fByRQcL1SjpsYLn3ENK8NnceHMNdyaiKOmoR4Zsw8BylzI846UH3kljQeQXJ3DyuRNHHv/N5iIOuHaH0RDgw9hL7XByVkMDt4mFh5YWsLIzQ3i+snP8NFvPkb1d4I4TOLaVQPM3L6Kgcv9uHQ9BqMui5nFJNb0dfAcqYU9vYL58QEMDjvpLGICTvMl9F/PYXk5A6vFiGjejVwyClt9AVdOn8HA7XEsZK3ITWUg+wLD1UFOruJYHevHjTNf4IMPLsHX9xqsnS8j7GJ9mRvG1KXPEAp2wuGs+vZOWrfZNrXTNQQ0BDQENAR2FgLbJtKi5RWN8MrkEAZOn8SlyWrsOfIS3noxgPf/j99hwmLDrc4e7Kk1UaNVdB+l1+WwtjiF2bFhzC7rMH3zFsYmZjCVbEQ0xt3xJMOppTsYHp7F6GwGZl896uqrEPabsTA+Bp3NB0egFlXUhMXWFrC0tIKcuwEeQxKm+BxuDU0hVrDA6guhtb0NPic/k+xnqdbekWTsEXVQrRYUOFtJL6L/2If44Fe/ws8+Oo89pn2oO0SCTbW/LrKAWGQaQ04d6vWrWL0zhpM//zu89/lFrFqb8cM3c7QTJeHLxJGdHsRsIYkxRFB1exQJfRjV+/rwzkthvPePH2H00zGcbfdi4tOziC6sYs/3/wqFwc+xujCGTz46h5C5mxrqeZz6l/+CX753GrO6erzaSyMG5p9NRLF45yaWc16E97+G//A3fwo31aAmVrICtaFSe3aUNprPJe1Hl4lg6uZ5HPvFP+FnvzuDdGAPXhFM1G9R5JZGMKEX93kWGDmROfPuz/DJh7/H7y+M4Y/2RLCfthuGbBSjo7NIGIPE/EdwjX7AtjOKd399DL3N30OtPYLFlREsmhoR50TXNhFF08E/we7CKqxjn+P3X55AYnoA+gMOnDy/iGB9B/74ewfw/t/9EiOXzLjY2YsDjju4+snv8E//+b/hxmwBB9zdOEqBFHQxxJbmMH1jDL0vJh9RG7WfNAQ0BDQENAQ0BHY2AkYD7S2U5ph2FGIW8bjEU0JSi7Y4p6uFwx1CVcANU24e8zQluDW2gJ5QCCa7ESlqvZZGL+DUydP48uIg7IEepGYnsDKzhIKHmuN8ApGZIZKK9zAbSSBqsGN16gQau3vQ1NGIhYufYs3SAlvrYfzwiAND54/h4tnrCL/6b2BdvYX47dO4vuhEIpGDze7CrcPfx+G9rdjV4gWVdMrm83GfaSeIWoh0lpgvT1zD7akVzCUd6GqoonkANfgkYORqWFteI7laQ23QyR1Q85iJzWI45oLTFYDP44GJExAhselkCjNjMzAbApRFF01wDqItZ6NrsFU401eRTy8jmaI989o85paNyOqqsbuvndcPYDKxgoHJUcyO0Oe1PYYr00Y4HF60OCV/mujIhq5kBkuzEaxNLGFtoYBP3nWhpbsPTY31aAiKSzKxr9450hPsZbUgujCK8fFJXJkywu/1wRx0wUibZcEkGUtgZWoOLquRk54kJ6wDGFnMIan3oqcuBpfYSZNx56i53/fmn6BtZQXxeBInrhNPsxcH9rfD6zIgvbJGk4xVBJpqaarRgzbbIRh8jZi/eRo3ry1wkuljQJ8EFqcZPCYfZl3oRHNrI5qdOawkSJI56e1PXsP4QgyGunbUFpbgd1qLDSoj9WcV81MJaq83m3Dd24LExlsnfonFf3Kaam7x1VyBxOkIgRQ0WTcqWD0ky43sNj6UWWAppkqSeeUm9kUM1rMmztstrppwy4YHZb++Ucj1DLU3DQENAQ0BDYHHRcC4wiX35YQZEjjCH/TShpmDH69+VMcs3MZM0uoOBOEZjSA2P4lbA8tYJCmLxJZhXZTl/SAJOolQOo6pgfO4ce0mBsbTONpAUwK7hUvLWbXxjEGUGYI8SgJO0rdMUlDIYfjSDcS5KS5nc8KwOEnNNUldxItD9W4MDQzRvGAY3sNRRCZuY+TLU+hP1JGwZ+F0eJCvO4zujvqi5k/Rlkc9yePC9Dydx0GVAkpTpeyoIiFtjyGQX4TBTttbTpaEIC8tkDzNp2ijXAObNU37dS/qevbBQjnkYFUbE3Uk0+l4GlNDEZjctfDXNqC+qxVW2vXOD1/EuY+/xFwsDRo1w0Ob60yWkya9B54qPyx+J1YtJHtrJNqJauR9LlS17YUlG0GmYFf+lXWUf4avRZoaqI1vrDej/eewRFOR5dU0XEe7YZdNcGQ3O4lMS03KUQ5GTiqq2vfCrYsga3VRPc8thayqiUgaM6NrsKGGbYyTH3OGZLgDzWu0UUcMdq4oqAmG0YHGrn3IRWaU+cUZs4X7DMwIekiOuH8hupzA2hRNNPYF0N7biR4fSOCp6V6exPWheeirD3ICbKPpzizdyNXC4GBb9rkRsBYQS7J+rEaRoEmVp6YRuw9bcCd3CW6S+4KQwSRNgyJJzEXMSOfEBlvRunsbiZA7ibYZruYELgsjyTRtte495wm+KS8zrJvi/15ttiQZlGPlpWKPJ76k5ZNsopTNtZVIUjLZ0Cs9qpGu+hSBrUDGyn+8bBxhMnC3t9r4uY18xX1gfm0FeSpDJKCL0qZs43rtVA0BDQENAQ2BIgLG65/8FJ/e5mD7wgG886MjcLHnp1WEbN7fMqmBgX989S3oPHQQrQN/j1vHTuHMJ07EVqhJC2VQJVooDm46kuJMIoKR/kGsxIOo3vM6/vzfHkHk6gf4IjKORQnMpTPC4g6i7+hLsJy/iKHL55FZ4Wa2aBwJnQ8v7OlD/mYMt0ZvYuy6AxNzJqQsu9FDjfPknBnXIllq1rhRjdTD5q9GVdADl8OiBlc16G75FDv3oDyzzsxoeg0H8Vb9AezuuoJTf3cVUzSZkBUHAwfflZkcFscBW7MboYYaNNTbcfDlOP7wt7O4fmOa5xEfyi4dzWJigJvidtvgsXNSQ5qRWhmj3fVJ/MPf/hqL1T9A75G96Ky34ZxNT80og08oUlPUkAnpsgYa0X2YGxKPvoKz/7SE/oFpTMlGUdpwZ0iu5mLcjMgw9R6HDQ2uWRz/4hPaB8/A39KCvmor/Mw3lZFa9/ynEuGzBDuw56UmdB1M4cJ/naHmPotZIdLEJbmWw/QQzZ3CNnibmtG0N4zmXSkM1thwfK6fpjUyHxI8OMEQSIxWbvYLUosfQHxkDWPXrmCmgZsXZzJYHvGgk5NWj1cwjHOC+iGOffJ7/ObkPL7zv7WisdUC78oM9xoUJ18iNfmXL9DLi8GNtsNvo84VQXzqOv5h8I7qF6RnyDEYSjSpx4yhGimdZV07vEk+UgfoOzkXDCHDyKkOLnmZufKlN5RPpIXspmnEvbq2BoPZBLvdwbpEJMqpIuzwJI8II7kKOZf9GaYS6S0jX7lU/F4nGZQmx3d3IMC5RPkYCNIJhqFPMjCNEGgb/VNbLJTDNlJ2YQ6xE8eQHrpJMh1jPtu7fhu30k7VENAQ0BDY0QgYM7RTjUasSKQYxpeP+pXjBk9QhEBvpk1yLXa/8ado58CWSsRw7GdzJHEOVHk9HJCKmiLxFywaR6o81IZBGaBMZiO1M0ZqG81IRmZJHO7g2BcXqBUPoeftf0XXW0vIOu3s3G2obmrHzMoVJEev4PhxeqEwdCO4+zCCbi9svUcQ/34ewZELuMkNcPPcAHX13Bk0VNnQXNMHGwdFNSlQ5G5Hy3Hj4eRRBXurzU2TjBSSNK8RF4Pk0EyUQz5GTWMOCZsFDp+P5hzUIjspk3xGubYTsm1i5ETkaB9diGPFbkPI64bdSuK2OoyTH/0On31yHjO61/DaW3+EN9/sQdhJ8w9w+T5HrSONm2UFX7li4yTJSJt5l9OBoCmt8lfu91hIcb1m8YTR+eLb6KhthdtjREP+JobHj2OWdu+LUU7CmI/IbyclkY/RbIfVaoabqwaysi7No2jbniaKaazSLaHR7YLDw027DP1u4jVWC8kwTyxqf/lOYjy/QBccFJXdV4POVj8maIbzxekr6Oz2wFZwIF1TAweJdH5+GLevn8ZPf/o5BqYc2PfD/wXfe3U/6s2TWLzA8NIZRgqk1ph3JeY01aEMrSY73CyD284VI24cLhJsqUR0mWj0ooba8BfzzfBWBYtWFvcLiYS3wI2/cDo5UXbBQnJaCS1vViYR1KAaGOTFQPJo4UqakNVykmCfY6XV00xGebuhJt1MDX+52mPpJyX6aIaRDdkJwhKsogvDyhDpbCLBlbyUKq+F5bUS3+2kQm0dzAy4Ev3DJ4id/xL55UWZm7E+sUJpSUNAQ0BDQEPgsREw+hs60c0l+bpqH4wyTjLJYP+oJAu54j0jFaetZIYaHJsVLrsednc9XNwU2FztoebFoMibgUEY3H6SujkZ+G9haCiAxPgs3XDF6ZWA9rNcJl6bH8XNyzdQ22dHTWcLTFYTPXMI2dLDU92MwMQgTFnalF6YR2B/N7p2dcJDIpjj4GFxkWxQ0+OZXUJkLYHlGbpq4+YqUWJaOUCKnea3LYl/b9H+mQ00n9HRRCNN8wkSpDwH82yMUebyUaRtOnpcIEF22Hkel51pVyC/p6lJNPL6bGIVSZqExByUr5fEQs+lfNrXnvr8C3x5aZpLEm+huroKNUEHB18fbX0NWIwtYeTqNRhuz9DMh047amvh4qTKTs2hxcilZOYvEdlUdDohP7ynxcp7cTOqVBYhcSaSIwfNS2zUoAvx2oni0+uNyne2hCdRmKjId4QgGUEyTbMJToBCPjs92pGA0hONiU6haTFOTSxXeoQzkpwVeN7EwCWsJGkmQs2vYWmZ5jX0skJmnVxmREFvPfRN9bCbuNF3pB+nP/g1vjg2QC3xLrz8Vi+CXk5w6Pkm5auC07iMxMIQbvabMBlju/X4EApRbmzX4nuaM1tOxjLQc6lCfIJzjUL5r3Y4in7FH9q+hJQ5HCwL+xbKtRJEmgWgyXUaOhJ1PfM0cLIhZkglbf9Dy/KIH0QLLWZPsiKgzDqo4TVYaOLE4+XVP/Y9Yi7CPlBH2SgcqEioRDLQo4qeGmkh/gaWV/DdVuKDmUI0u6JpR54Tk8Slc8hL2PUyJyXbKoN2soaAhoCGwA5AwLjrnf8Re4SwcICW5UdJeRk8H5J4KkkaN7RF5zA7cAK//W8fIl0woqauFTO2djSJL1uaXZjJymXQNdEkoLG7Gc7hY5ik6cavTQvIzQxi6c401hrEbR01NFxaziwkMX1rkCvVaxign2Jduh022uiaPO0IufwIcUD6fDiC0EEnursbSbRWaHt9Buc++xizri5qkOrRUk1tqy9AUm9TwSuEdYgm7duW1BPzDw0tKFOxQU+oQCwparCi8+N0MziLnMUMX4hEjZrRQj5JbkZPHekkXwyTTKIUFzKWG+NGwRQJHZf6kwu48odf4MJFbkBbsmDXXpogDF/DRSu9Nhw5jKZWD21wb+LD//KfkI0swRNuRMd3j9DNXQg2EvUsK1iWphwZliEtmlVqwBNLY7hz+he4uOCmzbwZTe4YFjP0I93bh55qCwk46xnJ9Y5LIhsSmZxgojCnKQbnEonVBeVuMF5YgN3PCYWHkxSSu/wGdnQFKUFuKNNCahl3zvwWZ65NYSRXQ/vpKbiCLTj03dcRMl5CXu+Arf0gvdesYrD/PH7zL+9jfDaMmkCSE+YBXL4OmuR4iPVBNJ36rxi/3o//d+YCxpct2N3dhr3dIa5qmLghlOSZJDpNDahe6gb7iCw3kk4PnMTFT0/hUF8zakLBB807RGjCQoXcs24pglYBbadozmXjotj4ih959blMIl0gGZUyiqZbfWY588xbSGo5BF1qrnp2Kav0reWx8nuawUa+UsZtaqNVRtKR8zntB48ogp+LcnJ9sx/5CN1WaklDQENAQ0BD4LERMBZoD6k6fHWJfHp0krFAtJtWfyMa930XP46aMbsYRdZILwJNB9HdQ+JrFw0ayZPwcqMd4Z7X8XLaDXd4iEEmwjDWBmA+dARZ92709brRVNWOH/2FA8tpDpIuKwI/+CvYw92o6w5zCdxKrZwFVfQoUdtch9ZmkvUQtS8WH1r2HMLbehNtTOn7NlnPc528F8vQ1UBtNAsq9//qR3r0Az+Pv1JI8i+bMyo57X7n36LFvYsBWWpoT5tGU1sBAa7Xh92itS5q/vMFJ1oOfgfGGgZk6Qlw0xohJrl9gUFd6qoCtHPNItz7Ft4udKNnmRs7qcm0u1ycsHD5Xu9C28E34KSNeu7qDHKUebC+GbsON6GGmtVclrbVNP6o3/sa8oFlxKoaactODyEk86/86V/CPTBHH+QxTtAMDBKyFy2dXQg5ir7Ai/bAz6MQHl5mkU0uTxJIu/6mg2/D1FpAItgAfxXJTcbIYDRW1IR9cJlFNsKlLfA378aRn/w10NqNxjo/dNw8uv+tH8BeN4LrIxHaC7ciRDOo1t598CZMzMaNGqePbcKEYOt+vP6X/zO6I/THzg28fprb2Ei+zI4A60QTXn7nBwyIM4XpiI77HjrQ1dODRq+JqxBsPszHWtWNl370rwF/K+ppguOwtaLz8OtcCWIgn7CQ6Ic/6/PwS4ksy/vmFazS8Sd+hs3EefPnJ85w04UVyk9PDbm5rh7eH/0EEbbn5JWLNPWhiZZMLLSkIaAhoCGgIfCVCBiVDfNXnnbvCTLAGO1++JvsOMql53n6D15LUSvdtgsBemhQGkiSWNG66WhL7Qh1oHu/DQFqKedXuPHIboeTdrd6gwv+gJ0aZOClP7JikZ4Coly9tlupjSRxttM+NLYwjJnpOaxlSdb2HURHZxsDQoidoQHBpi7Y6K7NfZsbZ9JcLnf6UdfaAh/JuIH3zvH1beTRRWnJRIZ+HNzV6Hz5e7Rz9TGIihNmaxY1jS5iQ1Mcq0GZdMjnHOyo732Bm/xoK+txw0FbTn3Bgx4v5UGXdXpuPqzpfQWv1Mfp+zupXOPlaONu91bBQXn5WnppwsMId+5RFGxebqwKcQMcVya4PC4h4+Xc6q79cDekkbUE6WbPTo8hDrSTgFv8Y5ifp5lQzoJwawdC4SpYuaIhph4yF9pxifUyz6A1+YIVtb2H4SNvyVvpNcMurNmFTu4VsLvdsNAyQjTyNK6h94x27PkOvXs4q9Vv3A2Hhr5DdCfZgEDdDDImN3xhbhzlZBNrInvaxlscsNBMp6qF5hw/qlImPim6HEzTZZ3ZJxtzg7Bxr0HnCy9x8zDdIC4k+M5Iipw4ucXrCrXhBQMNbXzN2Ps6XSWanQy+YoCFkSttrbtQVR2mDbfveefRO656beuBqNE2uGlTv2cf8gnaYzElbw0UbaVZT7c2gN/WHbSTNQQ0BDQEdjQCT7bzRYgAh08dtZHhtn0MTUy/wIRJItrJwJ9V7p6KuAmRzenoRivcwgG/Bb1ygBosuV4SV36V8qNx1360MBNaeXDJlu+kwLHlGVz46Bf4/DgjIU7b8Nq/O4ye3a2gm1zaaPNEaqXdtT4crOvh+aLhk7zEHECWyklAnnNNmQLoSf+IjEiQTVZqJjs91LQRH7JS2axldZH8iAzExEKdJ9hR61nXDLpvFuGQaIvPYMAjRJh4CrZOzy7U8zpxeCbfJTE7mo3wXUfNpcONl+tb1SYtWclO0wxBJlPk0UwMKV7dCD9lp2dZMry3XAtLFVr6qtDOFQRley/35itJ+e5k+REWYm+Cn95vDGKjy++ifRZkPQGRDT8p2Yg4jNxQSDeDVSHVOGRFSPDTWwKceDAiYlsfgaTtMnGTel/gapFgSfN4OpfkPZxuhBt5HxGD3FjeCK7cT/KxVLXAz/bZSxlIS5Y85LhKBgvNs6x0tcdC8VIpl5jp6OjH2kRCrZNQpfKDlp5fBEim9bQJd7z4Cgy0m8786me0befESSpUBcxxnl9gtJJrCGgIaAh8NQJPRqQlXw7IMnzKCqAMucJZxZZzfZzmt01JCAFPEsIlPG19KC8OzPyykQ/PkXzku1hmgCGSmw78GD+uewOvJ4yoprayyi+mAkUCSPZWJHK8SCcX8L8QN1UeyehbnoSICoyiERaqrGQjGG3CWX6XJL/L8Y1z1n8QMqeO8XeRtRympcZGkt8E8+I7ybPkLYRMHS+eXyTExfwlA1rMKrlJ3vyiiDZFycTreL0Q7J1MokvgCU7i4URWhQQXNbHgj+SxxK94TM4VaOQcmXQKsPKTki2xklWXtDSqDewEQ6HRd68XuaoJq5y2nniWwlrdl3nLvJRzUOa9PsHZOFHO5G8sZzHLYr5yVEi1OripPpQu096fPwTEzENHTx7ZozTBqm/8djTC509MWok1BDQEnjEEtiTSauCWgm76sOVYyUH88Uzp1kmUDPwPAWDLfAw0B2ncTRMOEoN1Bq60dCXGsU4qmO23JimCuSGM9Q98k0/irksRsM1oECMha/ekIhe655AQIiFc9ydevpEKZHhbnLL+O6kVz33477wD5fZAUXiRyP7+4xs3fd4+KJGIQJRE1t8f/hD5Ul3edMpmzIuHi9g+0EZ4olz+gNx4fJPYFNctKZg33WbjoyLy/PYwGUid2ureqq4pEr+RlfbheUZA6qzNjnxjM6POetWqharOz/MzaWXXENAQ0BB4yggYt/SVKjxg843lixxT7/f8svmsp/ZZBmya6G6kLcu88etO/yDaRknrclBC2fz165ePKo72RyGgpFMSwSYR7cQ6W3pMTfQ7DIGNpakd9lza42gIaAhoCDwFBIwSJez+JO7tClRj5rgerJaU6RZK3JblaFT5gMbz/ou1708VASFkOfrXFldyOboCy4ls6F5Lz82BEgRFS98sAnpG8cvQb3debCnEHzflI21MwkRzPrhDkpgKFTXYeRM/8Zm1pCGgIaAhoCGgIfBtRMCYWF1+4LklQIGKyMXQtkKkZS+UbP4T92QakX4Arq/1gBBpmeikY3Q5SPnoOOFJ8ntOfOtuYSbwtRZOuxl9D9PVH+WSSTFYBsm0tBuDhOCmbHYWkdYxWAufzs1NaRqR1mq+hoCGgIaAhsC3FAFjdHZyy0eXAAIpBmGQlE/GGIBllQo2TfO0JVjfwMFUMsUNZIxYyMlNLh5lpLktzd2/gZJpt8xyV21aiDTbSz7BCQ/bzo5JSqsuHlUY4p3R9PIMQQ5GrtSShoCGgIaAhoCGwLcRAWN7W9uWz52lNm1ubk4NmA6G+ZWXQXOFtCVW38TBpaUlxONxFbDG6XSq92+iHNo9H0RA5LK8vAwjJzc2hm920yf0TkwyUTA/SVS9nQiG9kwaAhoCGgIaAt9KBIyBAP3DbpEytO2MxWLqFxcjXnkY+MRE90haejYQEPlIsjO4jdfrVROdZ6NkWimEXCaTSUUype34/f4dCYqYeaUl/PXOsVnZkXLSHkpDQENAQ0BD4Okh8Eh7ABkg5ZV/wL/W0yuQlvPjIyBykZdGZB4fs6/jzFKbKcnn67jn132P0jN+3ffV7qchoCGgIaAhoCHwLCHwSKNnjaA9S6LSyqIhoCGgIaAhoCGgIaAhoCHwLCHwSCL9LBVUK4uGgIaAhoCGgIaAhoCGgIaAhsCzhIBGpJ8laWhl0RDQENAQ0BDQENAQ0BDQEHhuEHikjfSjniKfXkNkcQJnjx3H8NQiVuFA3a5XsberGb0NvkddisTaPFYW5jG2bEMo5ENLg/eR52s/PikCBWIdwcytOwz564MtGEDIQ+8rnD7Flpcwce0qUN0MZ7gWNU4D5oZGEYklYG1qhN9pg8Ms86wspm4OYnlpEQWfA6PXrmNydBJLjOPTcuB1dPfuwq56JzILQxi6NYCPT15Hzl6F+rYuvPLyEQTs9FyhalkBc7dHVP66qjCqvE7YEUdy8RZOfNmPm3dmEeX+SVe4Ga2d3Th6ZC+cRj0k3sdOTRL0aG5oGLEMw3b6qxD2u+CwSGCdLKYHbiBCt5MpupebunYRU1NzWEgb0bD7NfR2d2Bfs2xgzGF5egrTg0PI+5xYnJvBWH8/FhIFOOu70b6f7bHRDVdhGWtTt/DRiWuYXM3B4q/FSy+/jNb6EHzWIsBrc/NYHJ9Czh+Ex+dF0G1Geuk2bly/gS8vDGCN8tY7AgjUNePo0RdQX+XH+qU7VTzac2kIaAhoCGgIaAh8JQJPTKTjkUVMT9zC9ZFpzC0tI280YenMJVhhQLjKC4+ZARs26bvz9HmczaQQT6SwMjeO2alJXJ/2o6AzoaXezRDgKSSSaSRSORgtVvqoNcPMQCPZTJIjuImR+8zgV56XVkSjYLRCn88yglwKsTiP6QwwmMz0YmHlffWlANpfCcCOPEFtEs0jvjKD8Vu3cerjS/Du2YeW/U4SJDsMhSSinMz0X7sNn86NMF20Gedncf44SRgdtXT6QnSnZ4HDlCdXW8H4yCiGR8ZhqLVhnCR6cXqeMkjg5pUbjK5oRWOwFXODwxi8OojxhVUGjBEfykYM1TbA0OCH3ppHcnkKF09ewnw0j+qXX4Fd7pmPYnGU1zDvydkILA4nzPQCkZGImhTMjgkEeH8lK+SRjq9ibWEKZ784j6jegdDhI3A77Zy80G97dg2jd0Yws7yAjNeEseFJrNGdXk6XR+T8FdZ7ExpqvHAZolian8aVSwMw1NiwtLqG8XFOeAoJLCcNWEl4EbZ3Ipaax/jZaxgZm8V8PAt7NI5hysZhMcFZ7URqdQZDl2/g8tlBBA4dRUePHQGHAWtzk5gaGcGd0RmYHC7YTU566WDURgkuc/8zad81BDQENAQ0BDQEvoUIPCGRLmB5YZbkihrMmhex66AZXfYl/Pw/UjtttaOmrxe7AgY4SaZLKZuKI7I8j9HJBSyQSC8sLGJyQYf6+mphxyikljE/vcBjSTirqhEO+uB3mBBdnYfO4oLZGYCNxDybijDYRYRaz1qYMgx2EZnHnYklZHRWODx+NDbWkCCQdJdu/C18L5Co5RhCfG7wPM59/Bn+4R+v4dBfe+Hs7oMKfkhyHIkt4OpkFvs7sgiuTeHW6V/gN/9yB3OGBvz1G2+iPkDZkSwXklMYn1nE1eFFuEhyjbUH0NPnx0HXCN57dwKDx09g30ELLpyfwMKMGa/+67+Ea+46kpxc9V+4BJ9pF4yOJKYu/Bbv/eISpvLV+H7fy2ipASycOE3dXqK8+/Dynma8dLCdkyVOwDgps3IWJhOnnZgK1DhHZkdw++wH+OXPziFd1YO3uw6jI0N6WohTdjO4PbPKtjILs58TxaoX0L7PjSM1q/j5/30KI3kjbh3ejW4r29LKHC7dWYUzOQdTsAH+l/4CR0PTGL8ygk/e+xjj3Yw+uBLBlc9mUPfO69jrycHBVYDb44MYZfus9rRhceAETn54HD9/fxhv+jrgb2rhBCmHhalVTlAD6OS9XjrShVDAzXalg5UuF2WSzGqmJQ0BDQENAQ0BDYFvNQJPSKR1CNR2YD+XeptzLjhtDIUcn0ZNXRWcfhus1Krp1rXRBWqNc8kF3Ll8FpfPncPNZZobSDhrnRk5dz1yxixiEWrVjp3A4MT/z96bNseRZVliJ/Z9X4HAvhLgvjOXysyq6qpeStbqnh6z1thoZCaZ6YN+gH6MbD7IJBuTWpo2TXVXWU93dVVWVVZuZJLJHSuxAwFEIBbEvkfoXAdBojJJJrfMBIH3aEFEeLg/dz/XPfy8+869N46NIqvCGbtw9vQkTo0EsXrnX1C2jsDecwnn+hpYm7mFpcUVDL7zU1Q3FhC/ex13k3U0TW6Eu3qht1m1aWc3vW1HtUlVyhZlAW2zF77YBN67YEWXzw9LrQEduVojn0SzkoR1wAeL1QCzzghL7ySOTzjQU3PD1mxDTyLVqhVR3ZwGPBb0nL2AH5zpgtkWgIWeaj8NHO1rwpitopVaQ9Nvhs0bwLGhGFyBIjZWdbg+s4PNLD3NHOS0XYOYmOggWnfDWeesA/sXz/NOsYJ4dhm1RBaV7Ca6RybR0xtDn53X0GE0IGcLWpyZaXZM6DgGcPpkCzVbFPYKBykc5bQqedRTi9C5jRzMnMLpE4Mw0I4eWwcufYr32DwlNnbYjW00s6v0DpfgmBjHO2di6AqHoDe7EeCMTiPXQKSrDGOFhXsMvB7GY+gfI64+lixPVTBzdweJQp724QyALoiuvkm8fzmELqsDFkpNJGNPqVxFMpHAYj4D1NLoGRpF9+Ao+i06mPnLobzSh/ECVeekEFAIKAQUAi+CwEsSaRYCcQX48iNKDW0+tcWp+Qps4RgCkRD8FE/uyTralGIUSLTW1zewslWCLRDlg7pMr3IdOYp1+YhHq8mp6DQ90nES6VQecXqhHXYPuiJu1MolZPJppBobGLKXsZ7IYDHRRB8lHdktelJvz2Kh4kKg34U+pwP0vylXGRmojlUoHYEuRHqaGO6qUipjg6El1KeDPElrfitL+3XD5bDD43bAPHgMfV0tpNMdjdDp6G6sUgIQn14nqRpBpLcfY8MjJFAtlGmfzfkKzJ4gQs4GHNTL6+0GSnI8CHhccFv9yBQylBdkkSNpbppY0Cc2jr7uJhw7gInHoes0UeMsRTJBidCOARVDicdHuUNHjxqvCq9zWNNom/bJg17kwj6w64ptOAixOLzwx0hKYw0UWpS5cPCiI5Gu5ktILcRpJR+CkRjGRyc5EGlwkLGNxHIBZl8UjmgEPhLp4mqS8p0KvNF+DA6MoT/i5OROBYklIeo2RMZH4GYFb4qq0A644PKRZAcJqMGP2v0M70Huu2mCx9+HaDcLMG1Rk85qjAZqt9vtOnXxWWwlUlgvGGGiXKfK5dlmB3bzKIzUc1sP65TBgb141IEpBBQCCgGFwEFD4BVpihCzMjamH+DLX99G3TcIX88AYtRXmvXiT+ygSe9zcnUR6YoNlqGf4D/8D/8z/se/+VP88HgXXGYDSRpgNFkQ6u5BwOWBlV6wPDWhiUROC2DsHzwNn9mK8to0kku3GXBlRzX4DgmcHSbqrXMk1Wh14cTJy/jzv/gh+oMeOCSa7gg3vcFEKYyPHuNB9PT1w9baJWn8X7NJcrmIrZki7E0rfC4fIrEYBkdG4bUzELEh+mRZj0Rtp4qZqzto53Tw2W1cKssL2N5Yxa//7jpKOi+6TkwgyoGTla7uNo2p1e6hnr1ttKBAz2bTyKDFYBQDx07AR52tUfTP1LBDRz18ifrrhTVs5aookLibOhk8mPoDvrz5KdbyJOwidTh0TQcDvb7eaAxDx0/AaxUSTeJKct0hvIV0Fcu36QHOGxiMaSGJ7nBwSHK8sITPf36VszPd8PaNIGpoITGTx85yHSEbvcgcOOk4BGlQD33jV3ewvFBG6OIVdDFewc3JmRZt0+IApsPZBx0HVZW2HlWYoLNywDo0hkikC1ZKd6S1qcWWwe32xibiiR0OYmkvPT/H7+Lax/+IeQY+ZquH0TaH7mJTJ6QQUAgoBBQC3zICL+2RZrQZaqUCFr+8g6XVMhA5jivnhtHb5+OD//G0vIQlkZvx4cwwRLOH3jgGBZLomSx2BhOK94uerlINszNlGFy9uPjDIIrp+3By6rvZMsEd9MOeTqOwtIzfflSBYyCA8eNBWKmbPnbxXbi8Uawxc8HyzKf4j1O3MXHlBzjFaeyhKEnCtwzewe+eIlYdiasAQe0xdMwOgSziJErrJFDBWD8sThdxErFrg+vRWhKoyeDOTquAAoMB75op3+Esgt/noUC9iJlrc5TWcMZg8grGJwbQH6UHO6dHk8SqSUJolN2Uy5T6FOHhPl1Mu2Gh91Sn9c8qjAKaiGvpefZG+3Dhr/8drgTDcHgZ4Gat4PeffooMA0wXKD/wUW/vYRaLw9l2MZcBC1kqQZO7poQsA0GnO2Y4wj2wM4NGp1bB3I37WF7aQSNyCudOD6O/z4JWnTpq2qno8WKkm/ECxg4259Yw9+U0ypYYekd7MDHihrdsxHKdwY2UTOkJvp4zRJ1iHnbqtCUpi9NKB7WeNyi91o9t0+H9acPouz9B8CLty+MIO1ok5/dw8959beATYYqVLic1XKopBBQCCgGFgELgCCPw0iylzCwM8flpfPThPRSY+cE/PMrpek7KN+uoM5ODTMmLU1qvN8DmoHRAl0adWtiFJXo2i8wGkNpBqR4jWeb6lSoWN9PwR63o72J2ADM9mZR/5MsNmLoCcFlnYKyu4/aajWm/TBjuddEDR+5Br7SnK4hyPYmZmQQWVupwxk5goDvEtG5H2KqPTl3Kh4t0pqlpo9vUqzfLeeRJVCsWC3wRpjBjlpNdMsdy49Qtt+m9ptGo1c2hUt7BDgc8VqZWs+qr1KvfxLVPFrFBh2nsjJ/e5xr1vjq0GAhqri+jld7C3PwsTEyFJ4GjPgu1vcz+YRe+RRK/2z+PhxIGea8jyTZQU29zch25YHjttFqk9fSWarz/0XkcxjekrbSNhgnPVwacrXoBZQbSZmiCoN+jySkSM/fw2e/vYbtECQZTCgKMByjXkG9tYYdeZj1lOcGAA7m1O1hg9o7PPltHmJ5uDz3WrUoRLROztDAewcagxPjSIhpJkubkEjoVIwcy9IzbRIbF4+DAuEV5SYe2kWBV+rChdzLo06KHjQY0dIq8t7lOSxNPHUaDqHNSCCgEFAIKAYXACyPw0kR6e/kubv7r/4NvEAwTAABAAElEQVT/8q9VBAZ7cTmmw7UbGYxWJnD8tItyDB2JNB/SzMAQ6Q7DPce8uA/u4jfVVdRLDIDK7SAbHEalYUO9WmCQ4SZ2Epx2NliQbyaojU4imc2RCAyQFOgRaGWQ0lOb6XJj0E+PdjWDlbUHmJ5dwA4Jd8fsQG/YDidJ4648gdztheE4fBtI4GGTWliDkGTKbKrpJCh+JnG1ISQBglbxhIqnmuSWUwetukgvGFuWyzKYLU2PJbF3c0FhDZ//5/+ID+esyFuYGaUXuN/IINfXjYtvjcDbeYD1hWn8QymOZjzBDCtMq3eCHk16vMVxKbZosf8G+ydvI4EkGSytYerer5GpMCcy+Z2/uYHlipPX0ymMhGwcQB323Cv04hOTJqUTBtqpXsyhWcrRVpRreA3QFxZx/8P/Hf/0a6ac48zL+30G3L6XQ9LLQERPRfMu+x165vxuYuYXv8TvP5rB75Y8+GGIMz2MJ0jvdOHi272wWVKIppjz/Xd5psKrwLCT48D3R8yKE0LQznuUthFC32DcAkimJY91s8EUfEvXMLOSR67qRQhbyFUaSHd8uOKxI0y9iAQkqqYQUAgoBBQCCoGjjMBLE2mr24/w6DjeqpSpzDQy6CmHBrXMFZI28WftNSHGVv8Iho9X+Yy2YXa7glaghwU7zlK2MYCJfmo43SH8dGIVyRo9YnYXPvjLnzLtVw88AWaTYNRi1eQnsRjGO74xjEUDVHaSmNGDVq8ypV6ehLzQgJ5T3D1DzPZxcRCxGCUkewdwpP8y4NBHKcwH56Dv7YU77Ibe0sQAvfrhjhXdLhOzPwhSQlht6Dk1ClusimCQOaTrQQYd6nDltI55opl6sG1A18lTOOVmWr2yCeVCgVKQEj2o9KTCi4m3TsHqNeOT2Q00e/o5eBrAhSujDBh1sXch6yZ0Hx+GOVKBsY8BiW5md3Hr8GfvvkdyuIY1plorI4bJ82cxPH4MPS7OZGjHdlgNqGe+bWZDOT0Od5VkloVTHCTFHU6mnD/DIkUhHwyUyDQGx3H+3SqyNQNKORLtBr3IrhB0njAmKWHyURbjZaxBcHAQY8zRXQmLlIbp9ViIB8YAGrznomPDePffMpXh/RVm6rDBFBvG2UuTGB+OaJbnvABjG7ow/v45oFdST3qYzcWIS2cuMXB0Afdm4swfzaw4g/2UTZ3GeC8LuTBzhwy+VFMIKAQUAgoBhcBRRuClibTd14XeyUt4L1hDgR7hZpMeaBMLQDDXLGeDtal5AVZHaYfR5kekbxwGFlExMtNAx+qGJ9jN4EJWUPMzlZepgfNnT2KzRAJgcZC4iZ7awce0CZXkApbjWaxVfBhlKrCeSICPfT7E2ZeLhUN6+mpwV6jNZXCdP9xFkkgpiM2iiLR2VRtIVt3oP38MOhdzcTsYvEb0Yqw82WYhHC89vrvZVYTomhEZ64WHWNo8ZhjrzMrCoLhJev+9HieVGTr0n34b5p4aMtTbNum5NNmYtYMV7sx6GzwDg8zaYUZB70Lb7kegqxvDtIWNswk6jXAZERruhZOZO/Tsz8mKfRZq5UdGTlJD74Tbm0OJpK+Pua5jJHVuErXDPRji+ekF83745N5xs9Ij8bDw+jfbqUnn57Y1hM6xy3grwCJGgnmjTYz9CIaC8BJ3f1BH8i2p8IyIDp0g7mEExkQWRdmM0QGrM0SvvhNeN2eIzuqR1TvRRbJtZLaVYyThYa9kuZFmgCtMLfw5/hw43czmQjmIkddJzyhd1bxiuF2hboGbg6MeVp2MOhlcyrGXFGZRTSGgEFAIKAQUAkcZgZcm0q5gP+Q19JzoOfwRyKv/xJM3GLjyHga+8lU5l8TsRz/Hh18kcC8bwv/ypz30lvo1ck43NzNByIteNNWegoCkWXMgOu7Y972DRHnfR+2tUFYT/D2Rx1+QDEt7XLzdhuHTP8Hw4zX++J0hiMhAEH8+cPqPl2ufpH8DvJT4PO5PvqCUx9WH4xf50tY7Sv8JkTYS8/1ifibPZvPSK601Fh1yebvR9/Djs/50DV9E11ONwy05eLny3tPuVj3sXo/22r8PHYl8z5i8zu9frL1Xso6vQaIWKAQUAgoBhcARROClifR3gZXF7sbA2T/F3/TX8ScNK8YGA5xq3vWhfRf7V/tQCCgEFAIKAYWAQkAhoBBQCDwNgQNNpA3MRezpGoGrix5NBi4aJDXb085ELVcIKAQUAgoBhYBCQCGgEFAIfIcIPJVIH4ipW5JnPXNNKx/0d3hFqF0pBBQCCgGFgEJAIaAQUAg8FwLGFtNePanJciHT8mozNZd81ktFOtUOBAJ79tmzzdPseCAO9ogdxH7b7NnnsEGw97twIAbchw1cdT4KAYWAQkAh8MYgYNze3n7iwTaZj7lUKmnfycNSyIGBZYhVOxgIFJh+rsz0aGInsU+lUjkYB6aOQrOL2EbuFyHS8jqMTccZIweDWY3MGqKaQkAhoBBQCCgEjiICxqWlpSeet5CzarWqfScPyjTLdMuDU7WDgUC9zgp3UnyGZG1nZ0cNcg6GWbSjELuIfeR+yTH3cyqVOkBH93oORc7NwuqYfX19iki/HkhVLwoBhYBCQCHwBiJgHB+XssNfb0IGkklWwWMTr5PyPH0do+9zSSbD6pD0egqZcTFHtNUqpb5VOwgIiF3EPjIAtdvtLD7jPgiH9dqPQaReJpOUR1JNIaAQUAgoBBQCRxMBo9+/my/4q6ffaDRQLBY12YDTyaIOXq96aH4VpO/xs3g8ZdbAZmMxFI9HG+h8j4ejdr0PASHQIrURkimDnKfdY/s2eSPfimRFfifkOlRNIaAQUAgoBBQCRxGBZ4ob97Sd6kF5MC8NsY/YRtnn4NnnsNtGXXcH75pTR6QQUAgoBBQC3z0CKg3Hd4+52qNC4EggIBEVekkBz78quuJImFydpEJAIaAQOHIIKCJ95EyuTlgh8N0gILlKmm0d2lR+KPHHd4O52otCQCGgEFAIfLcIPFPa8dyHIvIC/pMsXxLNrxc31LPaQzmCPGi19VU2kGeh9WrfPZJ+7LoGBW+tcbkm3dE+03o0XltbV75lFUlmA5FgMvlavtPkI/ygrSefuZb+4Tr63ZW0/lotfsfPsq1Bb9C21/bH/7Q+ZB/8Xo6DvUnnTK0oKeLkCpLrgfuUbQ1Ho4ql4ClNw0xwfNg0zOW9LGu3NHzEPjpiuovt7rqaxEL64HodYqnZh0AKhnptXeKs2fUhztLlQ/vqeJ/u7fGPbKPtlt+wP7lGWmLvXeNo9nke20i/QqIrLR2aYmZ+Vk0hoBBQCCgEFAKHDYHXQqRbpW3ks5u4kTQhGgpisi/8zGqE1UIaO5k0NnIWhEI+9HV7DhuuB+Z8aiVmkFheRdPpgoUBo0G3gwQLqOR3sDU3izYzSlSaZSRnPsfSVgXpMgmYxY6zb72PiYljiDraSC4uMo1bBvA5sHr3HtaX17Fd02P4/Hs4NnkcxyI2tHLLWJqfwa/+cB8tRxix4TG88/ZF+K1GWB+mH99Zj6NUrqDl9SPoccKKMurZBXz2xRTmFjeRq3XgCvdjaGwcVy6fhoNk2rTH9A4Moq/vQIT0ZlfXUW40aQcfgl4n7BYTeXMTCWJZaZF++kPIL93ACm04G6/AM3YZJydG8fZomAfSRj65pdmn43chndykfe4iwZTirt5jGDv/A0x2OeFGFsXkAn710V1s7LRgDsTwzjuXMdgdhtu8ez7lzA5yWwk03B44PW74nRY0dpYwOz2N67dmka20obf7EegewJUr5xAL+WF9hm2E/9fJ71tNHYL8K15p1RQCCgGFgEJAIXDYEHhFIi2upjrS63OYuX0dH2Z6cf70CY1IfxWoDr1qrWYD1VoDue0tbK2vYTrh4wPWRCLN9GDtBmq1JmqNFoxmCzMeGGCkx0y2oevzUanwTlsKkLDqos5Mbxr/Sp91EhHNy2ZiOjgzieJjT9tXj+NofBYPM4u07GxhfX4BV397F96Tp9B/ahI+lx36Tg3FfApT9xdh7QqgpStjefoBsh0H6mYPLCRy4ols0yadZoHEeRnLJHz6qBXrq5vIJjK0QQXzd2doHzNi7w9ie3YJc/cWsJkrQVfcgIGZKx5EYxjvCZCYt1DJbuDGH+4iVdIh8vZbTNdng75VRHp5Husr69jcLsLMNIstuU7EA3qIDSWe40Y5h0Iqjmu/u4Wi3oHwhYtw2G0k0uKALmBlcRU75SrMsRy2ZteRSWfRbHSwNnsTNkML/dEgAtYiMttx3Lk5DV2XDdlcARvxnGabfMOIfMWLwA9HUKpvY/3GPaxsbHOg1IStUsXyUhdsJiNsURfqO5uYvz2LOzcWEbxwCcPjNvhsBhSSG9hcXcXy2jaMDpJ86653+vmkGpzxoA01Ak1W/Wgm5BDbVZ2aQkAhoBBQCBw9BF6NSJPQtht5krBb+N0v/gkfmX6IQLj30XTxYzg7aNYqKBdySGZy2I4vY3N9gx7QFkLhIEkfyVM1j2ymgEyhDiu9cz56LF30ZpaLWehMNhhtbljoSW01SmjWK2hbAzA0q2iRkGymC2jCBKvdhXDYD4vZhKNcg1Gb7icZzqzcxZ2Pfof/8//4Euf/PT3Aw8cwLgy1lUO+mMDtpSx6dB04bR3kSl4MXz6PvvERuEh8vMEoXOYadLUNErA4bs2swZbnwMU5jtDJEZxxruHD369hKlXBmQs23LqxgvhqHWMf/AiOzALa5R3cv3UfPvMkTM4aknd+jX/++RfYqAfxJ+MX0RfuwMyCP/EHcbSNQQwcP8FB2BAJtgNOpoyzczBkeIbH8/G19ea9k+u9lF7H2q3f4Bd//zkq/hG8P3wOQ9EOAm167BsJLGykkCR59ldSWNmyojt6Cu+d9eMPP/+/sPOggXuTV3AukEIqw5mg2S1YcxxweqLAyA9wMbiFzbltfPrLDzE5xkFoLotbv1mC4+0L6HK04MytYntpAQ6zEVHfELKLN3D1Nx/h738xj/dcA/D0cFbA30aKxLtU0vPzKZw7O8p7KwArZysC9JybaRtN7vEM+MV8MqQV6Y+81+Qjj9YXcv3og3qjEFAIKAQUAgqBNxKBVyDSbdRrZWzM0MuYKcIYHULIFoHL49AesI8ekh16N2s7WLp9FTevXcW9rZo2la0nOYYnho6R3srCJu5+8gdMUzKwkqujbevDhTPHcWokgOVb/4yqfQyOvis409vExvR1LC8uoeetP0MjvojNu9fw5UYJdYMb4e5+fPCjd9DLB76bJOGotg5JdL2UQ7VloZyjD5fPAt2UU1jouSdvRrOYpE1SMA+E4fQZSWhLyBd0GnGyON2ohobgpsff3MyhlphFhzbtPv82iVwMJgsHNLSZ2xDC0toM0tkqKltLKHvMsE0O4dLpY3AUDBworWN2LoU4yaCJx1FAEENDE/A3KR2otWFkyfkGtdE7pQ6KhTLzEWextBhH1+AY7D4njA/J16GzIdlnm/dNlRiUEMDY+HE07F1wVBow0H3b5oCymV6GzmeBxxnDUJcDzcqOGA0rKy3YSLrdPSOIuKiXzq1xAFmBbeI43j7bhy4OSo1G5hU3JzGFeaw8mOHsQAJl8YCP9OLY6XH0+jrQp43416k8tnYy2NiOolaxUUEyiLcuuBEhUTbXOWDiNkXKOQqFGsl0HhuciYDBjmh/N7Xvxt1BznNMG7R4Tql8GeVanTNMu7HNRkp2rPSGO6wc8D5cdujsrE5IIaAQUAgoBI4EAi/NNpu1EoqZBBbXsmiY3fQoTmCp4IWNXuT9rdWso7i9ig16NdeSFbi9ITioya2R1BWMjOjXSRBUFTvZPNIJSj4SOSSKObhdPnTJtHOFGt9iGpnWBgZtZawnslhIdBBr1ZHdimP29hyWSk4E+v1w+9wkYPSCURpwpBtJqN5AohKIIhyrYSBchc1spZRCmE8HBUozClsZOFxdMJPiVnJpLMYz1DYb0WKhOn0yT8/jCRiclM3QE63rDCHc04uRwVFYTG3qq1PYWqjB4qG8wF6Hg7MSOgqhDRYvQkE/XM4g8iTymcoadc9tNM0ueGOjiEUb9GrrYaR5dBxgVUngN+MJrBctqFsqoBgBBR5jlTMdbscApQfUSB+2vDLihaVUyeL0wh8bQS8xKVJSY+CgQk+SXc2XkF5Yp5l8vFe8iPgd2NRtY3snj9W6EbqWhwNWXuuUyxQfJFDNUjcdHcVA/zAGIm5e+1UkluIkwlaERjggMnfQINZNnwuegBfhEANAzVnUp3fQqHLfTRaN8fci0lVDYZNlv40m6Okxb/P+ymwzjmFzG6sVK6VWdVQpq9qh9Mp2bBhGDnYsnDX4piZe6EK1jkaTki0SaG22hJehvO8LumGTaSbVFAIKAYWAQkAh8IYiYBSiC71J0zA+x3Px0WnWCpxW3ljAfFKHrlAMkz0mXL/e4IO+SY2rZBeQqdsOp6lr2F57gO2iAaa+H+Bv/+oHQGYa07eu4cNtA1r0fOn5ULX5uhDy51HO17DxIIUMyVyubUdP/wk01qrU0U4jacsjVfXT+zmKkN2KbLXJIEcjicAYLpy/hPfen4S91YBV/xyuskdncvje6A0mmGUgQomErmbECqYfERgh0sm1PJILebij/TCU89hJxjGzkYDBw8wPhgK2078Dx0aohqOo32SQ4cAQfNTvitSi0yrR7nF8+o930B47h+4J7sc2y4DCDmqEskmS3DGa0TSYkWe0WYMeUkewC/2UHaRuxFHeoXdVvJA6knTKPzZWVrDS8KJpd8CFOJao+d1iYGOkuxfdLh1MoiE4VE0Ho9UJfxdLhwfCSH6xhkZONOFaDhMUMhWs3NtGx8UBiddKeY0RnUIRxVQKZTsHFs1uRKokvIY61uazyOc7CI44YDOSIFP7Xiuncf/jKcSrdvjPXEIksITmdkrTnJOrc+DKAQ8HVZU2g0oph4LNi+4eH4zZGra+WNZ0zWTj1MdXkeZAdW1jE0ttziJYdii7iqO1PMdZp/+OMirqujmp9E1NcrFIVpY6zahlheEG+TKPkwGWYc502BhcqZpCQCGgEFAIKATeVASM13/1/8Iy9ieIRCIkXs9PWorpTazc/xQf/5YP11aZQWxt3NjQIX/lx/D6g3hn2E/yZdQenhVy9ZbeRZ1zlASb07kWBlXRI+dIk/AxWLFBQhxfLHLq2IO+Y6NYnZuDucG0WXSPeunhdGSXUFpdw8cfl2DpcWNkIgyL1YPxM+fpOXVgmXrrleu/xf9260uc/sH7ODXajcEwo7aOfGuRsEpgJoFgWjm6Gvkmi3XmI1vW+ZgxpR9BmweRvlH8r6dt6AnbYW8nsHb3X7BVSOLqToMe/hB6/d0I+L2kelU8+GIGC3NbqIcnMTnah6EYvYs5kqU6ZQn0PooHWcdgNmO9DA+F6k7yJItRaCIDFzmw0oY49JCio4cvOoBLf/Xf43IgBLuHxM9cwcdXryLbKGCGqSccJrtGJA+nGQUJ6po1RGggsQ+zmGRbNdyrWzm70g09cUus3seqtR+eM+fw35xw4ubPf4v21hySKT+maxa07R70d/fAbNZT97yOuS/uIVGlbft6cPJEEN7SGtbiHNBwUCMDIQMDSBl4QDszqoD2cTBrh0FPe0jgLq0kKe/kkIxmO8be+SmDDznQ5f0ctLWwungft6ensJ4tI5BvIGx/mPKDWz+tiZwjFnDBaTVz/3IhAhuMhdjKFpVG+mmgqeUKAYWAQkAh8MYgoDcxQ4ZMs76IN1rOzsTgPx9TlR3nNO9Qd0AjTFRfat5G6W9PI62nB8xGb6ZZUp3trDADwAoW1zcRT+2gxGniZlO8aDksJXPIMVWWg4FM4m0T/XWeulGzK0RvWBP60grurBTp9TRhpJc6Xe7D4nLCFwszYJHp10oZrM8sMKsEvXQMWDzaPum960+yd0i2FMnCQY8gZwua5RQKjSrKnML3Bn0wUacqOebsASdsTHlmNOo5gJGMH1mUcjvImqyw0iZWfZXBcZ/i+me3cW92Ezq3hbmeW/SCkkC7gjAx40pjawvziwu4z+wd64speEweeCwW2MXpSELfpi66xSl+zTPKY+no+Z5yEquTXmsbNdn83Ob3TXFr73KuvRM5hH95hZK0apgQb8lu0apzRqbGgFsOdKx+N5xuG5PiUINeqlBD3qB3XmZ4KInJ51FKJZAjkG2nA8GAHTnq1e9evY6PPn2AHNfRWyjvYTBux+oigWU2m1QW8eUVzEzNY/ruEoNBDdRS2+G10UPOAdbedSKzSW1eM0LyW8xvZ+Q14WKmFxsVWzoub2j66RcwB38IbAz+ddG+bqYkkZeNXvb9OaxfoDe1qkJAIaAQUAgoBA4UAsYT7/yMWTEsWsq4FzkyX88EzlKbefyDBurJKawt3kX6mg5nTp7E28MBerqECfFBTMIWjnCaen4W5dUFfHEjj3ohQTnBFhKeEVSZvq7GAKsVkmmRa4QYmNaxlFBioFuWQWhtSw9cZPnuGlN41Udxmpk5hoIWmGt56kap4cyQ8Jnc8Pj86KWe2lSsok0XuBDpQ8/FnsdgQnRJTvUkbR3qXuvETNcow26zIOy3or6WZKq1KXy6bkG/j4SL6e6mZgvo7qKn2tfADvOfeN3M/FDawpe/+Dt8OmtG0R7Dj08mEGf8Wbvjx8TJIbiai9hYWsbvPyH+a6sw1M3w97+DANOmkYtptuiQ+Elavo64yNuSgm8TDxavobosWm0Dgs1VrCTasHeF0M9jc1oOe+4V2kbDRAzJzDaU2Uj2GvEQe71m5vy2w1gKwpZaQCYzh2smHyUbBvhtJNjZFD3KLXjcRgQ4G7Tw6w9x9ZN5fLTowk8GAyiWrLg7XcfkaR+sZsYQMOXk/S+u4zbjEwzbTGcXuQy/PUD7UD4je39I6oXRdzoNptqrM67hHpYSNTT0YUQou5GMO+myHRc48AnIVMM3NG0wy+uvyVGcEHSO0VRTCCgEFAIKAYXAoULAKDmbpQrai7JOqUCnJ0k2M6jN4I0i2NPAWxTJDvaE6b2iN+xhhzojPZKUAQxP1JknWof7mxsMaLMjOHwJI6EejPZ4qbn044PYLLbo1YznnTj/oyuw+PvgtbfppaSX2hZAX3QMH4RGMR4LwMSHvo6EIJNYw/zUXWwz9VdT54B3chTn3h1CL/tUJFquU84GeLwYuHQchv4ueBi4Br0Hsa5h+BiMFnWbYByZ4GyCjtrcz5FkRpUsyVrXpb/C2QiL5TCX8GbJgG6fF9ZWBq6+ELpJsLaKBcxP34PDU0KNecAHTw7gxNuT4CQFfntvBS2DE11jQ7j8ziQJuZtHIQzKiBClIPBysMNMFA4nZSSUEv0ZU4pcu7nMDCBZpBp6dB+/jFEWeRn0GunJPsxWZAyBwYLosUFYqXk2ddPrb2lz0BLDyWN29AcYVMgCOAbbeZzfLmF2aQULD5Lov/QehnkP9Ls4yNSH4ApG4KWexhlioOeAG4NEOpVcYlaQMjXYQ+gei6JrdBgf/JsiPry1gDhneSzMsHOG9hqnBEqbLKCFXJEQBi9OotPHAFIfc4lzpuLyiZNw6OZw8+4cdezgAGcUb711DhN9EUo9pJKiRpXlQntiMzFWwUx5ipjxRWe8ntihWqgQUAgoBBQCCoEDhoBRyjy/VOOUrRRZkK2l4pknbMQlPpU9lFtIIRV+pTUpaWy0+RDuHeNnTun6EswB7YGXAYpBdwCRoAN2RradP38KG0Vm8rA4Gc1PiYHFxY4tKFEPOr+6jYU8PdHHB6njZf5oknidkTpSfxi9/UwHVmZGACerrrEAyGB/EB5OHx9mCraL7PP8zzRjrFI3cGECelYwNLuszP9LzWqvl0FnJsoujLRNiFk0WjibZ+GVdA0VEmnv8BmMutvUOLfgFQ+om0GLnO3vO/U29MzukCmKRIODHHsEEdrDorfB2zfAoFEDMm0Hdbt+hGI9GB7gzATdkLthdCTSw71wMEuF3u9k8RErC4sYMDB4HIWylRlEcihxNqLvxHH0U9/rZjaHw21DDkQZLxAZY95mSpQNlM84WMTGRLnFBNNIBj3MpW1jphVzN8ZPHYfV58Naqo6hU6PoDlBW1abn2k0CbmPAHlPJRYaO46QlAN8Ig31pG52JBVRcEbhtTnqtmTXl1EmcaNoQoe1M3jDGx2KckWCVS+0yIpFm6rz+c/zk9rKyIQk8B8nR7mHU6wwIZtBvoUFpRmyIMQxjiHp2q1VKWfenNdFbC4F2kEhrmXSetqJarhBQCCgEFAIKgTcYgT/OVfeSJ6Lj1LGNr1Pep3fgInGWF+tOPLGNvvcTjH7lG0mz9uDTf8Ent+K4u+3D//TjHvj9fhIQHraNeYmPy+vyV7ZSHx8jYKD+2IWekxyUPGokaL5HH/iGGthAP069x9f+xQ/fPy7e7sCxi3+JY09YR1tkj6J7NIq/Hr34hDWEElOC0NfFzMn7m8xmDOPMO3ztX3wk3nOwSSIdHGS05qPGGQM2Zi183Oi1jo1e4Ovxot13btj3LeodZ/708X0LvvqWqebe++nTVqBHO+DTXvs30zmYbeW4vN7av1h7/03eaHFWC4F2MJuLBKDuEvavdaMWKAQUAgoBhYBC4I1G4LUQ6W8LARPThHVPvoefRWp4l960Y8PMQuB4SQ/6t3WQql+FgELgiQiIv1qc1vJXXqopBBQCCgGFgELgsCFwoIm0wcTp5PAAxkJ8IOuomWX0v16JLQ/bNajO5xAj8DQCrcl2tP8O8cmrU1MIKAQUAgqBQ4/AgSbSEtBostq1gKhDbwl1ggqBQ4vAbv5wTVNN8rxHrsVbLbnHZYHEW+zFVRxaGNSJKQQUAgoBhcChQ+BAE+lDh7Y6IYXAEUSgyRR/tRJzlzfazFnPok1S2ZC5zXeYqrLKTD1Cpr0O5is3s+qiZBBSTSGgEFAIKAQUAm8IAsZEIvHEQ23yQVcsstogW4uFNKQghJFZBVQ7GAjssNR2uVxm8RIpttJGqVQ6GAemjkKzi9ijWq1q9pH75zC1vUBDPUmv3c5c18/6XRD5Bj3OVeYyTxeqWmnwfLmKUrWBtXReK9YiBVqcUhioo+IfDtN1os5FIaAQUAgcBQSMy8vLTzxPIWdCBKTlWUktk8lQn6y8RU8E63tYWKvVNJJmYAq5XC7HKoOKhHwPZnjiLmVwI/YRucLevfPEFd/QhUKk5dwsrFrZ29v7TCItPFp+N9rM/V6uNbBB8lyps1w8lxdYOEk80d1+ZpXRpB1KNP2GXhLqsBUCCgGFwJFFwDg+/uSUWEIGtljyWZrD4WCZYNczH5hHFsHv6cTT6bTmhRYy42aOaBur3al2MBAQb3QqxcqDJpN273g8j5MIHowjfH1HIef4Tc3AAGGPw6Jl8ChWa6jTQ19jGXPxRAdcNvQwL7aVubClbLhqCgGFgEJAIaAQeJMQMHq9T07+LFIOkQ9IEyItZOB5Hppv0sm/yce6JxuQqXUZ5Didzjf5dA7VsYsHVmRRZrNZu3eedo+9ySctXmmZtZIB957U40nnI7GE0qwmA3xOVtNk4ZkGNdPZYgUhFn6J8OUlyTZphXt2133W/1pQ4sMVXhft3gtylL9ffb93/M86pqd9t9eXfP+6jnVvX/v73lum/ioEFAIKAYXAd4+AEj1/95irPSoEjhQCwqX1ZH52VtLsZWGYFgl4h6/+oAcREmvxRj9v00j7H7FI6V2kJs/bwzPWe0j696/xKv3uknCp8fhttd1zf529P2tQ9Dr3o/pSCCgEFAKHBYHnf4IdljNW56EQUAh8pwgIGRWC1mG+O/FM97BEvNdu0TzUZmbxEK/287YmZSFNBi5q3nDNI97W9NfcwfN28bX1JM1mu82y9zw++SfBobIPncSEvEK/0leb3ncZOMhLjl3/Auf6tQPdt0AyoWgDEp72LibPj+G+br72VnDdPeeXx/NrnaoFCgGFgELgECOgiPQhNq46NYXAt4mAyCy+qQmZLDJDR6XUQq7apGeauaNJWIW0FuuVF9Y87GUQKpeZSo/9WmslLX3eNx3Hs76X8xAPebnSpmebJc3Zr9FEQvnKvmSePc+zVt8l/oVkgUHBr+cnV6RdDQZtyrGbKyXKiBrPOsXn+k4b7DQbaPN43Tz957Hvc3WsVlIIKAQUAocYgVf6Ve8wEr/VYPYI8Y50dDAYzQxINMD4DUFDsp08uGQb0ZNKMJJq3w4C2sOR9tHmvomzTLFLk+Vt8Y5x2e77hkZuOvTOGUzUrMq6D+3SpidNbCZ9tLiNkBnyA64n9jbu2rtDjx6/q9XZJ/vQc7mZgWiyuz3ris214+FCOQ5Z3uk0mVqxqV1D4vzT6ZlLmBlITFLFUjvSw/1fh7YRstnRMNFreMkZi200nyDx0Gz28J6hUbiOFC8R8kdbcL16g/YRuxFziWMQs+kIpthMSKtgzh7REE/uQ4zFNgYD++JeWiRP4oGV+1jPe9gk9zC/e9zkWtm1v07bht/I8bRI3rS+9yz8eAt5J0tl/8lcGWuFFpazNdABvXv8/E7Oe/ckZe0XbdK7pBV83WkfBav6ix7M862/k3++9V54rVcn0bJLyedt1XfQbW0heLgyNr4womoDhYBCQCHwvAi8PJEmAaqXM5i78TvMrySxVbah99Q7mBjqwUjk2YFvteIO8tkstooWBPwexKJMf6Xat4JAs1JFPr6Jhs0BI4MS/cySIMSsVsxje3EBHbeHOX7LSM9+jsUEC2RYIhg8+wEmerzo8khGhjYy6yso5HPQeR1Yu38PGysbSNYMGD73DsaOHcNwgBkZChtYWXyADz+dQsseQvfgCN66dBpu6mItDzlZKZlCmVkbmk4XvC4HrKignlvB9ZvTmF9OIF9pwRHqxcDIKC6ePwE7SZvpyRztW8Hqu+5UvJXFRBIVGUjYnfAz8M7KAYQMXFJL8yi3CFywDxG3mXyxiPxWEp2AHzaXU8O1kX2Audl5XP1yCTWLH72jx3D24nkErTqYmhUWQdlBMl1ErZJHq57B7fur2KkbYCXGVy6dRV8kAGunjs35a5iZX8LMWgnhY5cwMTqIk33+h3CQaDPwOLm0AZ3NCmdvFyQ/TG1nFaXtB7CFjsNo8wk7/hp8QpSFvK/mitisW1Ey+Tk4+oqeWXjra2u7nb1sl/vP4GX7+Oqp7PX5uvrb3//r7lvGRHXQy99kDvS29C5HvbeX/XtW7xUCCgGFgEJgD4GXJtLVQhqJjXncmFlBKluGzuTGyv37cPDZ7/OMwWPW01O5txv+5a+0eCQb9KDls9vYXF/F9JYHoyMGEmkSb3q4xCMmL5n+FG+ZeNZEs7frgXvYGdeTH3j6zjRvmmzXEI8cl+rpvROPuJqS3MW7srOJjQeLuPq7+/CePIX+k8e0vL16fRXF/Dam7syi47WRztawMrPBanP0MlvpIb75Mew4R49yN3yWAlYXl7Cyug5dxIL4UhLZRIYezwpmbvlQregRfm8AqZlFzN6fw3omD/1OjQegw3wwhNGeALxm5iTPruP6H6aQKusQuXIFx8xW6FtFpJdnsbK0io0Es1zYHTDz+hDNp9jz0DbeC41KDsXUBq79/i5KeifC58/DSqJqJWduE5fFB8so62wIuqMwb61ja3YJt75YxsCfvI+hMWYDMZbwYGEeU/PLWM2U6EWuwUhM7U4/TKNROFFELrGKuek4Uhy41vQlZNJlFAqcuo9vw2HzolmpocdRw/0v57G4ngCzkaM+OwMnb9wIU9J5aLdycgPrs7O4dXsHwfEhXCCRNoPFmra3EL9/Gz0X+uCwep96z4lHWqQd5ZYFTUlxR8tSPfHa216XT+DzL7avPf74Yls9e+1vo0/Z4x7H3Tv5Zx/FN34rv6zyK1vv6LXZwsc7+MZN1QoKAYWAQuDIIvDSRLqUS2Fz+QFm0lYE/SFMdDkx/dkUNu02hEZGYDPqHks8hCTXWdWsXMJOoYwESfTa8hJmN7rh9fvJhTmtTK1jvlhGsdIkoXLCybRuNpLxWqVAdmchSbCDFYTpHaugSTkJzG7o2nW0qkVkWTGN9Bsmiw1erxtmTnE/VCUcTcOSqLVbTeQ25nD/84/wd//pKk79rR2WgVGMRgBjO08P8ybuzKxD7xAvtAELeT/ODfsRNhWxcPuXWPR6YPZ54fHGsby6hpv3lmDNkhAbeuGKDmLCsUFP6AIKqRrOnnfgzs1FrCxk4T87CXtuHcZiAnfvzMFjOQazq47U7Kf49S8/w1rViw+GzyIWbMNMm2/OL9LuBtj8fTgx2Q+Hy4dgKAQLGdH+cdhhMmSHMpjyDono9Mf4r//lE5Q9g3h38CQGIh3421Ve40nO8myhbvFxAETslm7h2ofX8J//cQl/OXQc/v4guiw53F+IYyUHuAePI1RdQ5ODo/tX7yIWdkBn5iBlcxHzHOiusDx3PWDH8Z4BeFJJJKenMEXy3C7lYe6v49atLDo2N45d6EXi7n0ObiyY57Uy7q4jOXsHn//8H/BPNxw49RdmnPjzi3Dpashtp7BydxWB8SocwadbRzhekwPdOu/ZOmc+hEjvejqfvs3Lf0N5Gcm6SIP0HIi/1GjsNZHSPzqHb6NP2cFr7neXl8uMgcwl8DeEvyP7m3yvnBT7EVHvFQIKAYUAOdXLguAK9GD0jAP/YbBOsptEMbmKWsFATxsJLR9ie84SCinRaRawfPcqbn32Ka6v5FGi19ls88Dg7aYnu4NqMYmpz36P23NLeJCuQe8ZxuVzJ3B6OIClm/+EmnMczv63cSrWxObMNXowFxC99DO0EgvYuvMZPl/cQVXPVFq9Q/iTn76PvrAfbhZ7OKqtTc1rvZhFrsTy4SYfCeoJdJOgmmvMRMBnY6u0jVYtDV1vGMZKHG6rAwODP8XJMReizUVg4wvkGRi2lshjorUAHSvPRc+9jXfPxmC1cqBiaMFp2EIuP4VMlpKD+APk7GbYJsbx7g8uw14IYHNjAx/Ob2EjGYS+ZkSuaEK0awC2lg/2WgcGep1FTp0pmanLtdFD6qZW3gaPP8zBVRBmjoQO5WCI5KRZLaHEAWW6YEJv/wgajm7YOIDUt0hfapRhZJehCzo5I+CCrVxEoWWC3RvF6XEL/BKH0OBsjzmMK+/+GU6y+EuLBHXhyw3EOdBpGYgnJSGtepHBcwk4jl3ABV8Ux/okUwZnH2iruL2J6bIRjVICqe0dWI/z+ujuxdsnXEjot7DEILbbi5sczJY5yNWRzE9iZKuOLicJOoesuk4BZcpytyth1NsWUq5dvfuT7jfRzN+bWcXSNuc9WAJcGxw9+nF40hYvt6ylzWQZEOnrQag7yuvIR1z42/MVMvhyvR+NrfbMIgRaSrhnChXadrcZqMG3MOOKvP5YP380sFFnqRBQCCgEnobAS7NNk5U6V5MVbm+Znkh6xpJxFPUNNAz86eX0PLBb8azVrKOUXMbGOqeI01UEo/RCN8qo82FdYORRSydBThUWfykgxzLkO1vUdS7XEfAFNO10g6WWs5Ussu11DFqrJGY7eJDQoavN5ZubmLuziI2iA8F+J0LhAAkYpyc1+cfTTvkILBdvLgmXK9iFSE8NfYEanGYL9BJpxlbYymgvqyvAFGR1zXsd315A3OJFrZ0kua3zRRKVyiCdXiVx6kMw1oOh/mHmAuYsQTGDxGINFtneyr45UAK92ga3F+FwCC43Pd7U5aYr68jV2ug2e+DvHUMs0oKVgy0jD0NPjX21UkR8jR5v6uub9iJ0zSwy5QqzOTRIrPs5q/EVedBhMB3ZigRUWl1+BIlJT7hFEYYThqZIHjiozBeRWVijvsOjFXPxuTiT0N2Hru4GUp4WbBxd6Fr0vBrsHJjYUS8kaMsEvixksVMzwRo0kuo2UMzmkFrehudkGL3DozgWJcFu5LGeMKFcd8IXCMBhzqBdy8HEOAV3VxThoBWGLi+WNtpY3Mrh0igLpsS6qHkH1q6vwcWZHi2AUe7H7W0srmVwhQOupzfe35RmpdMFbMWzWiEWTab19A1e+hsJuhRvtMPtgi8Y2E1dx9+WR0zwpXs+QhsKk+a9KT+fpWqdAz3+BsgcgjYY4TXHay/8sIDOEUJFnapCQCGgEHgmAsY6o/GNJLR72Ryeufa+LyXHKqkTdA3qbbMZxOMJNNz0cllInIuUWriowyARavH71NoDRu4zC0H4Av72b34MpKcw/eXn+H1Gj2ZbIs4ZgmQJIRgQ75oeKU4151IF7DRZCS02jsp6gzKSWWw78kiW3SjYzyBoNyFDD2suTx1p9AQuXDzDAKoR2PkUMB1xIq03miin8NEL7WTeWjPWf/Ng3wOxjdSGDFbycAUG0BOil5JSjNQ//wOuzgZhM+lRyTOtVqQEYzaN1fUk9LFeBHrszAFs4uwCJQMbW7j5mynUuikpGHQjYl3kdh3k+KCV5A4dknjxjObrbdTF2xzsRv9IFOlbSZJwBi2KkFVHr3mVAY9xeiuLDEQzWuiJpQRobRUDJIHhaA8iLh2c7PNwNUqerAws7LbDHQxj+8tNbOb2NOHUEzPeYGWaQYVmF9wxJwLRMLFwo75ZxwqWeMfJpLs0BmJyGFxnUGE5u4k0ZyAKOhesngZKzTyqmztYmy1j/JIJYR8zcXRIrtNxrK9uY3rdwNmHmBaU2EnM8DaVkc3utL2JOvV6h97yfBX2rhH0dnfgS5tw25bgAIjrkRiLJCS3ncB6PI5qvfbweJ5ipd2D1daRtzIj8nDRUzZ4ucV7fe6KErifl+vmiG+1i5pgWKMcR7Tt0pocgEvQaJlBFFI8RypRqqYQUAgoBBQCuwgYv1zYxmSvD25Ozb9I2/NS6JgtYOjEu3D6Ypj65L9gMR/HhzNJdHl74LAwmwOfcMUqp7P1AVjc/ZR9WGCwMeuALwxPnh40kt52o478RpE6agPsPk7913PolEjC2ib4Q34+1FexsBnHZ58wD2vXSQyNd8FC/egIJQv6RhtzK+uY+vhXuHvrFi588D5ODEXRb32Rszms60r40G56NbJXcQPzcw6rVR2WWn5iO4TIgBnOTlTzcqaLZpSY5aNRZBo7JpJtMXr/i3IQ3Y4u9DJbhE5fx7Jk2JjawJauD6cHKe/po5RnhzakR5UxSlqAqY6ZOYwcQLmZcsPBiQmTuKDpJdVIjkbGxFOohyfah3M/+/c4GwpTumBHwFTBJ9euIssME/e2KrAa7XAKWzyUTWwj3lz5S9tw6hwM+0wzQ8Y9DizMAz3EhNIb7ds9O/LDXiOOFFnwnupC1+T7+OtgFF/cm8dHNz9HwLaDCjPiLHku4aLLi4ChxCwbW/jsV1NIV80Yf+8tjI91wbCTwsYqU+jxXukwFaXc0/VSASbGLATdDt6rpO0k4JKij29296zj4JmZXUYu/BB/7r7ImYrYM3SzHcpTDBgdZsAkBw1VndyU4uN8/U2CkiWVppeedhslLCLr+FYY++s/9APTo9yf0kS6EWGGnoHgbjYlMX2egakPOJMlPyOqKQQUAgoBhcBjBIwWZrl4UW+0bF7kgzm9TW9ajR5Hq5WEyUoiTE2dgVOs9EjuBaVI1TCbjcGCYOYApjrbYKYOXT6BRCrLKfwoPR0ShNjAAjMK2JjmKxQ0cUqf3soaMwwwHZo5EuYU9CK3WcaXmwx2iphwqc8DOW6dl1KCoT7Sjyq2b61idX4Z6/0nSfp8TBNm/1Ye2I+hexPe8dEoFduYXk0nXIje/xblFAUGbFbotfYHvbR9HhUS36o9Sk9TB458AfEkp8e5XcNcxRo9xYOSlk3H9zdv4MbnlNKk2vAx1ZrNJllSSADdQRjLq6inElhaW4MluYSttRSD0lwMNrTQfuSJPABJ6yYEh1JgvuexUApUtejgZio8t9MGZ7uIDgdVjTrZN5/Y3w7lOkB2k0GkYCJSDcGkUUClVkCaAA36PHAycHaXt3Aw9NCObWqWO606M24kMbuaYOpCPZxOBoaS7JoYj9BmUF95O46aqZcaeEpxmBM4uzSH6au3Mb1Sp5e5hzEENuab5riK96zV7keNgY1p6pfXHB4s3Usyw4aP5JcDWqYuBNPjacHAYjceq5DtFr3QTR5wy8dEeCTKDzOCPxFYIWXhEDOEeKwoG3nva1bdJWxP3OAlF+71aJLc5hx8ScGX3aaY3wtBqjFlHbPHGOlc2fU8S+aVBm3/Ms+JF9q3WlkhoBBQCLyBCBhHujywyQPzhVoHhcwGHtz/DJ9sOZib2IUBFz3D2024ONU/3hfkQ1g00pzGpq4yyAepe2EBtc07uD/NH+VcnPKANWQcY6iRFNSYCmyZ2tgenwMjPpJyDx/SIJEuVwFbhNP7gJ3EYaU0hBPUZg9RjmCmxCAvpIEeMifJQWSzzGDHLOUBJQZR7U43q0foY6NqCglm8mjm6VXiwMPmNCMSZCKz9CbiG8u4uWnDZLRFHSzTE25Tbx7Tw+poI0m5jsdrgpHBidMf/hLXp/Uo27vxk7dqyBco6THTczXUT530CtqUZVy/xeCzlQXmlWYGitB5BJh9xcnnsWYLkrBd0kWDktRX2edGYgrr+RLTufE6aS5ji2nw9Aw4jHnMsIvg/ZA3oXvCXXScLZAMNO1GEQamnfMFGH/g+coUOlcWfbWQ23opjZu3P0WCWTt8wQG4CnMMLmUMQpgzQe0SvbLsNBKl5CaPpWu38Yv/9K8wnbuIQRuvgRJT4mUMcOsd8HFWov3RPDZTcdzUhzB7IwvvQBinmRnEKbn49hU82bUh5TflLNIZCk0SZVyo93Ad91OtJBIwFwdJ3o6bBJezGpof/amrv/IX4pmWl+To3r3onr9LOb89+v38W73omq9rD5o19u381fvVeuB/8nd3AkLeUecugyfiqX2/b4/qrUJAIaAQUAhwFk+8Ti/uadBRuzmACQaMpTMfMuftPXxUY6BS9BLGR8/iXI94IXd/6PVGFnHoOoHBkRq92GXcuXUdTZIvT3ASZxiYNtjlZ4CQB1fcN7G+ncN1esNGLo3DHAjDp69QE0oJgDOI0d4RvB8axljMD6ppWREii9W5m7j6xS1s5ejFpPfTP9KPsz8YRl+vPLBVE+GrhcVPuk8MwzAQhNdtoWfJQs0syZbHxkIfLJZi64WRmtrY1O8xu0y8mUFi6Gd/ikEGkVqolW3rutDtccPWTgMOaiRd1LwzCOmjX8cp5xnB6MQkgkPncOLKCNMWlvHPn39CfbQLsUFm8PhAskF4OBsh1jDA19eFOtMWmoMW2O0uOAxt/OjUED6+9gDTyxnmsWYQ6em3MXnyNEb9zFTx8Bo6nJbkkEJvQnAgBkOFBVRCdgZzNTm7E+RAVK9Nq/ttgpvQFyOcQT/6zo7Ay2JHLtrUQi/+OxMbzO88g2uffohGx4jwyDGcefcCwql5Ft8JosmiKg7JDk2vtKPfhFyOON+IY2POjeEzH+D0BO/h4TO4eDmJu3OL+OTjVXiGTqHn7HEOqjjTpFXSoYeXeaL7TvTDGgvBZuCMUXgCY5UG7O278Jv3yVOeYCgJUPPYTJxdanJgnNWuhFchZLvSAmKnvSG522V8j/asXWlfWfboy294szeLJqt9td9v2PSZX+/1q1V0fZWT37cX6VNee4T3dR2vgQGaNtrUJGJ21RQCCgGFgELgGxEwGqRm70s0i93DIL9hnDqRZqqpDLarFlY9O45jgzH47fSaPWziQTOx8lmkf5x6aabFCzCQiinUPCEGO3nC6CYxsFvcOH/5PKJFZvKwuJhlgh5QK6eBScJLW7OYX0xgLuVA//FB5sgNsswwPZXUz/oYxDY4WoOvzIBJB7Mg0DM91BeAh1qClzurvaM+LH+Zn9njweClCei9PuppbczPrEdvnw9NnZnV8ST3NqvSdQ3izMkMNph6EA7qX08NIsQCHkZmV5EsEEFKDPQcuwycfg/orjGanxICeqgsjiii3WFYDfQ49g2KuxSptgttG/NRx/ow3B9gGkKZ+peHMoPeRli8I1qHgdpLh8NGUhZA78BxHC+StHl3tKId/SdOYGCgm8fGa+VQG5EFhxiQGR0fhJdcVM8Ug6IHN5s5M2CNIOzlfaHdRgICZwUYdDj2LqfcOZAUD6+euHb3jDH7DQudIMiCK04WQRzAyMgA7ByEGNgPxdIc+wTQNTSJd//chgIzqNQ5WNH22x2An/IRGwvyjJ46yZSTPrgSFQSZz3q4v4fk9+E93GG5eFsAo5c4u8TgVQdtbGLqymCEqQyNbVgYnPh0M3EbSju6KQExc1DgLFMewLPZnZV4uXtMlOHicZay8qKJlpzRD9nky3UoW2mElHEczPwh15z0q5ffmFdsGhXVvLm7GnOTmZlTXkO/clgtzi5JRhRpgoFBZipesUk0hQx63fxrFa2RagoBhYBCQCHwjQi8qKbjcYc6E72dLMRy+WeYeLz0Ke/olYr0aa9jl5+8yuSP/wKTX/lKqicuXv8YN6bXcXfTgX/3I2aPYH5YvZ6HbQ+T8Mnrna9spT4+RoBE2u1G/7n9U+9uOAKP16B2Bp7wCC7+mK/9i+nLlPZ4VScm3/m3X7PRo01cMfROxvC3k28/WvT4zS4ZDLF8fOjxQr7jNRScwMUP+Pqj5Ufhw65HOjzat+9kWeGTLdS9b5H21gR3JKS99n9j8Y9gXF4X9i/le//YvgUxatz5OvH0+yQ6ehHyeuIaOhJpqwXD5/dKhu92bfD1wsKA4nqdGupneIA5UmeVRCeiDGbMl+sakRYq/bJNCGSdOvpCvkydN2ctqOOVQd2u5/7lehXPruROLhYr2uycmWXaTcxeo7HqV+STQvqrTCUnf30+lyZ1e7mj/OOtKhXm5a5VOXbl4MrK+4jpLV+1iXhD0pVWOeNkfTg+OdyD2VdFTG2vEFAIKATE1XWAm9FiR3jwLH7opAykwcps4yH4nQf6kA8wmurQFAKvDwEhz88i0Ht72l1Hx1knMwPYZKbo5Um09CkVO2uskmpgkLKFgaxuZhdpM9DyVRS84iVuMZjT2Kpq3mgrg6etHDxIoPTznOPeuX7tL0m49FuihEnK3gcZtCvk/3W0ErupVjra8doYh2C1cgbiFZuMGWrVCgvtFLQxxCt2pzZXCCgEFAJHAoEDzUol+4crSIkA1QciRfBSDqCqah2J61Kd5BuAwIuQTPFMi2TiVRt5NImzSBl2ZSMmZu9pizSD/162CZHWUyUhvy1yjCZmotGOV4j0K/QrkhORRBnlvJmhxUI5juk1pXNs1AzMnCLHa2CKQcY6vKZKrp2WiDtksPNqA56XtYXaTiGgEFAIvGkIPJNI7wazvPwD6lXBEH21xUlt76t2dEi3F/uodrARUDbatc+LkO5nWVQkGJJBQtQc8nf3/fN5x5/Wb1tSMz7sS4izpM3W+pWcka/Q5Jy149X+vrqUe/+hSL+CgZD114Xt/v7Ve4WAQkAhoBB4PgS+0UUkRECRgecD8/tYS9nn+0D9m/d52O0i5/c6PMzfjKRaQyGgEFAIKAQUAgcXAePm5uYTj04i2PP5vEai5X2tVtuNkH/i2mrhd43Azg6r1zHgSIK9GqyGJ7pO1Q4GAuUyc6AXClpgmdhHXoexSbYIO/W5kiteNYWAQkAhoBBQCBxFBIzr6+tPPG+ZLhRCIK1UKjEHbU55pp+I1PezUAY2QqCFzBSLLOLBv6odDARk4Fmt7gauiW3k3jlsTTzSZgYP9vT0KCJ92IyrzkchoBBQCCgEnhsB4+jo6BNXFpKWSCQ0/Z3DwRLOTKOmPE9PhOp7WZhOpzUCLZ5osY3N9upR+9/LiRzCncrAM5VKPUzPZoeXpewPW5OBtpDp15WF4rDho85HIaAQUAgoBI4GAkYhYU9qMh0t8gFpMn3rYhlw9dB8ElLfzzKZLZDBjhBop5OFMjjYUe3gICDSDrlf9gahB+fIXs+RaIF0zI3cYlo31RQCCgGFgEJAIXBUEWBmpifHG4pUQDxO0mSd/0FXaQAAQABJREFUvddRBeqgnbfYQ+yz93qaHQ/acR+F49mzzf6/h+289zJFSKGRvfeH7RzV+SgEFAIKAYWAQuCbEHgyi/6mrdT3CgGFgEJAIaAQUAgoBBQCCoEjjoAi0kf8AlCnrxBQCCgEFAIKAYWAQkAh8HIIvFLeqg6rdTUbkj2iiaZUBjNbWRXMCJPh2YVCOpwOlinhFgsKGChRMLBCl2rfEgJSuIE61o4mAxGJzq5txAatZoO6HVYyExtwubYe1wcL4ei19XePqc0sFG3amhujSe18i5/FdkYL7U0dsEn67PAa4HVQqdbR4fYSmColnOWrvauhI6Wc2b8cixyHVo+uLSWfG2g0W1pRDL3BCCP7tEg56X3bfkvofO/ddsQ2PAqG7u1iIifN1qL+XZaLfcQ2UhlPw08kPfws9pHWZglqsY/YRuyn2UdMaKRdaB+jrAtuS5zFNk1W8dCxT6vVrFXv2+1Fupd1+GK/Uhpb7CPbNHkcddqnJdeFjtcF7WNhuW/tmLQjUP8pBBQCCgGFgELg6CLwCkS6w4d2GfEHNzC/FMdGtoPYiSsY6evCQODZGSRqlQKKuR2kyxZmNHAiEnQeXQt8y2feqtVRYYaPuomklkGjbodVI2H1cgmZtSW0XGFYvAEEHCZUM1mmbSMR9vngINGysvyyULxcchPlUgE6twPxmWnE1+JI1owYOnMJwyMj6HXzMqpsI76yhI+vzqBpDyHaN4AL5ybhNLGE8UO2VmMauCqPp26xwe20wYwamsUN3L0zj6W1JHLVFhyBbvQODOHMqWOwcUBm3GN63zJO30f3MqioMqC32mihYbbB47LBwnLPHZLjXHwVlZYOLW83Qi4S12oZ5XQWLbcLFtrRSfuIbSq8j3Y2N2gbF3LpBO0zha2KDs7uEQyfvogBnxkOFFDLbeCTz/ldrgWTL4rz508iFvLD/jBrYpM5yau5PKq8Tix22sduRqu8hdXFRdybWkC23ILO6oEnHMPZM8cR9rthOcS2+T6uB7VPhYBCQCGgEHjzEDDKw3wvqPBFDr9e2kGWD/ubn01hI5ND2WRF+fY9mEgCvM4ROMmenkSCZH+VQhqJtRVMJ9wYHoo9ItLynbjhxOP2Ik3b7uEGL3MuL7KvN2nd6s4m4otL+OKjaXgmT6DvxDicNhJqfRWFXBJ3rk/BM2FAkN5LXXIDt64+QKZqwMhPfsDBEL2WBnqh2wWszD/A6toGEDIhvrxNYp2FrlNBsWFDPteG791+pKfnMTc1i4UtfqfPs4BPHW6PDyOxALyWFqrZDdz4eBqpsg7RS5cwZjTDxb6zi1NYmFvGUqIIk8OOjtWLCrcVP614aQ9ra1ZyKGU28MXv76OodyB87hyO0dNrMbFEdauIhZkFlHRWBE6FYN5axxYxun1jBQM/fAeDo30k0ibapoj01hpuf34HCJqRLRSxuZwkahUYdmqIp+nZf38IzloK8ZtfYm4lhXS1CRsJucfjAf3LGAi7UM/F8eDePO7dWkHg7AUMjrB/ix6FzRWszs9ianYNBrsTNo8BJlcVjYde9MNqG3VeCgGFgEJAIaAQeF4EjMntNBwuepcsD6fon3PLSjaJrfl7uH03DYPHhu4hD9JL9xF38uHf348hj4lT9HtEqI1GrYpqhV61agNJkuiVxXlMrXfD6fJoU8j1aoVTzzXUGm0Y6BWz2awkFXpuV6JUwMypanow6fhs1Su7hUisTPfW4pRzrYIS+2yTFBjNFqaCc1BaItKE5zyRw7gaByTi1cwnljB7/RP8f//3Z5j4N5Rh9A1hOExJRquAPEn2zak1HAv3kSCZUJ77HL/9r3cQr/vw3168hLDHCX+7hnY1juWlZdyaWoKlByjW/TBb3Ri0lnCXxDmXbuDsWQembi9gYXYThsFeWIspNNLruHc/CI+FHmlXA5nFL/HRv3yCtbITbw2cRFfADVONxG9uHolkhb5pO3q7YnAFQvBx30aRGBxG2/CcxDaV/DYS8zfwm19+hKKzF5d6J9EXbMFv4yCivo25pTXUzD44J2tIr03h5sdf4O//YR5/1jcCT28P+kTq0chgO7GGG7cWYI7Ru21ykHz7MeLaRja5hXs3P8XEKMl0YRt3SNjzsRhtp4Otto2VB0uwcWYg4jWjuDmPO5/+Af/wj/dx3t4NR4SzSl4jMutr2FpPIlXUYeT/Z+89m+S60jSxJ733WWnKO1QVXMGDnqCZZnOmu2darZnQrmY2YveDfoK+6h9IEdrQhlYKfVDMSDsz2tnpnu0mu9ndJOgNCA8UqgCU9ya996nnvVkJgEWALFQlSVThHiArb15z7jnve8xz3vOadj/8oSA8PjcsRgN7m5pUCqgUUCmgUkClgEoB/f/yv/2fePknf4Wjw73odlPKta1UR4ZAIEIw5jrxAqXKnTjeVces6S0sIYWrMwkED3pgpa4rUQMlZzksjn1B6fVH+OxuBNmaBia7D0ZXO3TcoS5mo7hz4T1cHJvC2EoOpsAInufW84lBH6YuvYWicwTO3hdwJFylZO4LzM9Oou30T1Fbm8L69U/wwfgG8joXQj1D+PGfvYaegBdOqhQ8ralWKaGYiSMaTSFb1KG7dwA+qwuGUo2SZLIjH6E+LSNV9vfCaNJDm0khWgQlyG3Q1v0wVSgLpi5tjao71eg01Quc8B17Hi8cD8HMfEz6OuzaDWj++QbiiShiS3ewTqm2aegwXv/Rs7BmprCyvIzzkwtYXHWintUhvpaF3dmGDocPlpIGOupLl6paqvfY4PKH4XMHMDzUAV+wDW4PA8xwJbQvF0Nc5JSp2pSkVHhxJQsP6+5whGEqcCnIrlIvZVBLLlD6T37pnLDlkkikGWJcb8dAdx9ceuo9i0EC+1UttYyKrgzN8ChOH29HOOhjf2LwJH0cty/cRmljDKXYPJJUHYmFuvDMqy+i01uHNjaF8xNprHAXYnHVjvRSkgtRC/oGhuDUWmEok/dsJ8k8VUrMIZ53kzddCHcSSPt9cFH1Q1HX4T1qUimgUkClgEoBlQJPMwX03cMH4KaipBE0WML2gXSlSrBWKcDc5ocn3I5ggLq4IQdmozXMriVRHJRALwYaQhWR3ZjGIqVbi7ESJdeDlDJnUMgVkaYObJnvrVQyiMRzBOcZlNIJLG/cocSyDZ3MT4ydEhsJJGuL6DUVsLSewuSqDkFKS2MrK7h9cx6RrANtvUF09YQJwGhoRYkfzRifXr6K8SCl+q5gJ9p7SugeL3NhQeM9sRBkSq9uILWyDqM1wKiIdvj81M3VjaDzFhBL0riN5BMgXczkEBmfJujugr+9HX0EclaLEWWCu+jsAkwOLyXORdirKYCqAFq7G4FgEA5XBhmCxUh2EclSHe1U12jrPYjOSSCaojEhcaCGfC/kUliam8OdvIV61RFKaZfg7emjjnQvDvf3UEeb9dhvYmnWR6szwOr2I9R/EF1TXJRqbNARHGsIsoupNGJTczQsZJAdlw0eN3WiSffUSgUbE4S7NPgTS08xMozNLSMXy8DR1ovOjl70tntouKtBYi5KdS1GvOzphcNI4M57y9ShdrOvhoN83pJGYSKFEndyMjUz7ME+tHdUFL1sKw0RtTQ6rFUpCV9dwfT0MmaKNvZZStCjXOh09uDIYD/8LJvsGqhJpYBKAZUCKgVUCjzNFNCfe/1VOOlxwaqlBwdKpbabFEhG0KqjaIpzL9GBljqudhSjlD5m8qhQ4kixGUEyJ+Qlbt/HqVvpOYSf/9WbqK3fosrBZ/gkRS8Q9RKlX9SbrrkoiQzjANU44pdiSERSiJcM8AV6kVmuY232DjZsaaylLUjoD8Jn1lGKSqOstBmB9kMYPX4EJ0/0wcEy6QkEnuYkQM1o96Cdai66ihFLH8xSPYaEIZ2JwhBZTmBjLk6Vng7qyroR7AqgvcuLlU+jqKQpqZbb6lXk0lncvbGGWnsnfC4H9autQCWLxPIqxj69i7JrEP5u6vca52BlO0hRFUeWMNSxQYWfNMFhSWuB1d+OnsEgotdjqFI3uIG/CO4ofU1sEKjFNEjWdUgtU69+bgFDiQwBeScCNg13NfYbWGMdqZbkbe+G09+G6JV1LCdJcIXmBNWJLBZur6KuZ1vu5H2BNgQCdpRXy1g0LHBpKvQgkKbHlaWZKJKJKvxdDrioXy7Gf/lkDLPXpxFNauE5cgIBN6XW8QQ0VLGRXlETzxtcZBXq9P4hC12TiyCa0u9UlfxZQ1XZBqAnEEq8M0kakC7N4VZCi3xCD/u8j0aM/bBywWRmW/CYhNlqUimgUkClgEoBlQJPLwX0/+///ncYOPk8Th0dwImHRwt/BHVk8ueHrrKUDyfeCvWZTRonPDYLXWvxPFONks1UllIxXQAWTw+9BFgouXQRIFO6lTPCWufsT/RVj2VRTBeRK1VRjedRSlVQqhnhD/gRzy5hdn0RFz/nFnTbIfSMdFLX04fegUEUz8QxNn0HV99bwNhYD5595WUc6rWgc/trgkfUbz+cFoO9hqtBkQE3EHIa81S1mClwi76vl7roDuq7CoojeOI/xcCPLs5QzyBJvfaLyQA6+tvh93jJ5ioWxrgI4i7ARMSDk0c7MNJHlY7YDDUNGsaBIkHWcLdCT4mmg9amFm5yGHSSf4XNhW/gR1H3Id+dbZ048vpf4VAgDKvHhqAlh0+++JweItZwfSWPUx1WAmlZpe3HtElz0qMufUAWOpqCYgx4PU71it4u2JxBZY+IjgkbfJT+JvfJPg713G/LorJuR2+wS3FJF19ewvSVq7gxSYPfnm68+mw3vKkIViPCWWZP5nDpSvWRAnduqty1AMxcqGg1m7yRBajwh0lvsKD3xKv42cFX8VNfEGHquS/OjuH6+C3MRNJweMrwhMRziJpUCqgUUCmgUkClwNNLAa02uYKFm0tYnU9yeuY8ui1aaGDkRGvR25CaXkRkdoYGY6uYHIuLIwH0hymx2tRRFi8aFqIpPS8UqfsZiUWwTndskVgMKfoOLlbodisXw504fQlT/7aXoM1hIijnZJ+hWoDJHYLNQGPC+BS+uJtCpmrEgR4P9XT1cLUF0XP0MA4f7YfbUENichbzkzS0iuW3WY9tVXYP3yRGh+Ivmn6gBSNx56FWiJGGNOykcak76KXOs1mRcQrna9xFqPIjfqCrBbpCy8eRoAGnmSDXoi1i8Rr13C/eweRiFv4+6st62AboPUJDNQVtuowiDdMW19cxfWce6zMR2AnyXPQHbaWoVEMxt/g5rlFKLYureo0+jbkbkSUWM1HtwEs9bK+ZpC5TZShPI0eWaj977VAaFYGxQhMyR/pdrZxBvpxGlKoYZo8LdpfzHm8afBRJMenCPlPJrNEagc/ZrfD7rEgt3sH4pev47MsVgDtDvqCbah2UfnPRqq1RXWOJfW5lDbPsr7Pjc9TD1nD3xgyPlfdwoSOqIlX2xyp5U6P/6Hq9SLsDrnDpptDt88Nr5y4HR4g8d5ukjQh/1KRSQKWASgGVAioFnnYK6Du9errJ4gROKbBoSYtm8bdPkdxyt7rhpg/iwrVJLJXWYaYe5dh4Hm1HrDjURct+GrFJThKYw+sjKDDMoRyZxJ1JM8oE1OtLK0gah6m/SU8d+RSmKY3u97vR0WOhFJr6vHqCrHwJGqsfNhbKnCdAS/ZihMZUAwHq9Nbo6YFSbw1drIWHBrCxQXdskXUUKC0rZooKMPn2eux/9stCRstdA5FGaiRoSjZGqWYRZiel/W1WLnKET8J5covb+lrSVALkVPMZekRJw+wz0lODCYZqHFOf/RFXbtSQt4TxJy9q6eKOuu1JI8LhLlirC6ivLNOTxy1oqIZTipfgsx+BlyoHdoJl4YWURd4hAWCIqFGqpBCjHnV6UY/EuoGqPHOIRAsEb20I0neySEv3dZLqkRYK3UmXmhgaVrOgNgzcfiscbllZSOKNwkfeq6XeeF2CIKXoLcdch5X88bm1WL96GTcuTuHLOyb8ycE6DOYSVhYjCLe76f2GC5pYAvO3J7GqyRNUz1HkPASfxQ0vgTQ1chR1G6WNCH8Ik2vVAlKFdaynI/TaQV1qLGBhYQ25CtVIrNS/N4tkXE0qBVQKqBRQKaBS4OmmgH48XsXZ145geJQeHEiL7UIXO3VYu0arOLT0Nm7SF/DNO3q09b+AUfoqHiI4N3NbX5K4rXN1jqJvI8fAEWv47J3foGKi4VOgC4MB6mfSAMpKCdox3ceYn5jHbyM+BA7Si4HfBmOZ+rS1Nvicfhzu7UM00I/hTh/MAvwIrCcuf4qPPruIlRgDe2jpWaKnH8de6KeXCqohKG9/2v9Qb91igY++unVhFxxWPRct1J21tBFoWdHh0m/qIAu1DHCF/AjSDZ2HiuZ1evvQw4GRdhe39e0w1jeQzi8iS08eC5E5/PLvr8PuHcbw0WP46X9zBkfP9DCKXhT/8st/QlXvQtfAYbz22nG083kDQaAs0Rz0KuGvmWB0Uh2EwT3sugqeH/Dg/U++wMUpGhuWteg6dQ5HT57CIfqstgrC27eJgFWjhzvsR9XFHR43FY65ODSxHffSeLDba1VAbmOPSEsXhQ4ED1BXndJnE8F0gR41Ojx0H0mjXDd9Ty/SGDBTnEWaqlHvvzuPy5c74AmO4Kd/+RzaB3vw+hur+NWnX2CWfcXsDOHcG8M4cJgGnQKiqfBhZv5tve2ot9lht7HvcSfiSKcfFy9ewyfnz1PlCnD0HMLA83+Cwz0hhO1sI4rO/b5lkFoxlQIqBVQKqBRQKfCtFNC//Mo5HBztRkeQhmnfevv9G/Qmutlq68KRs2dgC/dgjb5mgwOjGKT3DNsDkkSNhIum14ZQ7whGawR2YbpeMzmpltFOA7aQ4pnDanHimZeeR2emgqzZjk76sNVTWqbjO/Lrd3B3chUTaxZ0HexFuM1HwMaSGh3wh3tx6Ggd4WyNho4e+EIdGOyh7i+j9KlAWnilo3cIN8HPUWgZrdDsJgijVLOnz4OKxkRjMXprUbCq/DGh/SDdq3WXYSeoM5YCsJH+xxiYpc3L4B3c5R84/SfQdpcoRRalC0o9rWGEu6jfrGe+3QM8o0NM50PV7EGgoweDNGB0WXTKvRSBIjjUC1t7CbqAk2DNwoAvPnT2HMVoxk6PEgzqQ534rkOj6O0Lw8mCKfj7fpPbZ0eULtP3Y/jgANxcF+p8DtaZ4beNVozS5VzQ49iMOthY5HjaQxh5RQtrj5e7CFz20I36kIVuJG28j3rkHUOncMYcRttRRiAkpfRGuhB0so/RT7vbTiny6EmcqTrRk65CTzeHR4Y7ESRYJ5V5t46LqAAGniVXPew/XjsXwAb6jR7AyCEGGNf6kK0Y4KShYRfLG2Y7koVyTfSF1KRSQKWASgGVAioFnmIK6P/yL/5sh9UnCCPYPXDiNX6+LQstJW/UY+bn8AsPv3f0jZ9hdMulYjaOhWuXaUy4hhvrVvz5K900evNwi5vqCJSqHmDUtwOjL255Sv15nwI6SjLd6D/rvn8KlAT7HvipHDaAdHik54ELIeWY8Vs2kwNHz/1rHG3+3Prt7mIQD35GX9p6hb8bYDDIiHzBr1yl7nzoKJ6Tz1fOPw0/RMXFiNBI3wOVdSjHgc4HTimH3C0IB5TP/StcpNz/gb5jr/PzwImth1Yv3uh61A06OOm/Wz4PJrOnDyOn5PPg2caxKo3+Ok3UMyoFVAqoFFAp8PRR4Il2iaCTMNJU5zj1En0YV6j+cTBA/7Wqp4Cnr5mqNVYpoFJApYBKAZUCKgVUCjx5FHiigbRWgLS/m+HG6+iiKoKfW8pG6oeqSaWASgGVAioFVAqoFFApoFJApcAPTYFvBNLiZYEWRcrG/A9R0EYEuADN39T0MAoo/HnYBfXcD06BJm+a3z94gb6DAuznun0H5FKzVCmgUkClgEqBfUiBbwfSBNPidktNTxYFBMTIR3ijAponjzeKq7p9zBu1zT1ZbU4tjUoBlQIqBVQK/DAU0C8tLT30zVUGz0gmk8q1cok+nXM5+hd+HL8eD81WPdkiCghv8nn60i7SDzc/JpMar7lFpN11NoVCQek74kNdeCN82m+puYiz2+2Kr/j9Vj+1PioFVAqoFFApoFJgOxTQL6+uff0+0ehghLNcLqu4sc0SCBgyDBTBYA1KpJOvP6Ge+b4oQBaIF4xiIc8ggGXocnmkucgR0Kby5vtiwje8h7sEFUZnLLDPaOmmMUP+JDMM9ylpe2FDG/c+wX+lGlrW02hktEP6m1ba3hNcXrVoKgVUCqgUUCmgUuC7ooDewah0W5NEWqvXGY54bU0B1CYrQ0Q7HAowUN1ebaXW9/tbJIESgS7DEOuFbJb+go0Kb4xmi8Kr77c06tu2UkAiQxa5AK3FItzBYeAZ9h0J9a2ERd8nQFrqLOs5PccJrcGwlQTqb5UCKgVUCqgUUCnw1FBAb2awhq1JS6BWqzFwQzyhgDMDQZqJ0Qd1Or0azWwrsb7n38qWOj2XFCnxLJfLMJjMCm/MVivDOu8jpPY907VVrxMgLUmfTkNnMMJIvpgdBNLVmtjt7qMk4XfqDCqjbJHso3qpVWlSoKkH31i8U62PQXooTWle3v632HJwwa+RAD48bmninKRhsTRUO9TspGwPKYySlywQ+dHIR8q+y86rjNusv5IX1fA03MmR410PCiyXlmqY3BqCRnYlW5nIb4ptGnRtEW2V4ontCMfGHbWlR9RPeKYVupIWLaWDCK6a7UDaWIvar5RR8r3XxuQdu2hj0quUfirtoFKBRmljPOZvLfPd1dTD55X8pb22sh0IbaW8Mi6wH7c0KeMC+1sLy6vwTGhAdc2t45heL8zckmRyrFc5+LHh1DWcMMl0uU8F0lsI9QP8lM6iI5AWfXXFoE14s8mfmnZX3eUHqM3+e6WOQLpMfjSMDXVKn5G+U9PuMyDNwVUHDlQaNbrhvmvF5G2NuyqVOvnLyhGmoV4QNbIs6qk6f3MieYxUlYlcJkuZgHhcpZCm3iJAUs+kWcAaahwTq8yzFSOg0qJp56DJ54CskWUXCkjRd557nYSsF1h/quGBYK9OsFOrlFnenefZLJNCW+ENVckqmwt5pcC7+COlkvJK3nWCkWq5iEqLQElNaCC7dkkDqnkCkxYkpY3JgoICplqJZaV6XSuS2IrVqZpXJ4DiUQNQ7jJjoa20MWm7Gpa3bjKixui0u2heSolq0v6pggu2XWljNWljnHta0sYotFN4xnZc2ewPuyQDuy3bVpF8kvGBbavCNiYqg61I9XSKNJD661FtUbuVNkbpJTRsWxqOjQ8m/cMGhzp7/Ve6t2TQ+L+rweTBF6vHO6TA1nbW5I3Cn00m7TBr9bHdU+Crgxb5IcOYsEX5yO/9kWSEkDopM8v+qJJaC1JAgJMAkdz4TWCD9jMcb2gug1K5AnuGIMViQsLyeOBH1JoqnNQqIinjRJkUaVmLJsySACfmn7aYOQmLB6Pds1HyK3HC1DLvgtmMKhfGnPIbfVgmwh0kkewKDWoEp2U9l6CUmMmC+6vjxeNn3BxXqlykFClciVstj5/JQ56QWhYJcmpsD8KrKu0hdC0CJEq+BHtp7tblCXRawDIFlEn7KrOdCr+qBKetSFL/Mu1caiJUZJ6Kl6xdZiy0lXzFEL3Gdpbhjn9DcrqzttUsjvBJ7KaqzLPINlZlGyuw3Ap4a960g29pYzVZUBQLyLM/1Nl/W5EUGrC8gkGFrlWRTreiMbBwRfJMgHqC/UFo24psy8Iv1l/X2aNI/PGANsc3y9Mf4OsDh1toKC7YROLfKKoMQvJREqkiKwy5LsSqU/Xgqzh+S1ZSXd7PNqAgD4WBzOvR7976/DZ/8x06llcW700CS5GrItlo+cu2Wabt3ible1QZH3Ze6sodBqmn8KCqqH/wN08o2/KscE14w8WT/FbYyN9sg8r5RrF4Py8IX2QhpuTD56Tjynl5RnglqRkvR37Lu5RV3GYZmloAzWvyXiXxurQT6fOiniL5Cx+kTcnnwefkvNLGms82cnhy/ipV2qyXlOqBw68XkvVr0pwXhV5Sd2mVcr7JM6EByQPZVJfLUv+K0F/oI3TbbMdN2lTlQPKQ87xHyiD5Spvf/KnQWXgjt0r70Ck8aOQvzzfyYDbMR94t98jLG7SX05K/nPvmHi05qGkPUYAdvyZemqbuoHDzqsJnKb20Bx2BSp6dtPy4Uk9ps2wnYsAujVryaFVSJIbMVkCktNOWJCkv6SCS8yqlvE3Q3+g/u3gJ+49G5hj2G5HI1wj8WzG7KWOG8I155ggiW5UU8KQMYCyrgJEWEVjU3EQFQ8BeWQapFiShgbII5HeFdM09bht9VBkk3wrbAeteYJ6tooGUV+gr6hzlFvYH6WMiLZW2UBF+tYhnUl7hWYVlzbWovAoNBGiwjZESymLlUWx43PNV8kzyz7ONtYpnNS4ktB4vNQCohjMw+JUi7bLXySTLQaEu21QVDg6yjXB/oGnItTkgcZUoMKCu+bYBlCMYG0GlJJILQQGihdn6JF23VikQuJQVQKHhyk0rxOH7pN2R/vskCRjjBMYtxBo34gmH7tVLOlyNEhKlws1BUughE54oHT6YhKU0Pq1ygq1rRIqymY/cy920KkG4RsuGW6ugwNWw8E1DQzsJqNNoxHJfCcWybJFqaaBmVnJXsuWR0k6YUaUo5WGTVNqJDIwl7s5QyrDZKcgk/qfE5X4TU/LZm38aAJWoRVlc1tHc2mtUTrZ+lb7ESbdWLii8kh01rdFMWlOKw9soJ1K2h0UCofQtLWnOaKCNJPSTj+THwUpTRZnb80rbJo2lvTMj5tOgc5nvkwlOeKNRwEOjHyjv4T1VZatUXrrZNsgv6fcNXrRmMtybfNxfpZbJR/pcfHEBuevXGv1XaWscPaQt8rrg4cdN0go3Gwvb9Q4yeMQLZYSTfBt5tjZfGbuai31ZaPoo3bI9RBXyEUX7+mkWVXqKlFI+ikzj63ft6Iz0U8mz3MLJS/Js8IzgtHWkVTgmAgChrcwIrUhKUZmzlFnaJ0enVmSr5CFlldwqLaStZCztS8qtiCJaVVxmKHlKdq3OV8FNLeQZi6jwq1nicqtooOQrVGgxz7hTB6p7afqHqN5BnPNA2gWQFo5pYDDSg8T6BmIrKyhZ2+HwuOB1CVCixKpOXaV8EvOTK9DZvXC3d3Ag4mDCR7e2SQVw1QooZdOYn1mD1uqCMxiEmw+IlHPr/Q/UYfuH0nAJCvT1PJbm7mJ2ehrRVBkmVxBtHV04MNAFC7ewRPl9J5PF9gvy3d8pIMxgINQi4yOzk8hq3dCTB8E28fvLbaV0DrE769AHvbC2ueGxaRCdW0AiSd01Zxe8HivsFlkYyeBPSVQ6juXpKcBJHnraEHKbUaaOVy5dRDqlh92donraOm7fnEfZ6IUr2IkDBwfhsXAxxDawvjiB6fko8nUbAoOj6PLb4bIZKVmlFFtTQDYew9zdRTg6++Dy++EwaZFem8Xa0jxmF5IKCDe52hAcPI6uNhucfFaRcH33pGz5G4Q3IuHV6+qIL8whlSF99X6Egk7YbOySRMyx6YgiBTEF7Mgs38T66jpWYjU4+0bR3R3GgaCFPIxgdX4Bk3fmkdc42L960DM8jDYz+x7Bd44Gj8m4lp5divTsksKdG7OIiSc+exuGDg0h5HfCrqshujyF+fllLKzm4O8/gs6OENp9VkrkGrzXVLKY4ztqRjscfIeTvKnnY2wTS7B4umnwam+OiC2nlZrh90sBAaRljn/XInHcnl1UJnspQWNaapRlp/NdM4+dPv8wSnwXeT5YX5kHBEgZKY18rb8HAzbbV2jxsDJ90znRlb6XWkgIJV/m92D2996zm4PNDDlttjR9V+X9LvJtVr3ltCVFm+VtJXGVPCXDZsFblHmzrC2lQzOz76Ltst7N7FtBAhkbFQNRCl43VwD3st0hkG5u63ILcGUWVz/+CJcv3oLr1C8weuwg/B7qqxFEb0xfx93LX+KTy8voPPECzr5xH0g3V+MCoBtb+CxbMYd0bA5fvPMpdO0HMPCcE0etepgonm8CaSGMHMsAx0eVT50zviK9U/LidQIAaUMC2OUeJckx16mlTAwztz7DxetTuD0Xh9Npo17VNIy3xpHI/whDfWGEPdSr4Qua79zMYc98CU0FqJWSy1icuIbzv34b6HoeXaPPw08gbaqlkY4s49MLU+g9fRjdBNH1tRl8/M67mF0rIfjCv8LpQ0Y47QSrJGQxOoOp65fx6199iLaTf4rDZ59Dl9eMWJTga24dC2tmGOrXkc4sYWKeBnZkgKstjJVkFSf6zNBnFvHFu7/HWraOrMaD+kQCL798CoeHO+AylbE8dgE3L13Dh59P4szP/xrHznop/aljaeJzXLlyE1fX7ATuFnR0a2EJl1D27uWg8Q3e1IpJpNjWP/rNW1hJm2Eefh3nHGY4bJTRFKOYGJ9GNp+BrxO4+eXniCWIgM1+FAiwh0aGYXlmBNGJ87g9MYtr0wWYCYidoUUsREt4+WQfbEhjde4OphcNKBWWYdTcwtg0kCEPzCYD1mNZHBruwkiojqsfncfU3AoiJRPq0wmMjI7i+eePwWuuIr06ibnrF/D+R7dg7zuBUz/pgc1YRWFjCuvjH8Fx5ufMz8a+0exoe6abqAV9CAUaY2sdGe4iRvLF++PnQ+59Gk4JPUQSb+R2dlGZdCjVaVVTb1U+TUa0Or9mvvL9XeT9XeT5XZX1QVq0+ngv0WEvlbXlfJK+//D+T1ewBFEcLQR4bjc1pMcENJl1TF39GB++/Uu89/E4DpvPINzbxz5XRiG5hDsXP8If/ssv8f6NFM7qKQV75U0QFygAV7ZeBOTWKjmUillGTqT1Zn4Va9MTuPDex7Ae1cAychIj7QbkKVLPZnMNCRm39vXc3jbrKzQI4XY1cYeNSt+0V2ZevK9YoyTWSGkf5ai5BErU66EjP7qZscBFUC7S0fnxi7hzN46FtAWn2pyIzNzCyhqld+YBWGwOhP0EBty6llX449Blu/T7bu+Tls6yU3Vldeo6Lp5/C7/6h7+H70UrngsexQu8rCnGkIrM49LUAky9ATgdaUxdeQe//5dfYTpuwdmuN7mgaFN0k2v1EqKzN3H9w9/hV//0Do6gD+7+Y9wl8BIILmJ+bgZ3owHoEjcZhGQNUc1hGGOTSK3M4U7UDnPaCkt+AR/88RI8vZ0oGwqY+HgS/oAPPoJ6izmKm5/8EX946zze+WIRtiPn0H/8OAzaAhZuXcL1izcwpnsOPu50OOzMy0igzra8V5O0eQ13XtLrs5i69C5+/8t/wmqtA72GYzh5rJOurIqophdwZ34WqVQcA6UCbt6apL6bDr0DDkx++REK9FEdCDix9Nn7mJhax3iWkmj9CuLRGCbXNBjp9cJvTGBtfgxTyz5K+6dhzl3EcnkI1Wwe1twC5uNGFFIROA4b8MVHlxDPFWHv6sadLz6DGFKHDxyA0RHHIhc553/5j3jr/TvofUWH7lf/Ev2+EjJrU1i49AF6h15G3df11AOuvdoeH1VuEULI3KC01603PeZ8IY8zu3uplWPqg/nKC1qR94N5imaUDDfyUdyTCbJWk0oBlQL7nwIy+G0zMZ6HuB0Rw4rtgWnJWwyhCgRii2Of4j//41u4fHmShgMEObTmFNWNWjaCa7/7FX7/znmcH1vl/W7YFKvq+6WSfPR6DWKLNzF5+T28/f6sMoHrCHqXKXw7QCmXmfi3FJvG2OXP8PmnXyJRoLpCcBSh3kN4vi+JO5NRTK/r8Sd/9TMENavIzN3A764l0T3Qj/6wHbf++E+YW0kiUnMDfO61F0/i2UPtaB99A3961AatxYMeex4f/TKD91cvc/s8jmSa7mhYNtFe2h5F7tfpSTgS6X61kEJm6Qree/u35MEn2ChqEeDiwmagfjIJX0jGuXhJwDXkh6a0gKkL8/jVf34HM9MbsASHYSVYNZDH9IEFTXYeNz+9gYufz6DmssJgZSQ7XqMtMwqlJLf7K/AfPoBeSwBBpwbmYC8in/wjxi7dwjt37+Kurgo2MSxrnsdrrz2LoCmJ+tX/gMziNK5fptQr8iF+++5nuDy5AZfDpbQhOpDjrkIMmWiF0u0Qjj3/Bs49143RAT9Mlk3pp0iH9liSBaioFhXWb+P6p+/iH//un3F3LgJbTx/VJfRcPHAJms8it74EnVsPd7AfAyMd8A3+CC67llL5Av5+8t8TMC9iZjmJJKXKWqsXXQPP4pj+JtKJPCZi68jTM0CmluU3gXLPIXQe6seg7Sz0gR7kl25i7fNf4zdja5i9noa/rMdMimpNoyP4i58fxjv/879Hav0uxsZobJb9Ate/+AT/9bMpFKs69mEuYunGT0Npdz6ZQWSuzPKSCff2EvcYQ9TiPpQC7Pnks1bZCZTje0kGbdnu2+x72+2BzTya3/Lcdp+99+5HHEie8mnm1/x+xO3bOt3MU25mbRXBj4n9Vic2Jbtxqyb9n/k1ysi/rSisFJJJjIoF44tQrFVJ2N1MLcy2sThj5ooAr0XFbRZVxtjHFQw26/iob0VwyIutpK28qzEfSL5K5nJq9+leG9skbIvoK0zj/5byTCoreTZTa9sYM5by7hQniN3YY9hD6JcW12F1uujPnf6I5cXNWn3Dt6zMK9TNqGhNaBs8hgPZKnLxKIEvdSc52NTrWup8ehDoHcIZmLE8GYel6c5B8pU60v+sjmBubuImPv3kGlKGEervGuGpEyBfoW4epcv1WhnJtSgi6wUkMjSkMqSxMTuGKAHvUOAwomvUER3fwMLCcygUp5G+fRPzs9T7tC7DRQO7Dz++Rlc4FpgDFmzcncFSfy8yBwfg6x6Gn3rSqY1VfPrLD3B3Jgtr3xkMnepHd8ipTBSt7ozfQM4WX6IxEBtPgcrHtlAfeg+m4dRVCMS4bU+eiZ14cj2D1GoefmcYFmuVkmcfekaf4fY/jQip76qhGEZDw8F8IoqZa58iUtHD2n0Ah3Rp+KhiIYN2rZZBdqOASkaPrtNB9LvCCJlLlBbnMUkguLAagcF9lHVbpxFhDSXqANt8AfhMNbg1Oe4WpBjavEwLYC/LeITWwA6qcixz8pY2RKlsag2RjRSWl9ZhnruEz0tziC70oO/oKDp81NW1Un97p52kxRR/3OzK5I3O7kNw5BkYaGWvcTlYZwJU9qt8ijsJ0zEY4YXTH0KoZwBdGhMqiUlEJi9QdYO60742qs4E4D1wGLqFVSwv3MCUfgNWRwADh4epP05AHslR/7oC74tudPdSt9NeoYFhCRNcfE7cJjDWheDmwreaT6FU91F/vg1tIT88ZqrflNg+kmlkNBa4O/tx6jkuhG7NwmHmKplAqp6LIRFj36UaUF7cgLJDs0uraR9QQBbaBqoxDPo8cHd33p/oZJaj7rQSnIJBoDSM2KkYhG+jziKQUPwRSx7Mv+FCrDUtRrx2SAuUPCXvVrTEZnklby0Nb0U4IXKFNo8HOmvDUHob1f7aLcqcImOWMv+xpCxvK5KQtS4LHOYnC6BWJfFc0kytci0o+TU8/3AMFLDSIhqwCWyCPLYFaQfkWUsS8xU3alLMVtKgyTNpE0rbbUlh79NACqz8axUZWE4xDhXatsoNovBMnBs0U8vyZYbSdoW2+p14GOFzdWpB1NJJ9in2p230Kf2Fz25i+PRxhAJuqkRIa2xW6+HffIcyKIKGR9bQAJ59YwDtdj23eT9Gjg9X6GEBlE47RZ/S68fhkUn8+u8/pLRNmNzIXlmJUf0AuVXM353DtbEEhv67V3B2yIBAmtLPP4w3tri5+k/ToK1UIRh2dcPnWkfixhzWF6LIGF6F0TDHbeoVrNDgKhGbof7oEn0ndhMQsgnlo1ilvqjD54CXBoRlAvJ0guCtoqNRVwDa9F2srd6k6snvUOk+jZE/fQ2vvngIAReBIoHOHsVoCo3p2gEaWwAjZwjG3CEs1hexQd+vFerBSJSjxEYJibUK3CECUreVE2Y73ugYwYQhh5XlFPMgUC6mEVuexSfnP0baPgRnfz/6yjfZkbhoYmjyHFUEkuv0sJKyoDPsRJDgTZ9cwMrEp7h4eQITqzX0/HQYHhBsrcepaEin8zIacQFFgTft6ch/oxPOrrN4iUCvM3gNb8+usuGzjXAxViXfizAR5BHbx2/jysSXmLzRhwN5O958doC6xB420G9prA9vwj/oWaUPmJwIDR7FOecw1s5nsZIyIFoiPXgxT8PDlbkcDI4OeOwEMz43jFRRujs3hvd//S+4ndKgb6gd/d1+VNL9iHGxITrsKxrqtts6EG4PEwhxAZooILZgRJeDqkpcHDq4eFmbuoZbV6/ig8srCL0RQqCLfbieUryrSDAH7ktxIua4wUGI61CYu4dwpLcDA0N9eCf5K1jYiZVJkAasov6R0nm4mCa4btFg/YMyRn25QgEZmwWMHfB6MMxx4R5YFlBFI1h9WxD6UDt3N0J0rsPOuo0kE7B4hRFgKvmbFX+xrWk0efojljZpNpsaAErGmF0mpby0ype8zVxsSkAymZSl7DtN8qjUX3woSzCt5men+d17TuZUlq1Ej0oSVdVCP7etSMyS8y69OJHvyuKKNGgV4CvRd3CBQMXIHS6hw86per+mAnaFvoI/BDwZOee3Ikn98/QfLHU3cldXAem7LLDMWtJmhWfi+1ovbZfAX2i+myRtTPxoS57N9tUSnrFcEum6yPJShQEmflqRhLaKtyhWXBYpRvEpvos+9mCZGuNCjTvYFoVnD177tmMJwFSNRVGkkLcu3jmEMd9SLv1//A9/j3/7P7XT+t4NFz1wbMfFi4BMs8OHduoT99RzqE3ZMUUgUBMXZlTN0Jo9OHTEjmKEBmOVeVakISV9sAKygi5SBaGQN/G5XoTDYXR0meCOx+GjZMxEVRDpGOJxQIcoSulFrGRySCYLqOvoJcDRhi7qgpoI2KYWryO/wvek6/CdHkbPUYJIxyp+8foCpdIX8eFbY6iHR5FiRKUiDWhqVUZU4pa2wd6Jk//q3yF4YBjDxw/Bb2ODZuWkfns1yaCqM1rgCQ3BHyrAW4tjnhUSDwzSFrQEtlkGPkoXOEEYXPAFwujrpLpGlTq1H5gwv1BXdicK8TnMLV7Cu++PU50mKzgYyelVLn6uo6RxYjTcjvU0oz1pnXCZaQyaXcJd6sv/f//3f8SXMz64Bl7Cj189Dt34DO6srROkyegja2SWge2kWDNxJySAE8eCVN9heeZN1HdvtJM6ATRfiiOv/wKdL+ow+vwhLLzzt7g6No93z3+BIz1u9LV7FL3FvcQn4Y0kq7sTfa4AejtS+MMFExbiBNGkDGEqB8I6PWtQp8nt5IBFVZpKHjNXf4c/Uk3nH95aRseP/gecev4sBs2L+NsPLmGt4sILf/M/YjD3MabHF/Dbv/svsJtegSHDXaF6UFGVMVaTiK/dxq//4f/Bu58tYcn4It48cwYHvbQhEF/BLJcsnhr/ZBHJ92td6B/o5CI5Rq8vMQ7MVBmSRsRSavT0/kJp+smf9bEbElB9yyAjdVbT3qOA0mPlj+yW8FvHScl2+hlYnnsJxnAHBSbbA9KiNphnHhKAQnbE3DZry9pMNJVWIq25uatKgx9lfNktpcUQPksQXeBcZHW7YWa9FVeSu8hYgJLUv5xMwkhwbqJU30QApYwJu5hvRHouQokq6SAGkV7akrQiyVCVZnkrzFvAmJ3gSeyOWpHStHcqpTP08OXm+NQaUFZmGysQROcZRMdMQOZsUWCaCtttRXhGYO602ZWdCekSu0nCbmljCdKgyvLauWjdddRoFkpAfpZCLqGBabONGVjuXbcxNgYJUFRMJmCx2+G2i3rl7pPQNsM2JvEMDNLGNhfDu88ZiFJoWqJAziO7SOx7j5XIm9L8LG3mzChNjKESiTAAyze3U/3Z544h7KVRmCIxFhZ/e5K7tJREyUrdSumXgeNphavXRkAT4aiegw9XF3y5nmGrxS+pXPtq7twiMBDAGdhRNdRNJpPiMa74aGCV5rayppBHKRfH9MRnmF6hFbmhA6eG6HWDjWRqkQMS1Q387SGYBwJ474NPEY0VaLzWiZcHglRZYGSjLFd7piA6Dh2DKbSBpel1ZFeXML+axlCYXh9oxFVg9Jtc2QqjzQmPz0YwyQmDhRS4sJeT+MPWUr/HQvdqZhMljWxQsgKu8rvCbflsPYuCRYug3wubw0lpDrdzq1wAkUMVdhhZ0db0Nrqw6yNoO8cwm1qkEitI3KV/b/6TcLHZtWmUHR4apPnh1mYwxx2Jj95+Hx9eKKLj7DGcff15HOh00juIC4tWLQy5OWQ2wlijjvRSycpFixNuj5PGnVQlIXDUUVItUZlklSr+vQtZcadHX996F6x0h2cmWJcgrToF8O1l7rB76EwwEoQY9HTwznrLgpHsoW47dY9LKaSoguHxO2AyFJGavYg//uYdXLi+ClPPyzj73GkcP9gBUz1CGpGPGg7utCewcKelXqFhaCSLyOIMDTMJcPu7qebECXHuFsb/8F/xwUfz7EddOPfnb+LowS6EyO/1BfK/uoFSfIE7NC4sZ6lDz92mdj/p7qCHF2N2cweB+qEsp0zcpUKGC2AO2BwEH9ya29tcUUv/UAqwP8q4XXF6kBsZhWX0NMyDQ9Bx3OAk8NBHtp6UQA5athUNwaksuvQulwLOtt63k9+Kr3qRwHklUALHsFYs6lheDfuWom7lFnUOqzJ+StvfWWp4ppL6y4KZKAcaiZAmAF1ZxO4034Y0us7yyha0lhJTQ6BtZ0Xc8pSUS8vQ2BrSViLD6ej2T9TQWpG0KYZv5g6Yzt9GaSzVhFrAM4ljoaFtiEZ2ELhIMTgdrSiqABuWj8IDLiR0bLcC+HZbXgXYsl8pvvyZr9btVbDUbsZSmZdlsaZhG+BKTWljWrYvHfOXuZ8tZcf0UNoCpdGShc5NGnBx2ZIktGU/k/FBw7ZlIEhviQSdhVNiLRBPKG1Mdj0es40Jv50sV4a0LNykinBkXZn/HkVH/b/+Nz+FL+ijIRqBFgkl5N4Ofmc/4yDAdkbUKVGaZEUlEZsU8M/zxKTKh92RfaaxLdTMV56Tjq83ewlgqQ3qTmJ15jbuUlKcKCwQVOdgJ+jjcg1rM3ewHA8i7R1BuEdHNY5FzC5HQCxHtYAOOPr6kPy//oDVvAum9uPo7XbBbRZjOxoZ5nXwDVBCfbgPWHkL2kKOPnsl7CkLUMpTBziG5fkqgkMMJ8nCSbH2Q1LqwT/CT1kUCG9k0aOhJLiUiaCkzVLiqaFqB2lGlQ/RRRedd+GJTqQO/K2jakg71Qd+Zu9Clt4dpicuY2PyC2hCAa7yOEilbsHU1g5bgGC8EsfU5Qv48tNrmI/6cKq7C8PDPrIvC4vLCy/Vhtp0E5RsOpAS12vWbvQH6ROaixdpP0q7k/bAMip6UtytKNMPciZKcFdYwfiED2trlGJQj3pkoBtuBw1FpTEpFd2DHGO5RcKleK6RSUr4Q7pXqE5D8Qf9sZfhCNoIYLPU7f8Cn1LXfzrhRu9Lp9AbMtNlIFfyZQu8BNtp6lRvzIxjrrCBVEkPT3s7tDmuoF1cpIwcpHS6isj4BD79/R9xe9qGztPtOP1sL89z56JmplvwXrTZrqASu41b13VYLNFHdziEni6qetFuQvpxjYsXKaOWA5LsLlXY+QrpDWTJn5pibbgHeaAW+dEUUCYdaaSbHczpRrX3ABJnzsE7MEJA8ZgTKfOpcyKWDxvSo9+7kyuc7GT7VcBkXYB9C/JX8pItXcmXH4n0KAv83SQpW5MGMl8qv1nWlgFpKavUv5WJQEcps+RLUNayJIszoe8uafqV8gj/qS6ilLdFgF/JX9qu0FZ4JvSggOpxQdlXyrn5Q8lLaCB5U4VVdujFjmDHqdmmNvuZUl5pX8xwV/nK85v9VzG03U0Zt1auOS6Qdy1P0h4o3FXqvoMxQc8IhvZnnm/wnnzPX6TKq+g7KouSr5dW3z/QzrONDrg5bH79rkecIR3IKB1MDvr97ehG2eeEVQySlESdMkreDFYaHXZ1wktdTzMlpLJyUrbJuH1cs3bgwLFRvJJcxDtf/h6fT1gZpMMBc+cA2np6EAyG0Hfuxyh9Po4LE+/il79zEmcUeb6TbzVQvcTDABFHcMhIabKxH/7wKYRdNngdXPGnQvDr38Hd8RS9VjhR7HwJR7kt+exoiFI2HfKU3lXodi+d4nYQI749gj6PqPleOM0BQAAQ1QPc4W7UKNUVv9AlSvpNdKPhdXMB49JTL0n4IZ1FD5uXxoBhqnbQMNFGibGTgU8k+IqmnIXbRQA8dw31wcPcCeiErXoTQRfd17ltKCWWkZJ1j92Mrp4KFm7+Eb/Nz+Hy8At47Uwf+o4b8fLiJMbHLyCuoXePcz/B4dEh9AeovkPC17VmWJw+hLkocjmpt2ulwaiDQVsCV7Dy5QX8w/96AXUaK/YMH8df/OQ5qkTQ3SEB3XfQ/b43xioDXF0HqzcIX5E7BzSgFJWXOnXQ3S6TwhtdOYXI2gZVyanCxDaamTuPt/7TZUyffhGnX/spVV6OwnTtMt77/X/CFKMVtg2dxo//zY8xXDnPic/ALUM/wzpzB4KS/aTOTN5qUYzfxPl/jGLswDM4deIonjn4Op45s4JrNyfw1j/PwN79DAZOnab/bwaHYTupFQjyqdPtI8+1bT5mq+fiaACh9iUcjNyCzURwpCzXWjyJf2+cUF/0UArI5MZJU0PpnuWZF6Bnm9twhFBVvOY89An1pEoBlQIqBfYPBbg4sZ44Rc9YVmWhXrh2sbEAfAhQphDQwK1/roYUUPwYNJDVBG8vV02MVHccZwxe1HxDaAvalfzkolYkzt3HcO7nfm7Pd6JNie7c0EGWZysEw97Owzh2jltSYW4v1w0wmsWDAdU2CL6DHQGYvedg8Ayi51gUdRvdb9GjhNVgowEV9YHWJjE1No6NggPBwyMYffYIvDZu63Bnw0ZDyNOv/hRdcQZ5ofqG1hKkH94ehFzcSuG7Da4OtB/W4E1rDWEuJkyCpKVQ+yFt8qZSo4qNpwtHf/yXVOXogtkdYBTHEroH7Qjymo9+tQ0iYaxxuwp29J16Ga7+HHQhqsfQO4eE69ZTKilbUIHug3jxJ38DeA7BTHUMV/lVuC290JmdVAOp4fCLfwpnz3H68aaElaogJjtd2fl6EQyFYacHl2fe/DnCqylk+R4XeT7Y5acnF1ngcc+CvGkfPoM/+xtKqUd64aMPxZqRElgGkNFTn7hzowwtJeRt7d0YoqTUZmqA/73KKuk5VdK8Vreg9xTpyA2CMiX/fj8bYNWBUSs9ctBrgq5igvno6/gLyzEks2XygtIQbol62/upjkXVG8cp2NxtsLWvoqwxM7JhPzoP9MJZeFZZnIQtlEpTZys8fBY//ms7XqD7SG4osn9wEUredHBHx+bx4fDzr8HVPYJBMc7tOIjuni6641OWvNSD5cLWP4TnfvIX0IhnDyeNQsw2eLoO8dtMPXefsjjeq7xQy72FAjJ2UAJDsRt09A5jO3kWJgZg0nT3o56URZOaVAqoFFAp8HRQQMcYJab+QTh/9CaHRGKl1VWqonB83CKZ11dkb32HiWMuynUjfL2HGbr5iCKYEgljwyhJgLSHW8c+PNtzWJFC1/guRd1gE7DW+MPs7kEXJ3U6+fhKkmtS1joj4QX7R3G2KfASFQyRJqdWcf3SFK6PTyLj6sOx40dw+mwfFdbF8pMCOU8Hjr78Cxzjc6IFIKlSISFk0cAyGt0d6PB2EawRu8h5lk2KtVk05f49/YfMqVLiaXKHMXKuQ9H9FsmzsNsmATRY08YCqgHq6oyF1330WfTKziuFURUSv3qvbegoee7AsZc6SSBOtCRSjRq2bFfKcYVhv4++0IkTfAQUBYEAAEAASURBVFYeb9JR3qcYEPKEJ/BTHCQjhDfKeeYtKjZyr5YR+4IDbegYPsagOqIzTCt/SshDw89Tx/0FPC/P8T65X1zH8UsB4Dy1NxMJKOoSdQLpjiPPgwEbFaI1yB1muHrWjz/qGjfVYmiYeLJBN6ms0EvoIDSqa0a44DyIw3RPJ0noKv2mqjml3EjzBBoPm9F5sI1uA5/Z3Hdq5CE8lDxEpafz8As00CUfhDfN8/J+yVRP+wmvEydf61cuSpuokjeGwCBcoUEuQLnd1bhT7lbTHqeA0iPZvnTU2zSPHIaDE4iuqwdF8QQUp57glglkj1dXLb5KAZUCKgW+kQINNY8XGCgtjcLtcar3UB12ixrVrq0HFEAmAKckUEeSMv1uHgpYY/RBCQ8l5x+41LhBxmVO2AQVdFusoCW5RblbZvTNVKMCc2UzewFikg/9edBIkMaEg6fwox5RERlCr5cgWkAGP/J0uUyp2uZzklVDH02OeMx7RLlf8TrGu++/rXF9v/yVelZKRFibSWggIE6I+ACJSXMBsOKZQW786jX5rYBY0lOOv5L4U85WySB6jbmfeL5xZyOvCp/dZHHjPF/ezEn0w4THSjHlvJKntB353Oe9lF0eaj53/2V780hWuNI/pI6SpHpCTAHE9+oqtJGLjVvk6N41WcnIs5uP84L8v08dsl75JXwV/PNAFvfulXcq4FheITds5nE/F+ZIxkpf2rzY+Gbm0s+U1dRXMuZlNe1ZCsiOh5YeD+z0zOHit6l3AFWZOCTyrJpUCqgUUCnwlFLAdOwUqlRxzG9soEYvQQ+mXQNpJbPNyffBjB88VkDBgye2HMt1ZeLenL03vx64qwGulBOctDUM+CI+iAMMEmKmpBR0x+WkAZyF1ySn5vNKvs0fD+TWPLz33uaJffq9lf5bfzer/ajz27mu0PJbaC35POoW5d1bLirAUvi55XyzPPvhu1nHe3VhXR+srkJXufjgyebNyrlt0Ef615Z8m1koWW8SePPrwUv3jre2DaWXyQMqiL5Ho/1wIB4atPR8YKSxjUm8a9DITNZLinHvfqigWgeVAioFVArshAJU85B5uEbD+63Gt/qHWaDemxvlQOZKiqpEWqVIrJQ/OylFC5+R8hjsNJ6irm+n+N8VtQ16eqCKRqOQLXzXE5ZVgwcN/NLgizBGqi08Eoap6QelgMKCBi/4d5MvzWap8ucH5Y368m+nAMcQsYnQiltKfiSugOxGiS2DTAayoFJ2/Pgt7rZa4m7u20ul3qFSQKWASoEflAKykV+jsX2drj9FvePBpJdoSFuT4gFNAQG8xv8anpCADPJRotNtfeAH+C2QRMZ2xW2b8n4O6iyfDPf7OYlkSPgjkqPmR3govBF/l8p8t58J8ITXTTztKLzY5I+0SeU3O5JI9vZDUtZrrIuENFf0UPZ9r9sPXHu8Oohv80KpgiKDXAh4zlMHTsZa+Z0rlhn1rgoLjV/N9ICkgunHo616t0oBlQJ7kAIy34mOpBhjbwFa+tjK0tdqpMSpp15kLpUUGQR1KBkApZinBKLh9/JrD6gnvjcKCIgRSVAmkWSUxjzKdPJfpfFlltuxog+tph+WAsIbcTGYT0vobfphps/lCoP/iFRvS9/7YQu6q7fLoo0aVVwsmOkC0UDfqmraPxQQIYUMJXkC6bUkg/7wW8BzulDCcizDY8av5QIx5KYhqkTjkgfUpFJApYBKgf1OgeYk3vzerK8+H2d85i1JJkkxACszoAaPiMDp2JrOzkUCqgqfthDr+/5J3ogKRzGXpYEnAwWQL8KfMrccVN5838z4+vuk70h0yDKD/ygLT+k74nBfmLOP1jnSBo0E0DW6mySS/joh1DN7mgLSjquUviRzBcTSeWQIosv0eFQqM9pXvsTosVZUHFstWPd0ldXCqxRQKaBSYEcU0Pd2hB/6oISJXpfRlLO/1WqDneEbJfKcmp4MCsRjDLSRyzG4ionBSxgYpZWRp56MKu7ZUuQY9jQWY6RGLm6sFiucToZTlq60z5Js6QuYVtP+ooDoQ0ukTTOjngYZcCnDYEClbIE7mgzly6oarBq0e+xw8Lqq1rG/eK/WRqWASoHHp4De+YiY9GVK1VKpFHOkh2FGdnE6HAowePxXqE+0nAKUbBZFpYN6jGYCaAcXOVbyaD+CtZbT7rvOkLwRcCGLHFF5sNkESNPadx8CaUXIvmWL67smr5r/90MBaa5GvQ5+hxVpSqDzpbIimXYzemmIHpLkW66rSaWASgGVAk87BfQmhoB9WJJt6aYE2mA0wkgdXFUX8mGU+mHO6QnSdNwhEJ4Ib0yMMqemJ4MCRarcSN+Rj/Sd/cobMUIrsa5bXeM9GVxQS7FbCuio7++0mqgLbVMCWYm3DgHR7T4HbGZ69lB2LLf3Frn1u1pLNvNuldciJb/HqNv2KKDepVJApcB+pcC36mrIJKlOlE8u+1X+PJm8afaZ5veTWcqdl0ptdzun3V55sglMfZRKi4cOr8PCIC0m5fNYIJoV1hGYKt6GWoymabWzmbc4m2xNkrqJdyQ1qRRQKaBSYDsU+EYgvV9BwHYIsxfuUfmzF7i0P8soIEttf/uTtwIkizQq3EjlEKWhodjIigZPiXYzWXrvWE/mHqviEr1WDKNFXVA8Qq0XGv7VHyuTR9ycyeQY3bOGaCWhGPc2wf8jbt/WaYk2qqGnKhVLb4tc6k0qBZ56CnwjkP426ohnj0oxp1hyVxgG3GC2wCDb2XSN9E2pzoFVBlcJVS3uwsSwRU3fEQVkR4G0rsu0IJKWTVGLwgPxKEEVHgkLLNu4yn0yY9IftUxI/H8vCa+r1QrzkftpSCf5SPhqbvfKB/Wqcr3AiVajM1Cfnj5mzTRGYg4SYlpcKBboNqvGM3qThfqVm3lsvkFc99WZPxuDkr+8uiZuF+nxolCkL1v+Fndyhs1npbz7IglvWDkJAy68aQKBGnkjZGV0DIU34iFd4Y8wRfioMIfh34U+oi/P/qfTUwXLbFJ4Q4/izJc8U3jD3Mkf4U1V+hwDbphNRrowI595n/CmRB3YUrkGnZG8oZGk8OfBVBPfmXynRvjDC/Ua20JV1Drk1z7hxYMVfqqP60jkikhnapiN5sjjhvGhtLka29TjutmUZtwY72UUYjtNplvWYioEvUr5Mlml7+ymJSpjJMsq45VDX0MnjSobJX6qG4NaeZUCKgW+hQK7AtLiIze2NI7l9SSieQMC/YcQbnOjzfbNlvyVckHxgZwp0quB1UxDRtO3FFO9vFMK1GWiob/pogRrIYCymAzKhCO8y0XXUTG7oLPY4TTrUSMgE28tFaMZJoIpAVrNVBFf1Zko86H3FoMNXisj/DCPUrFIq/4KtJU0Usk4puYj0Nl98IVCONAbhpGgu1LMIh2dwcxCHNm6Bb6eg+j0WuG23G9+NQGEyRR0NMzTU99bruRTy1hfXcXMYgplAkKL04tAzwjavRY4Ld/cxprlfqK/ZZFD+iluxbjAEC8JegJVAcCFZAwlguOKxa3wxkDgWiUfSwTLOm6zC3+AMhKxFcxOTiJVoGGjtx3t/QPsf4BJQz4WC8jS40K1TAliOY3J2XVkq3qY3G0Y6u+Ax2GDTvzFJxaxtLyOhbUcPN3DaA+2od19X+deAHwpnWH7Iainhxh5c7VAP+bZdWjNQQJziwKyn2haq4XbFgXEY0eRi6rZTAXLJRMSsCmLJU25wWJZ9D1+4kPK6kue5EH18XN45BOazQJxnUfUy7QbKN3IQhaJnloZVkMRPvHw13zHIwuhXlApoFLgaabAfSTzmFQopNaxvjSJDz/9HOsxTtQGJ5yciA8eHoZxpA92AyUPjxjTiukI1hbnMbbiQG9vCKMHg4/5dvX27VCglNnA2uw8Ln10C44RgteDBzAQoLQYBSSjq7j6wUU4R47C3xlCnb9vXJhELK9F36vPoctrh2cTSNeLMSzP3sXv3/0YtsEX0Dd8FGe6dMjF1rCysIC7M6vIVNME1BnEo1wklXRwB7qQfO4c+vwEg9EFXDr/AVYKVRSNLthmknjmzFEMkvc2Yx0bd29h9s4ixiZzOPnGafQf7IKDs+3C2JcYuzWO6zErzGxMbeFu1Fw91NU0EUhvhwJP7j3VYoZgeY28uYmsxgrfsWMYCrngtlHCX8ni9tUbyGkt8Bw+hnpmBRuTc7h+ZQ5dLz6H7v52dNjpnvLuTdwcu4PPx2fJ0xrsgQ4EEgk8c3QIXmMF+bU5jN9ZwkY6jnydLvk26A84SxSjNSN69hUMD4QQthVx5f3PMbW4io2qDrb5JIYPHYTlxAjsRg3yG0tYnbyNG7fS8A70YvS143DyXamVaazd/hyh0Tdh9XYI2nhyia2WbPsUkMUdPxUCyBJ3G2oGEXJQMvuNCFquNyXV34C0v+smssv8GyUXKbQsURnJkQeyU7TLbLdPe/VOlQIqBfYkBXYMpEv5FOLri7i7FCdwqsJj12H26nVYufXe3ttD4NMIW92gCqUcOUbESieRzBYRX53C6sI8ri+2w2S14+iwj9KtJFLUdxPpps5ECSkNXGyUkhYyCYZQs/CcAyKELBfSlIIWoLN6qMdWQDnHcmSKHPYoaTNb4fG6FWndo0D8nuTSYxZamdSoJpHZWMT0jcv4w68/Q1/ZDF17N4GtTBMZpBOruD42g36CIKPTiPLyTXzx/hUs5ymlPHEcPgZc8ChTSp2S6wXMjF3E2799F92vd0IXHMapTgvzWMcSAfbYzVWkjdzmJ/CywYjEyiJSkRRj0g9C30dJanQeFy8vwRh0Qm+vE4RdwkJHAA6PGx2mIpZu38Dlj8fx3iXAc2gAnSPtqGvyWJmewezdOSScI/CJ2gNL3pjUGlPeY5LlibldVFgK6SjWZ2/hs/c+RppS3SPhA+jg4sVlIb1KEUxNzyNvcGFoYAi6yDTGvryM3/1mAi90DMIR9iNkqmDh9gTuTMxgbqOCkK0AJFdRWabf3wOdMFfyiK9M8voiFjNpVGw1mGomFBkRMx2JQ2vtga5egimUw40bC1hPZXjsRnT2NpYsZrT19qLHUkViYRoTFz7Bex8VMfiyDoOvHoNNU0JyfRVz18bh6nsRFm9zU/yJIbFakF1QQDCzqAFlKR8p0OuMot7wCCCt9ET+EQ9COrrDEzW9R9y6ixJ9P4/K2KK0ZB40Rht5ryws+Fep6M7L8bDnG/k28t9pzs18m987zUd9TqWASoGdU2DHQFpPlQB/12H86S/OgpgXVk7+f/w/3kZ1PYFIvo42SgxNiptRGYHK2Ji5geuffoB3r80iC25De8KwOsPUqdYygmIayzfP48Mvx3BhKsHJ+SReOnsMJwc8mLryW1RcI3D1voAhP41K5q5haeEu7Ed+Bl10CtGbH+E3XzJPrRcdg4fxsz//EXoCXtifYiRdp35tMS1S5DkszK+gprdBUzeB+EdJtUKM0pYMit0DdM/GJhBfwwzvTeeq3Ka3QVvmTKJsvwrvSlgaH8fMjbsoO0MUZtqgV7Y6uTgqZ1HiRGsZehYDXV70tDvR43Zg/cpHmJlZxq31BSzXY5xcdTCc+G/x2jNhdJk3sPDZv2AlH8PN6WVoq6tY3VhHkmGI9WUHwZ2ek5gUNIairg/hwT688fNX4WE7sVPv2sDFkknCEu/VxBlP2nt0eQm3b96m8RYnbfoA1+b5LTQvZ1DLLqPg9RGdOOAoJLDORedGJAmt0U36kI9Ug6kWo1igdNncdQS/ePNZ9o0ie5VEoCvTRZkVJUYszRYYprxjCH0OP/p73ej2uFBfm8bqjS9xOZ5BZG4ci6Uciu0ncOhsF1454cTKF7/GYi2BKzPr1FWPIbeygFUiqmqZi9ma6LzXyJ80clUrNoqHqH7iINQQXWs17QcKCCArV+uYm1/H1YU0qtpvVrsTSbUY5/nbg/CHQ3C63WzIBIeKgv9epkhDMi82BvIRHe/dJsWehPQV0jRsS8ROiD/ks8MkzzfyZXl3mIf6mEoBlQK7o8COgbTRQqf8fi1M1KldomTt0o0rmKNOZz9BgZuSY/3mzCoGYzkC3oW5KcxFsuimKkGJE3whl0eK91ARgIZOccyu5MAotHBbddiYW8ASB+XOgI0S6Api1MdMVJfQaShQjzOJ2wtaPHc4iyj1Z2+NU89XF0S4qxsHBrtg0XCiJ5CkIunuKLOHnxbjQT2NxrxdfehNVLB2d5w8MRKocTLgaJtdX0NmhRJiixcOpw1tAQsXPcexMjWBaIo6uJxINdyqLXPXIb02iY0C9Xbb+nHSkoSlzUWDM2FuEan1FUpWEwgNvYTBdhd6PAa4TVWscvIta+3M18+diQ1UtDVYOkLwBANo4/Vyhwe38kXUEwU82xtA35ERFKt2rI7FYabkuc42Uy+sY35ynOoeESzWozDr7Wjv6Max0ycRcjEIjWnHTfeH5SxJp+N2ud0fQtfB4xiYv8VFoIM65vQUQN6U0ikkZqZJAzN1wtvgcbtgGhyhFFmLKKXUNhpcCpCuc2empskiHoki/nEG07ocHD4f/L0HqFZDnWbqq2/MzsDRfxiB7kGMhC1wm+tYj5uQKpph93CxaU5xcbUCk49qWWHyxk/l6nYv5lbquLMUw/EDNrQP9qNu01C1ZB1OShxlt6NWiCO2Mo/Ju3dxKn/uh6Wn+vaWUkAwnQDHeDxNgcUqQfF9O4mHvUgAc4XeOAzU23d6uUvI/itjzF6GdWLwK2A3R+PolUQOqTwVPeTELpIYaAud8nkKDDjP6fM1xgCgwe4ugbQUSYB0NleClQIQrSULj41xBRQbil0UWH1UpYBKgW1TYMdoRE+DNCUEcnEds6lVzHLyT1sCKJk0BL8EQox8RWVMSrKK3OqnFGyDW8q6MF56+TXUY5OYG7+GK0UOLtxelgh9CaJqPcFS0F3H0tUIIqsJ6utS0m3zIBItU3o2jYg9hdV4FZFKmNJJYJ1gLB5n5EWCko6OHnR1hBUALwZ2T3NSgDQNCAM9g6iXDFj9bBV1DqxagiARNUdJ2+hSAlZzmEDaQcPANuofO7F6gRLMUppST06GNLbJJNZw+9IFzBWcyNt86DATPIMusKgqUMhnsbGaRCZVw2B3AJ0E0TbqSUcXaLhGfuW0HgwMdMMQmUKSqjgmqo9ojVT3oVTZ4nEiPUcjSOpHOzo64enSo5LT4aYxBQMnMeFfLZel8WIUi4uzSFyh2kJVg8WeIZS9YTx3IAwbVX2+eYp/UlsAJzuDGa5AO8xOF6LX41hjAFGtSLzoWSOTymJxkgCm3gM7F6Uutwc+D1Uy1qpYs0dg5YSsqdLbSilPPdY80qkNpKmrns8lYKKOdLjOgBkBB8obKSzPZ9F50oWudg/arBWkqO+8Qp4tZiwI9bZzccU+lyRvqJZloPGoAAgTF1bltTw2knkY3F3oCHvgCppx+7c58BZl4q8X81wIp6imlaT0Ujy5qGlfUYAMlXDg4sml6UVGls4PSw3XdjRspUBFjFIb6VF3PyyHJ++cotZBgFthfQRMi/xBkRzvoqhCR5nnilQ+13Ec1rHf6EQJu7Hq2EXOkgPV5bgTlee0ZzBnYeUuowqkd0VS9WGVAo9FgR0DaeUtGrrCMgVw5OxPEOo6ii9/97eYidzB2zf68d8/00En/kYOQgRuiRK36Tvh6CTYDVLH1k4fnTmqc8wQfHFDWk8JZhullqvRKCYXV7A2WUBggJM1LBjo7EC2so61uUncvMTtascQQiNDsFj8aG9rQ3/Iii/uXMF1GjBGM3k898JpWOx62B+LDPvsZg7a4qZMR8m0lsCrykmOSsf8LxNcHgtRHWZiHhoadsNmcW2G+hXdRnFnx1voGQK1FNaoY/urtz9BweRFhUA8l1pAIcBdB/qRPeuyYjrmRbFGSbRTD4cxjygN4j75p4+QsHai7cAAjo8EsHzFQB32DCVbzFc+yjuKMFKqrWH70IuLvArBIaUqIvVRJFkarpIIxIeeeRPBEwY8+/phaBY/xN3FDfzLlzfQ67HQ6weB9B6dr0U6pdNIVEp6PpF6cwLUsi9R1IxYpoobC9xO726H3RaEmWosNNtV6iruB2nSxfu4nVunsWGKi8ieIzj316+hUzuPmWka/179ErfvZLnroMVU9jiOkr8BaxnlYhxX//glZlfLqHgGMDTYDgt3HBbW2Da4oGkaC9ZqJZatxsnYqERl1Ok54RNUiORMhGeyONZQgu7vOYZDL3dSst12D2zJVTXtbQrIECE2xm1+F3r7OHboGqodj+pq4g6vStDt426Tie5PpT0rfXgPk0H6mLiidNCLTn/ASQmvWQHVu6mSjMNFeuhJ0BjYxEi0ZkYUNtMWYfcqI42+ObvInV+CdPH/vVvQv5t6qs+qFHgaKbBjIJ2KLSOysYqorh1tDBvrpeTMIpMukVhNSyCkgDaCJX5baISmJTAr51dQrvdSYk1dzlQM6VobCnSblqNB4dWIDub2Azg31I3i6kXCa7oAq/AcJXeWxUUU1idwPmLA8BkDnuvzMU8zDNzGPvG6Hr5DixifoK7tzXFM2CllJRDz93Ob8Wnk6L06N2gvNJCABfxFEEupUSmKNA35clYDQkEfzFbLJhDigMxJUO5V/BXTeFN2AwYPjSBRrCGWTiO5IUEVqJpBaXR2eRllR4iLohB9rmYxf/U2Zm4tIqJrQ++BXgwc6qBE1QCrhfrZxSRiY4vIBXVIGuiG7eIabKEhePxOBehLkRu6lnw3wZr4LC5lKRn3ueAy+9AdCvLdDXd76QzLIC4F9noiO6SLKIahsgMgP6r05FHLsE9V0U4gY6PkvuEvukGfKustE2+dIFxrdNAugYsQPfsBjz1WByJ0Jyiu7pJrNFSs0RPLQB9sDpqWLszh5tUJzEUBS6gTR44NINBGvygR6ptTsp+eY180baDQ6cPcrQj162UB66WrRFGPamw/N9qFTNr0HZ9nEAyq1mi7qDNvoc620tMUlL3XufLUl1+aobi9DIW8OGClEbjeSVjJk7KAe2hqjBsmC9XDBBg2Vlubzzz0gSf6pFJXqSoJIX1PbHhMBi1tOXZXbAHSdQoMJMaCkfQVP+3yET/sinrHDrNXOMM+KX79qZDySC7tMHv1MZUCKgW2QYEdAuk6Ctn4/9/ee3/JlWTngV96701lZWV5D2/a2+kxPUbicNgaktJZ6ofVkbS7/472nP1Be450uEekxNVqh0tyyJnu6emZNtNoAzTQMAWgqlDeZpn03ux3XyKBQnfBZgKoKkQAWZn58r148e598eKLG9+9l+HvruNiagNBjxvd9hJWcmZYGDUjFnbCQj4ln0Z0NDPC6/fAZVrD4so6Jic9qCTmsbK2ybBfxA6kdhTpfDUVz2JoiKBpOIpY9zV6KlbJJysyOkdAC8NlLW5gdrsLI0Y7rQR2mOk5V6ZFz0heaBfNz8vzdGK7vsJoAinksze96h5AAAd7F44IlLGeD255cXGRFIptWplKMHpMtCK5CKQ56SFYkiL8xkbCFhk1rOTAd+OlN15DfDuJOU5mSuTG5sIBuGhFLm/E4QgMMBKHh5y/dVz//CwuXFpHKcYwe0ZSewgIhY+rIxC2k7JRnr6ChWgKKVMel68zykSvAwOM4qEledBOznPznpHvMrBUCBrrBgL+fAnTE6Q1TMexmqgjQh6mnQBPBpCDUMQ6radDgZ4DbI3Om5VaFlWbHm4Gg3Z7b8f4E4DT0CGHeloJDVyRiXl8WMkUCH4vQ+/YQJycc6srwNWeLCkaNfh7u2A1F7B2+So++aePkA6NoC9E3ropg2SaiVtqjOEe6IH+0hoIn3GJnOyJiSQYsgWH6TzqtMq90SjaPaQN1o2JGfRFRv4gr5ug/8Aoo3mxz/i7gfeiz0ufBKcdGZPE7uHNdzcczZ+kL4rDoUzy7mZhbUy2GoIl9G6bhG/X245a5Upkssj2NScE2kfZ1lqT5XiZZDTfm5/lu7wetcihWh03K5ArUEVJQEngyUrgEYE0l73c5F0GvMh/+gu8e2MNmwU7DLHjeHtsGN8b8cBpaTBYDSZJwHEMsZUtLFy5gP/6H8+iQiuYr6MXoZiRYfP8MNO61ZP5O1z7uIzLV4MIucuw2fPIbq1y2duHsMeLY/0RrPl7MMAB3mWoQJdexLnfv4/3PvgEi9vksRm8pJeM4Mhz3QTi9BxXhRIQcGqEzcNoGE4L+cc1ZLdzsFUtDJfmRJdXzzjOzUevgVxZGyOpVOl4yExmRjrEMWHHyNEABjlIDqwvc9XBioTnEAPc8bYh1aavywt70ERO7SVMTp/DZxcmUWBUlQufWxHtGcOxt97BG4dI5xmsYeD8X+G3f/cutnUBcqJfxfEeTorCVgJnDgSkNZjMFrj8DJ7He8FodsIaHILt67/BhS/O4hfTdEi1hzF4+BR+9sen0UsAzrF+nxeBALRKcdmYawJcFqdvAbPJIc942WY/QbIVfqf0IRkqJRukhRZqyoX9ykiOtcnuxnMvDuPjT/6AX/xff0uKjRWRQ8dx5I3X0bV0ESaPB9XuMKz5K7g29zW+uPwJ0s4JnL3kwPu/9OLw6z/FK6cP4fToyxi+/Nf47OsP8N7vSvBEX8LrxwZxut9Nug7PX+cEjJkq7aTyWOnEZGCmRZOnC+7lOUS2P4e5FOM+Ht5q+14h+/x+alPzRY18cTpLyj5XhrjCIes/91WvBgZ5zC7NaNwZWqXar02r9S67PvSmnSs2cvBu53+4StlOXreYoBumoHbU+XAtUHsrCSgJ7C8JPCKQJq2S3MtQ1xhefbNCgMPoDmVyKoN9GO3vYSa2BqdTRKGln2aovK7hE3iJzoThdUYbMDFGtDcIj7sL3Z0OctH8eOuPf4ojuQqKjEPtp5+i0UGA7fDSej2HKUZuuLxgR2xkAJ2BIJex6BhlZbi10VP4jimIZKFOoCFRRDow0hdiUgtm79tfenhMrSVXnPI6/PaL0Pv9sPocjPpgxggT4JQJhwMErY35jgwZNvSdHkdguAQHHQ+FH6gnz9pCECWlo6MLJ069yriyftJ0dHCGaEGlxdpEq5W5MopXfvQniB7bRJWAmOEk4HAz1nG/RIJwwew14JUf/xTdm6SEkBXvCg/TQTHIuOCNyZbeSB5v/wDe/Fc+dPYH4WAGRiNpJcOHX4HV04PB44xSYeXErTOGsahk+pP27vdCIE3Lct9pRtWgt70h5IOPvEm7g5x1dy86gl44NPHInUyqUl83Tv2Uqb17O+Fh1BKZIHm6+nH0Re7k7WQYOgs8kS7EGGXDGXEy7jojcARs8NRjGDn9Hfy5qRslRguRFO9G6jTcO4zeLlKkPBYceeVNuPpGcChVZjSRQfTzXG7GrpRJjo6ZKC2OTpz4Ifs3J2RuIioz47yHu8fp2OTgZOtZp1Dt9/vwzvY36AxGZrbkxI3hDlfSJVpSiStbeKAKvJbIEpozIuuRVcoWqrujwRWCXrEgS4hNHSOMtFJvA4RzCsHMhi59BR6TUCbYbqFetQGi39Fw9UVJQEngwEjgkYG0wcylZ4bLOv1a332EwYeQzgx/bFh7HbvL3qe+/+Nv/SJJX9Ymz2BuPYu5nB+vd/Wgg9QRPYE0uLQ9cFheL37rOLWhKQED7IzrOvjyTgs9ubcMUXxnEcRmQXS8/87NO77ZmDint2/89pZY+PZnjOCF7/K1Y8udH+048lonjty58dY3HeMl+6IunI7SutkszOrXM/qi9mpuOljvQrcxo5MJaG4Xt/YxvEMMjd8YVpBxeuW1s5jcHRg8Kq9vSD4a2rFbDINevo6/vmPbnR97j70ELhrtXnRWmO1WjL2yo06uVng7hhh5ZJCRHTjJaWVtevezqq1PTQKc1JFuFOHqVCdXEz2kAYl+uemRi9A9ygz9VilzJZETMZud1Kz7mrgf7HTZbEGjk9iZrUujPrVQb9OaXWeGT/H1sQhAZzOa2x+sRWovJQElgWdNAo8MpJ+UoOq0bvoZqms05sWhwxGE/Ld5o0+qDeo8SgJKAndKQMCVAtB3yuSgfJPoOSb6K3jcBNKk87RahD9dpIN5oVDQALSHMczbBaS36EArUYmCQdYpBpYWgHTzOuuMNJXNMmFRnL4ezY3qXUlASUBJ4C4S2NNA2kAuqDfKJWcfObY6G0LkaYrHsypKAkoCT18CCkg/fR08rhYImUEs0/JqtVRYWYXcEANBrliNzeJU3IZ6pV1GqUfq5ruR9YrzbqulwvjOTe51q3U9zuNFRzJvELDf/NwSt+VxNlbVrSRwgCVwTyDdtBo035+0HAyMZ+wO96Kx4P2kz773zyd6ab72fmufrRY2+0zz/SBe/UG+toOor4e9JpkotUvHYuWusr52m3gFRGp1s379TSrGw17nN/dvpO/e+7ZoaaEmUnqDNj/LB4qiEZNf5MFJRrt0+E05qe9KAkoCDQncE0g3rQbyrjrj3rplRB+iF6WbvaUXaU1TN+IA1exDe6+VrbVIPQ9ak586WkngUSXQsD7rUGIinEpVElmRg65NVGj5l8+k0hTIR68yJ4DdQsft/R/i6FFFpY5TEngiEjAuM7HGbkXSmSaTjCnLIg5FuVxO84zebV+17clLQHSTz+e1bFmSMUuyZamyNyQgekmlUlxqNmr6ke8HrTQnCw6HQ7vOg3Z96nqUBPasBGQlko0rE0QnGWc/QYfL7QJTujOke07iyuuSjAFvZrx4Izp8pLwoOuSeVaVq2MGQgLEJlr95OeJpLeBZioDqCh06Dqp17ZvXvh++Z7NZDaSJXkQ/4sijyt6QgExsBDyLRVr0I6+DWEwmkzaBkwmDKkoCSgJPVgJC55CU4JvZIiQHWYljtq5aYOzvCvMzWNHhcSqH4CerEnW2Z1QCRg8TN+xWBJwJIBDLk43pX8XyJMBAlb0hgSZ/0Ww2w+lkJkllkd4bimErBERL/5H+In3H5WKe7gNW5LkgL/VMOGCKVZez5yUgz34an5kx1gA3w/45mVE4U5TkOdzKSbukC7eaDIj6mcCJVmlVlASUBB6vBIxexhnerUjcz0wmow2WAtTcbrdawt1NUE9pW9PKKQBagJrdbn9KLVGn/aYExEIrKwRisZUJ6N362DeP24/fBUyroiSgJPDkJSA9z86kWp1eGzIFZn8tlVFlf4wwvXvEyzGB/GhxNlRFSUBJ4PFKwHg3ACZAWqydUgSsiWVNgIEqe0MCopMmN1p0czc97o3WPlutkEmO9B3pL1YrsxUe0EmOWMZUQpZn695WV7u3JGBhyL+A04I1sx5lyUbK7KVRv0sLFdsObrTA8McRCrDd8L7ZTpnXt3tu3+627q07SLWmHRK477qPDJbyUmVvSaCpl+b73mqdao34GBzkfiPXJteoipKAksDTkUBjVGaIQsa889DmZTfb4PUFNBBtM993aL9vo8VHsU6Ltl4LoXff3R94BwG6Eu67UW97YKqsjAmlxcj31hLFf/symjS2b/+itigJNCRwz952kIHAQbgBlH72vhYPqo7U4LL37z3VwoMvAc3GRUTtIMWjpjPASgC9up3RwuC1YkmWegv09ahVmdadqNeSbfh8tEOi4kOSzVSQ1ae4cteeiEZVhgIsl0soM8KYKVeDNScs8taKTFQkK2clm4ffLaFMVUzu1iR6cI++J5B+8MsWq3WNnbcRQ1fLNnWPg2XfOuNeSuB46aSKx3UPYbXjJ7GOsp66zNbFHCCfRQd8SNb58KUSGjqQbdxR9mv8k0j/FVJIyigz21ddbyDNh5QFySDWqIQ6rNEyySro/iKpeoslPngNRhglooPZpO0nKXdr1RJ/4zvtBUazFSbGNt2pdwGcsp+O55C1OalfjqmQYiTHSfv1Uq/ZwmMP0D0j1y0vXt9OcCoDmBTRRbVUpA8RH+h1HcwWq+arYJQEbrUKBw/Kh/qpMz2yiYOoUEq03G43663xnYLlS5yHGeGFkhU5WjT+pNhu2A8rHIDo6V9iBzaIbsjxFv3sLHUOKNqaKfur/FLnueWl3TDalp17q89KAkoCT0oC8uyQZ2mZ3XwrV8HCFoEqn8NinX3UInWKw7SME3zQ0Kk4f2vseNQ6m8dVBJxWDDCVCwSnpbY8PeQ5JytkkkxHry8z5J+0u7UiNeh47XY+iy02sfw/ujxba4k6eq9LoD1AmmBLQE8yX2f6VxNcNss9b7lahcCMM8d8mTNdAjM7PY9VeUwSEBBNsCWwrE4QZKJ+5PlaI+gtZRKoGB3Qc0nQbuZGbqsxiH+FYFbS7TJ4G49NIr68gY1kEVWzC11dYQR8LojGalXWSwBW4BNcX80yhmkKS2sJ6O1eePx+xDr8WlrgaqWAQnoVy+sZ5GsWeDr7EHQy2oic82YRoFbJ56Cz2sjzo5MMt5dyW0hsb2FljRYWPtktDje8Hd0Iusg7Jh/wIBSZzEjihDKvz8yJh6RRFnBayWcJejk4MLtndn2BMd0zSBbJh+zpg9/rhsdECFxMI7mxicXVbdStLviCAUQ7Q5BOrZMJDgGyNnmpFKnbHBZXtih/A8xuH7ojAThtVkHElPMm4pvbWNsqwt3RS/26EXDc7pMC9KvFgjaRIulbq79WzqFcSKJucnPyI74Ut3V5EPSirkFJYD9IQCbfYinNFUtYSlUwzzB4ybqZzxOZUAscbqHs7NJl1tNidbdawnql6jofS22vs1FzW+ptGJRqcPMZ7SVWEcPfwRh1bmlCfWiTBNoApOvYnr+K2etf48PNIA6NDuN7JwfuOawWUuuILy3g8ooDPb2dODoWbtPlqGp2SqBCILo+v4CzH1+Ba2QU0dFBDIQYfUXHSc/GCi5++CWco0fgj3UiUInj0hdTtGgAvW+8hG4fH8TZNUxf/AO+uraBxY0CrZVGjBw5jbHxcYz2hFDYXMXa4gImZ1aRqSSRyqWxGc+hWDUh0NGHU6+8if4gnWA253Hugw+wkC0jb/bAFRrGy88fxnBfB+y8AzduXMX81BIuT2Vx/Hun0D8ag4uWgLkLH+HS5Ss4v26GhRbSULQXw895YWFop/0OpGslyikdx7mPLyGjs8J/5CiGIx547QYC6xyun/0K64lN5B16LF6fRYoJeGocNE3BkxgfHcLLRwKYvvQprk/OYWqJoJtP+XD3KMZOvo5jg144dRmk1uZxbXIZG6lt5OoZxFfTyGQ5seLk6cRLb2FssBOdjiLOUzeT80tYLRvgDAzg0KFxPHdyFA6C9cLmMtZnpnDxShLevh4cefM43LoaUkvXEb/+GTqOvg2bv4sj485Rd+ddqD4rCSgJPE4JSM8TS2yJ1oY8jRoVrjhVuULVsCa3cOadXVpA9M7vLVTbqIeVyWpZu+qU9mh1yZ/2IP4mkC5zSiKrge2ptRXBqWP3qgRaAtLSUSuFNNZuXMGFjz/Ab9JHYXAENCB95wXXUSTIyqaS2E7lkFifxfryEr5e6oTZ5sKRET9K2W1sJ7NI5sow2Wl5dDtp2TYin97iwG+H0eqGGK7L+RQjBXCZyR6ArpynoS2BeLJA6x0jJNgdCAT9WuzMb6xM39mcA/5No23QupyKL2Lm8nn87p/OoKdkgT4SQ1+AjwOCqnRyjeBoBj2eThhcFlTXr+DLj85jNWeD8cQp+O0l1LaWcfbCZcxt65Ep1WGnDmdvuGC0ONBFi2YusY7V+SlcuUIgbaLFWk8eHa0M26tLSBORG/3DMPaS8rExi3NfLaHmtULnKCMdT2OhKwg3LZ8RYwnLk7x/zlzFB19U4R0bQNdIJykNBazMzGKOIHLb0gc3rdcSDUMAozx/93MRK3Q+vYnN2Ql8+ftPkbKEMBoeRJfPCY+V8ipu4cbMHBbWVlEPGvie4rYcLfhlzHx1CYZSDYPdhzHLrKRL8TjSOU5WtteQz9EyhRi6Q2Oc9KSxtXIDk9eXsJxOoWzjmgTpiLnNFLLsZ2Z3H0xcArWE85yszGNpMwEd487mOalZtDOZQ18vuiy8hxZnCeo/w+8/zKH/VT0G3zwGJ0q8t9Ywd3EC7r5XYfUpHL2f70fV9gMgAXmsa//YF7nyKMnTdO18TrYT8DbF/dgm32xsW9rbJHPcrkxEevtb80LU+7MugZaAdI3k/vTKNBamb2BqdguVkEXjWH77Rqtja2ESVz7/CL85N40sF4dt3ghsjg5SCDjbI0iIT36K3312EWeuJxAYOo3Xnj+GEwNe3Dj/LqqeYXj6XsIAB+zt5StYXZqGZezHMG3dwPbEx/j7T2eRNZJKMHQIP/nn30d30AfnM7wGI9SZUnobi9OTmLw6ic1MDeEil6ZKDc3UC9vk02WR6hwkKDZDt72CyYmLWFlNIGdx07zBdOO5VaRpybyWCeGl772C46Md8OUn8P6nM9hYvo6t/BEu7XN5n3xaY/cxDMeC6Iv5MRbxY/3L32F6ehFfz97APM9lEAvJ2Dv40Rsx9NjimPnw/8U6reWXacnWV5YxN8N7aHULmVQA1bI8vGQdcQsl4yC6x4bxJ++8SX0yyQBpKSaNw6uxgPdn39VoGxlsLs7jytlzWNlIgeZ71PPUTY2vSga1/DJSNjcnPi4Msg8ceXkAQY8dYTrn/NN//B+cdJImUzgOz+Ar+O4xK3pCAeSnPsPFyyv47MZlAuoYCnpmVyT1ox7oRbjHh96+AHUThG79BpbPn8GXWwmsTibgpCNN2n8CR0724HvP+7D4yS+wWNvCudk4m7OJ9NwkpuYXsb3tRqxAhxuuFABp5Mp2xHkPFGsuDt/NAWd/qkS1WkngYEmgnQj6YEmmlauR0bMxgrZSizr2IErgkYF0vZJHIbuJGwurKNNaPHD6OSxWgnDYGw5mTWHVyM/ME/DO3ZjgEvQGIoMjKNGKXaB1kxAC+XoexUIc12aSHPi5fO+1ID63gMVIGJ0BC/LZHLZprd6srKBztIiFZYK7GxW8MJRGfGUVV69wwLdG0NlJaytpImZxgCI3lIi+2YRn7l0c9gx0Sgt0k8qxXUN8egI+xp3W02FN1qdy8VXk1hZgIZfZ6bIjGLbCcvx5rM4SIGdsMJCzS49BLUZRnRSEJC2Ym5tpWMmJXVnfQpxOaZvk7JZXF1HKJ9A5/jIGSUvopb5o1MQyZV82OBHqCBH8bqJqKMPZ2wE3AZ/fQnpHtx9Xc0XUtwt4vjeMoVNHUdb7sXUjATsdCetV/laMY37yEi5dW8VkZob8YR9iPQN4/pXn0EELupNZvfZl4ZNYbyI/PBhB95HnMLY0Qe91DwzkmutkeTadRHJ2ilZ3E/zhTowOj5Ib7gN7AnSJDOoufvaG0UFZ2gLkolsNcFn12K5wQsqVG2+nDzarCaUkec/zk3B2/wTBrkGMdVLPnF1uJMxIlS1w+AJw2NJc1VmFLXwILnKrfbSIl6N+zK4C15a2cHTQji5OZOo8LrEch48yF+fSeiGB7bVZ3JiawKncq/tSDarRSgIHUQIK6LVXqxp45p/tbAHXlzfpqM1x56YlXRz3gy4bgm6VDK29Ut9/tRkfdamiKOB2aQoXri3SQ1YHL3m2lnlaQot5Oh1W4KQzmHgSVwmkE2szWI0nkKj7cfrUi6gnZ7E0dRVXKvy9zmxMdDRLJOjoRk9eJ3mZ0wsrWIttYWukl86IHNwJuDbmZhB3pLGyVcB6MQibgQ5ZBNmbcXr+eqPweAMI+H1czuICF+t7loss7RktBE6xfjqtGbAeXKdTGDnPEl6DJJjNtSQ2l5NwWDsJpJ3whQlwww4sf5GBcYEOf7Ro6wySFt6DAXKcUytzuEQqSArLWKYuslzyTyY2kGYdQrPo7oui12eCp5qmnpaoI1IXuEIwOBSDeXMaKUadsHpIGbEaYWDKWgcTBmQWSNMo0iM6HIE7SrfGnAkTlkuw8J4R/dVzOWQIKtdIIUhP0aGGTnKJVAqGSBdeHIywDsc+tQ7wWuhA6CKQNtoc2LiYxHqaEUw4edExsobQLpam1qimHvi8fkQ7IkAxy5WYVXKl5wCu5Ph7e9FJWoyDXOUaJ6TbS0ukedCh0+DB4OEBuCw1rgAlsDCXRewYrdHdIXKhK6TUrHDVgZOhPCc5o+wzphUYknlYPLT00/lTHJesHgcq7FPxzRwMTpmguslpt2DyNwX2TU5ypH+VCijSGTLFV4WRVlRRElASUBI4yBIo0wiVKTDCiBZVqsFJzzEKkmCcAIG0msAcZO3f/9qMEs1BzNIPeyMkaJG6dvZDfHgmC7ezAmIp8lnrcBOwTQz24XDUxQFdTyBdRXwjh7w+BndvHx2cBmDMEEgw0sfWDCN2QMKp2dDtNJJrvYGJyTnMX6siOHAMeZ0NfT29jDSwoVnXrn61iZR9GIGxwwR5QXR43Oh06jAzcZ7W7DzqNjs8oQi8+tsRB+4vgoO3h47h7HSkQZgZAkgiQUiEDgG84jxBVIb5NcpshQBprAsuWqVtpHcwZoR2D0i4ubpm0fehs6MHf/Z6H/7Hry7g3KcbmPH4kfOR2xzwoLDNVYY1pqG1+vGqh1ZRc5EW5QV8/ovfYUXXCf/AEE4fjmLlK1pA17I7bjACMV2FoZRomWUbLUyhbahuax7mFYLJRrg2A4NJ2BE99BreGv0B3vzpc9DdeI8Ocav4hzPnEXO/gKjPQafJ/ak7LTwg2Sk29gFxBa/RSajGB3RdV8VWqoqL03QU6o1QtkEYaAFObczgypeT+PC3Szj+x29ilGDZrRdCRRmrC7O4/PvPMLHpQXS8D6++2Ecu+ySuxUu4snoYhy0uhB2MiFJM4gr3m5wrIGHrxotDUThJ/VhcJ43Gypvjliyr1E2N4e8Y3YNRPczkbJuznNxIO/mSHet1K5yhEXQRpFtdfm66dfD+VIhqtZKAkoCSwC4SkCeejJ0Brtwe7vZqoUF1HLzyDDl6aX5deybKs1EGNPUU3EWAz8gmzSL9KNdqoqXYHQijv3uDBrM4tuNJWtMMyNJKnOFMrTHocowVwECcZqilOZivMYQWraRC92DotXSdkR8qdH5KJfDZqgn2nuP4Z+Nj+PVffw4Hl/iLVXKpg1FYF5dIRbiK32wZMXzahBf6/QR/VkSGDuNFsx2xzXVcu0or9udf4QLcMB3vh4+E6mf7xmbHJsARGUh8Te0TAWy9Qt4rY4JmXCaEO4OwOugA2ARCBG1SJF50nbGJsgS2U+UIhp+ndflQloHuN3CBxtIcVxxM+VXUQiE6EEbgNOaxcmkKc1cZ4UEfRf84KSVj3QyvRgdQWsZBSsjW1VUUI1bkGID/xperpDYMwhMkD5h6ppGc5yNQ09A+20uLdIlB+53dHYy2FkQsQAC/QmoKryOZLjKmdaOdWmP36R8RufQNeUqLdjQwWmN4QGSwQYtytMMLq02P9OI0vvp0FvGEEYe/+zJGR7vQ4TVTjzksTVzH1LUVzKV9GD053Ih2wlTB+cVl+iEw9vRwP+ykZeSXFzB18TrmNhmakitHxw4PoZPRWyobNqYxdyIzT268NYkqKTdLExsopywYINfdZpXJFT0U2UYZLDRrND9Xi0UY3A64xul46hRrjNxlMuSooiSgJPA0JaB64eORvliezQwJa2LEKKF0SMjSWzkZeEp5Aqry7ErgkY16NncQkb7DeKG2hq01KzbiejiTRrhcDrhlCV9AAos4mnlJuXAubDHG8AQ5zTZUkwuMDbzFkFxikGNCCXKmp5cT6B8IaGHVurouQWeqIJdjyDW7n5ZtHewEgAtJgjqTDQNhG+2nJS5l8wRuFwI2Rvq4Nofk8hoBfRr5vDirqaJJQANs9OKmQoQ6UCElp8xoDQa3Gf4OJ8GaWKNlXYJFZtWax7ckXGF8aC7hLybK8DsYo9huQ52OcWFywnLlKlcVluEM9/PlgbGwhutfnsWFiytI+QYR5OSoVNzG8gbrtvgZqo6TqItXMBMit9aYw9XpKgIxJ/VIIM2HUgMWSzxU3jT8LrbWal0StzCxQGEZ17/OIjGzjjVSICIE1XZxkGy0eP//5fVqGbNIj6qWyDtn6LsKec/esBNmPalMVz/FmU8WUeYKzLHBKClQW+Sd51HlKtCVLz7DZTrnrtTDCNcp83ICS8ukVy2uo6wzIXiom5NYUqEmJ/DJrz/GpqMPMZsNg3Tk3EyQzlG1kGLSA/21NaxfK+IrSxDXrzLMni+Go92MM02uNQNqCY7mfcF2sq3yr8ZQUAZzBVY3o7QYOQs6MMrY/7eTuoJnVAI7+qA24dVWj/YurJbm7t3WNe6hRvvk7+4tbRgQntH7TV32HRJgzIVHGwdtng7EnAF0DNVQzcxijdEAVr/Q00FpACe6aRUWUMRiMFkR7D2E6OIKps99gv/8f3yIsll4uT0IdTO1KR0VTeQ7hxNf4OLvSzh/yY+AKQW7nuHw1pdRGT9MCocHR3v8WHQz6kPMR24nbXipRXz14Xv41fsfYpEOdXUjqQjdIxg/GkUnox2o0pBAgy9tImeaYJpUgizBsLlAJwmzA1GvkaD09hPYwEQoRsaKNjBukk7PDHd0+vMlP8d7v5zCxEwWeqsXP/jpOxgfDqF8iaHzxh2cJBnpdHgW58/9nhE9rqMS7sD5LyyI9o4xJvSf4juHehHtrqDz47/EP/13Aml9EN7oq/iXnZ2MIkFrJk8vDySDUAkI3IwE/AYjKQXuKEoLf826zuKvZgnqLQEMHTmJd945jp6wj208CBoWQMosglZaO8hGKmWyqKfLoAsoupyUReoqJs78d5z5OoXVvAnnp96HyTGOU8+N4Huvd+Dzzz/AhYl5rJCPfuWyCd3DRzF08lV0cwXAzsQqp/tJDylcwtWrn+G93/0jcv4OGC448d4/unH4zX/ByDiH8PwIY4af+0ucOXMZf//rClwdL+A7Q914ntFCnHJvEDQLVcjEFMRGOhvKZyNDT5qKEzDNngGGQuRts79p5vWDoBN1DUoC+08C8jiUiS7nu1w94pjMf40IO49+LbdWKlmFBiVlRt2GotXLtjZXuNpQpTaOaPXIgMJmSt2tlmYcac2SwEpFxvJSRUngmxJ4ZIu0FhlCokMQANSNMUTIxfwTGiADLhe5uTfN0TybjoHhDQw02z3+At60BdEbZ3gvcqLtngDcni50d9CCze0/+tM/xQYpAyWLDV5LnYDBDzMjFNTTy5hmNIdri0zeQpAeDQQJ0o3Q2YN0rHoRP7R3IlWoEyi6COrCGBzsgN91gCyW39TYQ33nCkEojBM/fQN6WnKtPjvDyFlxyNRFi6UZQa4cNHC0mPYdGHr5KCJHynB0ueBhphS9OYqxEz+A0XsCp7cZCYV0nuHRMYQZiq3ifhugNdPCpX1r9QjeeseKwZe2UGV0EF1ND4fbjw4CuY6QA2afEW/9/F9ieIvZD8mKd4YYRWIgzLjgjTm93uQjTWcEP/y3dIob7iBVxEzKQBBHTn+XvnUE5JtlRuTzIhiJ4jAnUm7Niv5QgtiDO3NiwwnD4CsnEOUCip5ZCX28953kHNv8Q4iEyD12jcD0/f8Z/2acsbcpfonGoTNxJagzgK5OF77/83+N41ukVDGGuqwhOL0h+CM9IFsaVicnqAFG8ajTX+HlH+LfOIdQYuhASQlvpA9BqGeMk9IQw1AacfK7byM4dhzPpStwBPoZ/SZGEE3AzFFDp3PA4urGCz8jDcTDlQlOkM02nqH/mMaPdnuClK0aXvbgDaaa9CxIgIBRaJRWzsQjdBp2GOxY5WS8QPqkliW1BRkIJbAJSPUc6wWjtqNIvVW+jDSe7ATrrdTdBOVCD9QmFDcNea3U2SBE1uBkBl+Pkd/adP2ttEkduzcl8Mjh73Zejs5IpzNGf3iBoc++fbfx7qN1MxAbhj9KAEVnNgmtpiflQ/C21pF485/8TpCdi1QPDsrCQ5JpZSnPTHmzXzFZRA7LpRCe7+5FhDQRPYE0LD70jBxHdOCI+GtpYWmERmJgB1I3fFM7zADo9WLgJY8oRvuPuodZC+V3sTQ295OJD60OJRoYAAAoiElEQVTIY/2UemMmr+mFS/1dQ1x16GVkFU3ItEqKxZgH1hl+TTNCSh31QTz35gBO8uFYI39ZMwZQD5o+aDrWE4wdIaAfLVU1/RrNkr620Rxpgc5AgBZ1MnRbl7Sq8QPD5/WNPo/uIfKlSSXRMaSeWK21W0MO2vdFkiaYEaHMb0tCOhAQ6mropk4HF2+gC/03B0tJ397oOwS51EP4u12a9Um2ywAi1mLpV3p5F5qOpptO9B/tQO+RFzVenwy6op+GbjgRpn76j72AnkNVjXuu6Ya6uz0VtsBst2DkJeq7qRvSq/yRIa4q9TGb2k19ay1Xf5QElASepATkaS1930j+rp+rW50chz1m+lqUypww3+7FD9smeUaUSoysRH8VGQvMslK5w0D2sPXt3L9IH6oCfWDsdDQ3yZq4PKdaLNLOCgMbVBhG1MjIUBZL6wEHNMqhPHILtGmwOiEdqqIksJsE2gKkGxXfHLh3O4u2jb9zVmuiM5QUDahpn7QvjDJBkMb7VBZQbgE8Or/l6YjIvMnwH+/ByOEIQgFH4yiCBQOjPujFJH6z3FFnc6N6/5as7yoSDcN+86mm40NaLJ4sVEzzV91OboVMjPiDnpEk6tqOjTPcqQ/q9yYKbtZxZzt26L35A+s1MGGPVdPxLr8399vH73fK6E7JaNFXOHgx6FxjcnLrVm/Kgn3pGzLfqSNNLOwnUo+oRfRzuzTrkC0NObN73nmv3N75W9uln9KmxD3EH2FnvTsOUh+VBJQEnogExNBhYXjKEH1Y/E6uPMnEuoUzy/EZyYjKpGtijXY4XTRw3XoAtVAzkJIMxwyRGtYcmm0t1dU8uEwDnTio5/I5WOgH4naL8ai1Ik81yaa7sV6jbA2aMUkvcr0FUFqrXx19cCTQRiD9YEK5+03Ibt/4f7MiAjhG5AhyCflUmIAaNnKlSRPYCeB4gLqnH0zuLe21A0Dfu5576+Puur9Xrfeu815HHpzf7iWDe/12pwTuLf8Hr+fOWtU3JQElgb0iAVmJ4tS55eYIkNbq4rNfqBImTuhNtHq3o4ilXAwvRv6RlbV7P5ce7Iz1aoVO9A1DgKxKt6utOhrzpK13k6jgD2n/3X5/sNarvfa7BO4JpJs3ePP9SV+swWSBp2OAnE9VdpOA1oGlE0tvVmVPSeBZ0I267fbULacaoyTQVgkQS2u0SVkOa+eak9QlTEGpv11FqhKrvNBcZBLQziK1aS/+kfo1ech55J/2lSFB+S7PQ4HU6rnYTunvj7ruCaS1cGS8DnlXYG1vKVT0IXpRutlbepHW7NRNsw/tvVa21iL1PGhNfupoJQElgf0jAQHMAtSr5Rq54gKcG4BdgLUkEhPnSbHgi+Ve/ikwvX90246WGldXV3etR8j7yWRSAwXCEyoUGNOZzl6q7A0JJBIJxsvO0yGkRB5bmc4Vlr3RMNUKTS/pdJrccqOmnyITmBy00pws2MhHlOtURUlASUBJ4CBKoGE0YPADYqKtVB5FOjTKK5ljcjCCaAHSUvxOG4JMF26is5ciexzEO+Hu12SUAX+3IkBawLMULVwNvysgvZukns62XC4HAWiiJ1nKEkCtyt6QgPQbmeRIf2nqZ2+0rD2tkPtNBhcB0GZGYFFAuj1yVbUoCSgJ7FUJkLfB555EQ9lM55HMFpBjVJMsU4VnCmW4bBbmZGg4Yyqi5V7V4eNrF6NdSWa7bxcBAM0BUrx1ZT8FpL8tp6e1RXQiKwWio6Z+nlZb1HnvlIBMPEUv0l8Osm7k+hTF407dq29KAkoCB0sCTcdLK4FygFFRkrkS0nmuBN+0REtI0ajPqeU3MDO6hwLSB0v/D3I1xkAgsOt+AtKaS9JOp5Opv123gPWuB6iNT1QCjc7N0HBWK0P9uCFL7KrsDQlkMkz1TbqNgGjpOx5m5jyIRUC0AtIHUbPqmpQElATulACjmHCDhzH1O7wO5IolrGxnYGEkkzC/RwikXfxNgeg7pfasfDPKQL9b2cm7FZDmkODpbYojudv51LaHk0A2m9XAmgBpu92u6efhalB7Py4JiEVaOOuyiiN952597HGd/0nV26QUybsqSgJKAkoCB1YCEpWDF2djspcgrdJlJn8p8eWglToWdDObsg1W/vagpRlaUOqU8ILinCjvj1x4aLOO5ruE7ZOX9sMjVywRSyRbZMvV7NoCueZGKvZdf25p45M08txT8zJAykuAgSp7SwI7daOAzN7SjbRG+kzztfda13qL1HOhdRmqGpQElAT2iQQ0QMq28l2s0gKazUwW5rCaEaKD4cNEZ5KqTIy4ZWRODFbRiKfN73VdKzirEcVLi81NcKq9yzlarldC/ulRI5I2suEaMG+TykQOBlaoq+u09zZVe0c1TwpM3xdI39Eq9WVPSUAB6D2ljmerMXxYP6mH1LMlWHW1SgJKAntJAvKcY14WFOhcuJrIkRstNtq69l0s07lCw9H/gdflxEBJQ0s2KwED6KyINP1pCKRbXNmTDLbi6F4k7cRUqMOUbfq5tQLQxceSIf5I9c3mKmxpFpttCkJVk4AWdMoXg5P421hzNWa/FnjdWhExlrN5WAX5P6FyTyB93zawxbVKieFfmOOeswojE6jIDXFH8sFdKtFuGDlWlkt4k8oyhyqPUQKUdbOT3wI/sk1WGuQhwc9V6lHiZNaZlttkoWOpACU5ql4lhaTCjsTfOLs1cyauOZlJc7V6uV0q55OmVpN9q5y2SsppmbE3wiXW+Vu9xsxT/I1dBZJoR2bMd6hdKpH6eF5pk9wRckxVMlYxdqecQsfzG4yMEsEbrKVlMNa1l0rzAXpLN2xcnbLkFWvyqDFNrzj/VqWPUTeSDUzShpfpQS7bpR9pMhO5Ufaao+NN/TUTCIh+ynwY1liHjg8tM/XT7Hf1Wpn6pe4qfKCJbqQP36EcrUE8423dSH31ekXTGX9VRUlASUBJ4MBJQMYheeX4rE0QRC8myyjwOSnPanlGEmJy3JMH8IMXed7Lq8J6qlWOt/Snkfqa48CD13TnnlKHhOKrVRnHWl9n+6ReGUcern131tr4JmC3UpG2VgjQc7vt8tDbGnU22qfT1WHM5DQ5PHRFOw6QKxUoYeeYFnYyikpjyNqxx+P52BKQlsG+lN1CiqFgsszP6Qx0wGmzwnafWuU4AQBlKtxIsGX+5qD9eK71Ga2Vd5WA3Jt9SUCwFAHR1WIBdQKqapUPh8QGMkV2cJMdnnCIOmRwefAmrxWQTiSRzhK0GW0I+N1wOmzQahEwxY5bZl36ahHFQg4b21nobU7YHU4EuOSlPSAIiCuFJLb5ICrVTbD7w3BZDLDsnHHJw6VS1tpDpKc9vKrlHLJ03NtO5rT2G8zk6nuCDDVkgsUkj7cDULSHqkxC+OC7FQWDk0yCZ+2hYDCimN6iNSDPPmagbsJwcGnRgjKyqS1kOPMucJKj57EGk5mTICtcThesZgJqTlsEIHOWxFcRW9tpyp/bqZ+AxwmL2chlNd4H5Swy6Sy2UyXYfSHq1w6neYd8Nd1UCOoJ3wWAU+z1aoltzLKNjF9OfTWGmwOgD3UJSgJKAkoCOyQgcHktmcccgd5qxcFnKJ+b8rv8uTmu7tj9wT7yWJ2ukfuhrhm0H7Wib5xOM6BIi1mfVmV76tVMW3K9ZVYrSLUdRepje7UiVbahXqlGjHUBTiL0Zj1G2tTURiPv/vc+kPfuBxYzG9hcnsbvP/oQS+splA0eBPtP4OjhURwbicGqWQ13P76QXEV8eRGXlx3o6enAkbHw7juqrS1JoJpPIr60hPN/uAzH4BAiwwPop2OEUc9g8hurmPjkS+QY7CNRzGH+6jQKBNY6Rwiu7pfw+qkedLkLmLv8Cc5NrGNhowwDAdix517CofFRDHS4kN9YxvrSAqZm15ApJ5DIJLG6kuKDxo5QdAAvvv4d9Ab0KG/O4asP3sdMgmDQ6IM3egivPj+O4b4O3ifA9sIUFqeXcOV6Coe/cxK9I11w8Slw4+y7uHjpEr5cpiWcHS7c1YeRF36Ao71eRDzWlmTztA+uVwqchG7jwh8uIcPJhWf8EAY7PPDaObHhb9c++xLx5CZydgMWrk0hsbWNEh8Qjq6XcHh8EC+Mu/D1lx9ianoBS1u0WFN3pTodh50x/NHP3sJwhIkBkouU6SLWpZ5qCsuLnBDRmKCzePD8q9/F2FAUEXsBFz54D1dnFrDA3zyRMRw9cggvnBzWJlPF7TVszs/g4uUtuHtiGH/tGNy0HqQXrmBj6jOEDn8fNl/X7Qfi0xasOr+SgJKAkkCbJSCrtaUaQR+NOTqdiU/iVhEaoelNDHnzrX0tZtOENqEB3jaA01sNkwaLUaXla2/WqMHzxhepWvvUulyFyFKhqa9CbveTKo8MpCuFDJJbq5hbTTDbT5HWLQNmv7oIj8WGru4ownb9HRbHUo7smtQ2NmhdTMXnEGdGxUvLEVgIzg6PcPk+t43NRJpgrAKzww2vx8W4jEbkaI2jCY3/PZqlu1wgUCPw09uD0JXzqGQTWKels8qb22p3IhgKaI4AO42dT0qYe+U8QqWo0bqbii9i9vLX+Ojdz9D1phm6cBd6/bxR67RAJtdweWIGFU8dOUMVi1t5mHS0MNLyfGPuHPqCRli6jZifX0ac8k1nyjCnNjF3vQN2qxexkIN1xLGyMIMrV1eRNzLLIqfW1SIzYsbjyKdp3QwPw9hNq+gGgfTXyyjKUoWthlzqPBZjAbi9LoQNRSxfv4Kvv7iOD78owT3Sj87hTlo/C1idncfC1DxS+igcVKhQEyQVazufDU9DZ3WuAOSTnIguXMPZj84gbQ5gMNCnxSL1WGWlYAszvPbF+Brq1MN8PIkSE/BYjWWsnL8EE+kZ/f1Hkecym0TXKZIXl1icxFbOiZKbeslxWz6FzOoMpiYXsZROomItErhXkd3KIJ9dxERggP2TfS2Yx5UrC5hb30TFaUd55hqWXHYs9nUjYioTMM/i+rnP8fFHafS8pEPfa0fBsyC1sYa5S9fg7H0FvB1uDQpPQ57qnEoCSgJKAo9TAsKPTqTIZzYTa+hN2qrc4zzfo9Yt4FlWgQ2MsCY0W6FDtnW8JOBtO/C/ebHtqleD5wTRAsk1OuKjCvMhjntkIE02JUyOMI6//e8RCbgR1afx2//9P6OyuIy5dBVeiwDp2y1JrnBAPn8Gvz03hQxndhZXiHzPEJWtQ7XETEHz5/DJZ5dx5to2gsOn8dKpQzjW6yYQ/BA19wCtYafR4wZSa1OIr83AOPA9mJNzSF7/DL88c4Ng0I/o4Dje/tGb6PJ7YG+XVm5fwr75VCfgLGUSWJy8jCvnv8LUUgK2FOkVpcYMrU6gViinsObopO5MGOvuwPEfHMGglxSdG1fxt//hb5Hf6kW8awyGztfwk9d7ODEifWPqC3xwNo3lS5Mone4jkCOtQHC5vx8dXWH008L8XF8nVs/8BtevzeP8tUl40ylycQ3IxX6KP/rBAPoccUy+9zfYyGzi8pwL+soKrl+6SDC+jKWVTjpLkGJNoEY7NUr6QfSOD+PPfv4WgTTvJ417LQ+IfaxcPtUqpMBsLs3g8mcf4/qNZYCTku4CPaOrvK5qhmyaJWyZCFc9ZvRGHeg9eQTRoAs95gT+7j/8NxS2VrBS+wFOfOdP8eYPaCkp5DHxu/+KubgJKedbGO0MwVJfwioBdMFOGk1gGNG+IE73x2Bcn8H8lx/hi6045q9swBorYdN+DEfe6sOPXgvhxm//byzW4zg7u4nj+k0kpi7j6wsXMTsfhPeQ6Ebm+5wUl+xYz4xhqCJrBzssC/uml6iGKgkoCSgJPIAECEy3k1lM3yD9sb6NGiluT87W+QDt27GLAGmT2YRQLAo7c3+YJOEeDWvPShHwfBsd8JNY0XdseVxyeGQgbXX6udRuhI2E+YWpz/Huha9wpWzGqDuALgd5zzdBdK1SRGF7BjOTX+Py1BxckS6Y82lazLZpiaM1tJ5nOuU1XCB9IEGrp89jwtrMLOYDXoaVMSC1tYXENpPBFFYRGilidmEN16bSeD6WwOriEq7T0lk2BeELRdARommsxLTZ5JfSRP64ZLb36xWnPJMV/u5hDB2uY2PuKvw2Owy0YMo0Lbexglx8AWa3E739fRgb6IaRqwCOSobAmEtCQXZCcmWjHR3odnmgy8xg9vxVfPDheViCJzHc201eO2fnG/PU3RY6j/wIAxEPrdhW8msNKBnMqFicCHlCdGrbQt1Qg3soAmfQA7elgI7eAK7mSSPZzOF0TwCjL5xEzRJGdiUJB+MB1ci/rZc2MD/1NS5OLOFi/ApX1MLo6RvGq68/T9xJnvV+5UizX+vJM3YEoogdfhHHlq4iy0mgid7bei4flgl+U3OT7PsG0mMipEqNcIUmALu+QGeMDOrsXxZ/iI4UBjjIFTeWt5DPzGIuYUbVFcZzL3bC62W/mVvHxuJVuKI/RoA0m9FOG8IeC3nSRg4GVjj8AR6fIedtDfboCJxd/O50sE/7MLumw9XFDRwa4OoSaTx1lxHZxCZCjJlaE158kTSe9VnMTk/gVP7Vvd8fVAuVBJQElARakECSK+kzs1x5JUdY/I32qluXOPBZ6eNi97i5Qi9h+Wio5Apme83SLQjyCR0qEwrJPnmN45hY5gX3iOO9hZknJZ27JNVpZ8ACY75Y0SpvevA/6HWarEzQwqQTrsoW4rRQJRJrKFj9KJAmkMsVUJVMe2JtZjSIxNocVtZJ3Si7yYc+glp6CevzNzigEzTR879Gh7XUNp3VSCsAaRtrU9tY6oihf7ALJkZpKHI2GC/MIm5PY4Xga63goXWSlrh0BuvLtLo5XPCZ6SBFYKhxeFjfs1wkDI7BbIUv2otYRoeB4AadCJl1iZ2MJk9srSbJb0/TIbATYU5AogEfVwUo2zlaOley8I6OIxCJEAi74PS5kLxxA7M5TlxSKVJnygTKXPIn5WaNfOhsWofuAerKZ4a3lsHm3CxWtysomAIYIgfXvDWNNCc2toATRiutyYz64aR1NbtAmkahCps/gp4OHUp5E65ZLlOvZJ/ROa6eJ/2EwHEjkUCBNCB9LY4iJ0n2rhgtq3SG9DmewDzzcdxFtN5youHwhRE1WtF7KY2NLC0cvGfF8S+bymF5ep1GhBh8/iC6o12cHGaRWF7D7PUF6PydCPR0I2zjqg4nq8XtLWzNX0G8TAfCSBQDvXZObpOk6nBFYj6PrqN+9PVGEHMydNH6Clap+9WCC6GhTrgNK9DzfBZavs0u3h+cvdv4gKlsFLC+mYXOFkJHp4P6smDq/QtwmWSZkAy5EkMs5UnRyhdR0e6pxyEnVaeSgJKAksBekIDQChu4Jl8S7rEAabF07r0iQRykVLkqLc/qJ2GN1U64p/40dCMO/ELJEWwrkpDvaY5ZkkhHi/3dxpVt4xr5rxGCEvHyf+iio/cqrcFjJ74Pf7gfn/7yv2Bx8xrevzyEP3ueVk0uK0j8wXU6I2Z1MXgG+nH6+ACM2QBmbbSa3TDCCg7iJgfBnh1rN7Zw9eIULV16hAaOIad3Yrx3CMW5TfJJr2Py600kLUPwDB+j5TOAAGcWHn0Jl65MoE4ngI6BAUaWoBOagWFPnuGihYkzW5iFiZRku40W+sY0WgstR9rE4nIdcwt2uMc6uY+DIDqHzPp1fPrbCTqu6XH8599HT7cfTk7k5JZ0x47hpJ0OfnQw/NVX5FZf/BBB70lcn3VyruTE614j3FY6MM4s49w//BbTOfKfewep6x6snrUgvUovNu1WZn2sUII8yI2tp56sPg8MpDNI5JYywaTMGuuk/tSLenjkvB0v4Ht/+jJ00+/ixuI63vv0LCLOF9BJwPcEw0S29W7SGxl1hLNkMlVg4PXWuFIgoQXrDFW0tV3F5at6VLvDtLr7YSBQzSWXcPXcBH77y2kc+tn3MDg+BB8vXnSTIJBem7oGc+iH8HYNwMWg/pU8nXnXq9TPIA6bnehwCe86i8lPv8DEVAbL9QhOcfLjrjKc03muUthuuo9IhdRDQ0mk0tBCbXMwwk7B0IjyooFm6qaiJ62rE44eRgqxkW+1RweVtipNVaYkoCTwzErAZmPilaCXTtsGLSrEXqV2aBZpuxUWZjyWJDENMC2j7bNUGjxxF3U22uWnoZjxqyiCCuN/T69yBZfgut0SMW6liwi6aT1uBDR7YGmn6c2/tU1btLUHXoZD8zAsWcBhxDrH5QK5ntJwKTIuM/kPAUOa3NA4v/dxICbdI0dwjTCKtJ5l6IT40Rwtlf0v4M+PncCv/uoMvOT5lKukjoQ6YV1eRmbtKt4lwBg4NYbnTvthY5iv2KFT+I4rgHGGbrt6lTSP935PCx1w+kQfDvf79qnFUhNbW/5ooJURFrRCRWgxJaucjJiLyPgs6CNY09fyWJlcx/lP52AK9ODkiRhGu33wGHJIbMRxfT2PWEcQfoZUi0SEDrCN9XgWW0s3kPb54fYzwoahhPiVG5i/toSVahdGj/ejbzTG9Kl0WKRlXEDx9uQmiuT75oyMBHJ2CS5fL9yMIKJlhJIY1QKgpal8CaWrVK4jzOgUPrMPvcEAihtOLLMTbCW5clE6ACsO1IvEztQuWBTFhx7qdATUc5WFfPSOqB9WxsHMri0w6soMHT4tOPaT72L0UA+ifnqOi6BqXAnikuP0ghnh19yIhR0y7WY0lUVk9exjh4bIkzOhuLKE+YlpzMYtcHdHcPxwP7o63ChvMGa0yYbMUprRQTIE7yasXl1HjTSRwY4A+xg7Lp0+RTHaA/lmc6vUl70jjNhL7JtctWhAevlRFSUBJQElgQMmAT7/whyrjh7pQ9rgZWCDm+Hv9uBliklEqAx2jteSy0HLFfGMPprFEm0mlUPyWQi2MGixtWmkIjgVm1E7C/M7MGavoN2HKuLglML22iwmUnFani3w62ndyjBGrZcDesDOxjfmbAbGwfX4fXAyusPy2hVcvEA6R2aZFIIt5HhBZIVymTiDmcU4uvsC6A8HEQ5baK0rcWk/D0OvDy4amR21TQZDD2OQA/9AWOzYReRJU6iQLmAnraBSSCM+twF3f5oOa0TzqlACN3uQhtP4hzSaMqOclPhP5yL4irhRXL+AmfPn8f7vFtH/wlFYYh4szy6QJ02XPzokzk1PY2uNOjAxVnF6lVK3wM6ILNXNNdI1uuEip9ZE/vq1Lz/HBfLVN209cOY2EMpYGBbRxJUCP+yWDCoTFzHlXUPcmMWN6Sp8rznRTzAnt57AYrnR5S6Ul/ytMQqy2ZpFlpmPrn/NyRa5TmukkXTwXrIT4DX203bex39uTggIpMnG0eg1pUoWRca/9IScDPmXxtLlM/jDR3PIW3wYf8OHjfgq6U4VGGNBWErbSJBGNZ314i3SmsJuM3F0Ecm1OMrkxfnGehnBJo/1qav4+NefYJnRT6IDdcRKDqxt8gFTJjWLkyf9FCkflRw+13kxO7GNqi+GIz1ckWDfIsemAaJ3SJmh80nrqjGmd4lx4LmU2Jys7dhHfVQSUBJQEjgYEqhzBdyCzk4rVwlDKOv3+vhDXMXVXTF+PGyymHvqqznoymDdttKsVCpsR71iYrpdj14cQwkypMnE0dpnsVu1uxjHYj6t8oermMk6CJT1lRQmfvPfMDW/iQwDldeCw/jJ2134wSF6+FtvAmlaJEO9Y+hgOK+rZz7B//nZB6gQDHvobOXrYZYcg4P0gDIc25/jq/kyvrrshbu2BXulg9E5llEZP4Kwy4lDUTtuWCPoinoRsHDWlVrGhU/exa/f/wgLtELD6EEkOoThYfI6CeRVuS0B4b5qBk/y1TPrWzAwDJrPQEcyjw6z1Mnnv///8O45ZgJaPYvw553kMg/hnX/1Gkb6CLY2zuA3/7iCa3O0WPJGPP79n2CsrwfupXOw9Tjh8Rnor3YWn370a/zm00no+3vw9UUzot2jOPFdRpUY76Uluwjv2n/CP/4Nk6voQ3R0exH/OtiBcfJvpW1akTe54eU7J18Giwtb1/4Bf/jiPP7Lio4OeQTe4yfws58fYeg9r9DvD0hpZHiU6ykm06gmC/Q7sCBKBz99YgIXf/eXeP+zLDZKFlyc+R2DzPfhuTfewDv/0w/RkY0jwdWdWRfDSHJVyMUkKjVmj1xbypBz7aHluQO24iVcvvAh/p9f/AKVWA/Ml1344DcuHH7zHbz23DhOD7+Ijk/+Ez77/RX8/a/qsHm4yvPdTvx40EfH0EYfFkFrk22RudxL7L+VxCzSVz5HpfffApw8y3ZVlASUBJQEDqIE6jT6VRlYgTlgUdGedbfB2qNeb2Psuwn8Wq+OzWhQGrT23KyvLdXevMDmymODLvKoV32v41pvrYBoScjSANNPbkxiNuBHO5mNEQJiwy/gn/+RC+uMTZutMHWxP4YhAVkcgJtAR0dCrMEaQN+RVxgZIoKBjSxq5DE7GH3A7Y2hJ+KAhxEZfvpnf46NPC2mVjtpHcwRTw601R2EvrhBa3Ues6t+OlINoisQZEIRLq3YAhhg1IO3bZ1IMgabweyi5TuEYTpRBdx0nLqXvp6Z30xwM/LGqXfegj7ApXo/HccIoA+fjPFxYIaPURh0R9+grGmpfLPKUDkEzhZmIzT6MT7UxwmJCb5Xf0bu7SZe3GQ0FM7EYyPD6KADom2oAwj2wuy0wVo9grf/3IyR17dQs5J2QGuo6DfSH+HqAlcnfOP40V/8BQ5v55Ajp9oZGMSh4YiW8EP0ZOD5oiNj+Gf/Gx3wRiO0fnPFwRPFcy/9CJHuY1jepGOilQl/OqI4wogfXsdBiMgiHGkbhl8/ha4y436GA/Dz3ndRbjb/MDpDfsA1CsuP/h3+lyOMkFKiI6CQ3rm0GO3thZ+6sui6MTYawF8wNng/k7nQkE2fBero+KugvRp6Uj386MfR13+C/9U9ggr9COokZpvo7CiT256uEFdzjHjxxz9B54nTWGEMdztDGfYxKouHfVjSuFOT7Ic9ePnnNpjoCe7j8Rb2zd6R5zghisDH6C6qKAkoCSgJHFQJCBEgyCy9JlJX55kfoUDjRav4okFlbOREaAZ6aMnQywZJmzQrNCsSkN58aaCydYzKuglRaZETK297SsNiLk2Ttms0zxYrlrpknddHSqKfY2G7Wnq/Zj1y+DuTlZEyCJJOukP0jCQ9Q9J92wmwyG2+w2+RQtcRMAS66CQY6kEvl+pp0tJSGVskrTH5PDo6SJ145VXeoCSEc6C2W4WDxEgOjLebWrlCB7g81qohxpXuRWdQLOj00mJ2tmjfOHwROhjSVKpjdA8zo4jYScg2iPlVFUrAAJubYemec1IHlIkAI2a/i9GAKBZELT173xFG9xjGGGfbFb5qkr2JExUHLZwW6iHo9iHQmUeRiVZqBNJ2Bx0ZyDtCuYMyp55kIlbtw/FXoxin01yFFlFZTtLRkdBMYGglT9qoI3j3e9HLRCEVple1Mr6lOBc2nQV1Rie8zMR37HsRcnYNBJhsKxPw9A+fJGg8hBSP0zMqi4X6dbJNB6MIkDajY7RPW4iSB5SAVqcnAB/nKKKbOpcTXS4/Oo8z9jQ9jUU/FLrmSGLjipDREORyY50TDEbwkBUi6lT6VrBvRNOvREhBtYOxuH2IDB5j8hY6DpJDTZKONmGykCJjIvruO3qSWS9LyDKKioXcOgudhAWUN4oFJjptDD1PnwPWb5AHtNnBCCHkr4diTA/fCHzf3Fu9KwkoCSgJHBQJCDCTl8duht9CowKpckU+hwX4PWoRYCvc5SJDnkpCLRsdA+XZKudppUgdZWIxSVxmILYycnyW95YAujSIFci4USwWYWVbZdxoR6nVqiiVGOqW9QuINhM7yjW0Upr6MtI45SYdVbTX8vU/QINaQiU6sW7Ra5+JB5ntTIrMgnY/q47L9SZG6vDSYtkoO/eV5C6sp/nLzUpqjDQgiVy2q0WUmZ64fyyKELmjch4BDFZmypPMiLfLzjpvb32WPwlAM+5YoqfgCOBuS8RI66+RKwTfSrhNHWiq1HFy4iSAboq5uZ2g9lYxWpjq20yAd2vLzQ9NfUiGJSetrc3NN+u+tTvpAuzwZr7uKGybhW1jQJdGudvNdcdB++mLZKBq3vW3292Ugo4TFzMnJLRDf6PclCtXe+RoYu7bhTIy8oF0q8jx7HucZ36rNB9aOnZgKydOjGipAfA7u7Cci1Su28i6UQ/7nxZ+RSLCPIkn1bdarzYoCSgJKAk8fgkI0DNzHPXSsBH0CB3xlpXhkU6uWaOZ3XZ7e5t+YFkEmTNDDCet8JnlGS2W7TRDAueYBVeidghAN9MoIrH/W0Hp0t4iAW8iQUqon1mnGWSgHaXCsSPNvAkS/tjITIwuGv3aYZWWtsXX1zhJkcRuT6Z8exR/2PNSgXcOvPeq4CYA2G2XXeqRWNWdYy/j9VgFOZDTyzB9Emf4VtnlmFu/qQ8PKAHKs/H/rvs3Adddd5Af7quLe+j+rhXfv213PfSg/HBfuT7Ihd5P9vf7/dvn0JYLv71ZbVESUBJQEjhwEmhai2W1+4HGw3tIQOwOFcli2yz8KPSRVpy2G7bXxnjZrLaxTb61VrdWH6uQItf+qHTgRg23/9aI5eSfFPkr9TZpLtrGFv40dSSTgEZ5+DHuYU5/TyDdbEzz/WEqbse+BiYR8ZK6wXyFquwiAdFL87XLz2rTU5RAs880359iU9SplQSUBJQElARalIAGTAnM2vFMl3wJZEBqhmJ5Fxu3vD9qIRS4VZdwhLV8DHyXKuVzK0UO116tVHKXYxtyeDxmmeZlN6+/CapFGtqLO8h7O5Lr3BdIy00j5vZ23Dx3kaXa/AgSaOpF6eYRhPeYD3kWdKOeB4/5JlLVKwkoCSgJKAm0JAFtckIfOg0yaxMCgc4yMaDf0c2ZjPiPtTqeGePx+K4NlYyEkqJZimTLEVK8ENdV2RsSSCaTGhdK9CJpQbPZ7N5omGqFphfpO+LsIf2ombb1oIlGJnHiACrXqYqSgJKAkoCSgJLAXpBA08osqd23c3mk8uLUCKwzgZk4Tl5nHhPZx05/oqjfST+i1sC0MZ1O73rdMvgXCsxqdrMImFZAuimNp/8uDgWinyZIE0Ctyt6QgOhFPJxFJzLzbXW2uzeu6tutaHqGKyD9bdmoLUoCSgJKAkoCT08CjXFXhzyjiW0xuV+aYDrHSClina4QzzoZ4S1M59F2FGMTiH2zMtne5JQIiL7bft88Tn1/MhIQnYh+5F3p58nI/EHP0tSJdOSDqJvm5OCgThAeVM9qPyUBJQElASWBvScB4UULb9xmMTAztglbDA8rYLrCCCE6ZuKVkM1eu0ULa8hkKi0bu4yRSGRXKYg1TUCADJZOJ5No8KUsT7uK6qlsNDFcjNA5JK6ji3GZbbZmWMGn0hx10h0SEL1Iv5H+4nAw4ZDHs+PX/f+xCaTlStQq1f7Xp7oCJQElASWBgyYBoXJI8TL3RYkAOpUrYTOd05wvO2iJjviYv4JhX9thEDIKCNutCJBOJBLaT3a7XQPSAt5U2RsSEGqH8G8FQAtYk5cqe0cCQpmSGJ7Sd+7Wx/ZOax+tJQKomwH1H60GdZSSgJKAkoCSgJLAY5IAwbSVPOigy45CqKLxooUj3RtipmRus5kf3L9HQvQ1udffbO09a5GBUl6K1vFNsT3976KXJm1APquydyTQ1E2T4rF3Wta+ljSvsX01qpqUBJQElASUBJQEWpeAIKImKpLQgg5mYxzp9GvOhWKd7iOQFkrHwxSJcy2vZr07j70vkN65s/q8tySgAPTe0scz1xohoamiJKAkoCSgJKAksIckIJZjGZ0kasdWtqA5GQqFo0DHwzrD3i1tJBtZYB6wzWKrrFZK0DEjpYkVf3Po+/8B0DXJTRv/UgAAAAAASUVORK5CYII=;imageBorder=default;" parent="rrkOhQrYPCJi9ltD8ljX-2" vertex="1">
                    <mxGeometry x="150" width="230" height="88.56" as="geometry"/>
                </mxCell>
                <mxCell id="rrkOhQrYPCJi9ltD8ljX-5" value="PROJECT" style="rounded=0;whiteSpace=wrap;html=1;" parent="rrkOhQrYPCJi9ltD8ljX-2" vertex="1">
                    <mxGeometry x="205" y="150" width="120" height="60" as="geometry"/>
                </mxCell>
                <mxCell id="rrkOhQrYPCJi9ltD8ljX-6" value="REQUIREMENTS" style="endArrow=classic;html=1;rounded=0;entryX=0;entryY=0.5;entryDx=0;entryDy=0;exitX=1.049;exitY=0.491;exitDx=0;exitDy=0;exitPerimeter=0;" parent="rrkOhQrYPCJi9ltD8ljX-2" source="rrkOhQrYPCJi9ltD8ljX-9" target="rrkOhQrYPCJi9ltD8ljX-5" edge="1">
                    <mxGeometry width="50" height="50" relative="1" as="geometry">
                        <mxPoint x="80" y="180" as="sourcePoint"/>
                        <mxPoint x="-169" y="-59" as="targetPoint"/>
                    </mxGeometry>
                </mxCell>
                <mxCell id="rrkOhQrYPCJi9ltD8ljX-7" value="OBJECTIVES" style="endArrow=classic;html=1;rounded=0;exitX=1;exitY=0.5;exitDx=0;exitDy=0;entryX=0;entryY=0.5;entryDx=0;entryDy=0;entryPerimeter=0;" parent="rrkOhQrYPCJi9ltD8ljX-2" source="rrkOhQrYPCJi9ltD8ljX-5" target="rrkOhQrYPCJi9ltD8ljX-10" edge="1">
                    <mxGeometry width="50" height="50" relative="1" as="geometry">
                        <mxPoint x="70" y="210" as="sourcePoint"/>
                        <mxPoint x="440" y="180" as="targetPoint"/>
                    </mxGeometry>
                </mxCell>
                <mxCell id="rrkOhQrYPCJi9ltD8ljX-8" value="RESOURCES" style="endArrow=classic;html=1;rounded=0;entryX=0.5;entryY=1;entryDx=0;entryDy=0;exitX=0.5;exitY=0;exitDx=0;exitDy=0;" parent="rrkOhQrYPCJi9ltD8ljX-2" source="rrkOhQrYPCJi9ltD8ljX-11" target="rrkOhQrYPCJi9ltD8ljX-5" edge="1">
                    <mxGeometry width="50" height="50" relative="1" as="geometry">
                        <mxPoint x="265" y="290" as="sourcePoint"/>
                        <mxPoint x="120" y="160" as="targetPoint"/>
                    </mxGeometry>
                </mxCell>
                <mxCell id="rrkOhQrYPCJi9ltD8ljX-9" value="What?&lt;div&gt;&lt;u&gt;Where?&lt;/u&gt;&lt;/div&gt;&lt;div&gt;&lt;u&gt;When?&lt;/u&gt;&lt;/div&gt;&lt;div&gt;Why?&lt;/div&gt;&lt;div&gt;What for?&lt;/div&gt;&lt;div&gt;How?&lt;/div&gt;" style="shape=note;whiteSpace=wrap;html=1;backgroundOutline=1;darkOpacity=0.05;" parent="rrkOhQrYPCJi9ltD8ljX-2" vertex="1">
                    <mxGeometry y="100" width="80" height="160" as="geometry"/>
                </mxCell>
                <mxCell id="rrkOhQrYPCJi9ltD8ljX-10" value="SMART" style="shape=note;whiteSpace=wrap;html=1;backgroundOutline=1;darkOpacity=0.05;" parent="rrkOhQrYPCJi9ltD8ljX-2" vertex="1">
                    <mxGeometry x="440" y="130" width="80" height="100" as="geometry"/>
                </mxCell>
                <mxCell id="rrkOhQrYPCJi9ltD8ljX-11" value="Identify,&lt;div&gt;Allocate&lt;/div&gt;&lt;div&gt;(Roles, Tools)&lt;/div&gt;" style="rounded=0;whiteSpace=wrap;html=1;" parent="rrkOhQrYPCJi9ltD8ljX-2" vertex="1">
                    <mxGeometry x="205" y="270" width="120" height="60" as="geometry"/>
                </mxCell>
                <mxCell id="rrkOhQrYPCJi9ltD8ljX-12" value="" style="group;fillColor=none;" parent="rrkOhQrYPCJi9ltD8ljX-2" vertex="1" connectable="0">
                    <mxGeometry x="360" y="250" width="160" height="60" as="geometry"/>
                </mxCell>
                <mxCell id="rrkOhQrYPCJi9ltD8ljX-13" value="Communicaton,&lt;div&gt;Documentation&lt;/div&gt;" style="shape=note;whiteSpace=wrap;html=1;backgroundOutline=1;darkOpacity=0.05;" parent="rrkOhQrYPCJi9ltD8ljX-12" vertex="1">
                    <mxGeometry width="160" height="60" as="geometry"/>
                </mxCell>
                <mxCell id="rrkOhQrYPCJi9ltD8ljX-14" value="" style="triangle;whiteSpace=wrap;html=1;rotation=-90;" parent="rrkOhQrYPCJi9ltD8ljX-12" vertex="1">
                    <mxGeometry x="4.5" y="3" width="20" height="21" as="geometry"/>
                </mxCell>
                <mxCell id="rrkOhQrYPCJi9ltD8ljX-15" value="" style="endArrow=none;dashed=1;html=1;dashPattern=1 3;strokeWidth=2;rounded=0;entryX=0;entryY=0.5;entryDx=0;entryDy=0;entryPerimeter=0;exitX=1;exitY=0.5;exitDx=0;exitDy=0;" parent="rrkOhQrYPCJi9ltD8ljX-2" source="rrkOhQrYPCJi9ltD8ljX-11" target="rrkOhQrYPCJi9ltD8ljX-13" edge="1">
                    <mxGeometry width="50" height="50" relative="1" as="geometry">
                        <mxPoint x="30" y="360" as="sourcePoint"/>
                        <mxPoint x="80" y="310" as="targetPoint"/>
                    </mxGeometry>
                </mxCell>
                <mxCell id="rrkOhQrYPCJi9ltD8ljX-16" value="Tools" style="swimlane;fontStyle=1;align=center;verticalAlign=top;childLayout=stackLayout;horizontal=1;startSize=26;horizontalStack=0;resizeParent=1;resizeParentMax=0;resizeLast=0;collapsible=1;marginBottom=0;whiteSpace=wrap;html=1;" parent="1" vertex="1">
                    <mxGeometry x="140" y="403.25" width="160" height="120" as="geometry"/>
                </mxCell>
                <mxCell id="rrkOhQrYPCJi9ltD8ljX-17" value="Project Management" style="text;strokeColor=none;fillColor=none;align=left;verticalAlign=top;spacingLeft=4;spacingRight=4;overflow=hidden;rotatable=0;points=[[0,0.5],[1,0.5]];portConstraint=eastwest;whiteSpace=wrap;html=1;" parent="rrkOhQrYPCJi9ltD8ljX-16" vertex="1">
                    <mxGeometry y="26" width="160" height="26" as="geometry"/>
                </mxCell>
                <mxCell id="rrkOhQrYPCJi9ltD8ljX-18" value="" style="line;strokeWidth=1;fillColor=none;align=left;verticalAlign=middle;spacingTop=-1;spacingLeft=3;spacingRight=3;rotatable=0;labelPosition=right;points=[];portConstraint=eastwest;strokeColor=inherit;" parent="rrkOhQrYPCJi9ltD8ljX-16" vertex="1">
                    <mxGeometry y="52" width="160" height="8" as="geometry"/>
                </mxCell>
                <mxCell id="rrkOhQrYPCJi9ltD8ljX-19" value="IDE" style="text;strokeColor=none;fillColor=none;align=left;verticalAlign=top;spacingLeft=4;spacingRight=4;overflow=hidden;rotatable=0;points=[[0,0.5],[1,0.5]];portConstraint=eastwest;whiteSpace=wrap;html=1;" parent="rrkOhQrYPCJi9ltD8ljX-16" vertex="1">
                    <mxGeometry y="60" width="160" height="26" as="geometry"/>
                </mxCell>
                <mxCell id="rrkOhQrYPCJi9ltD8ljX-20" value="" style="line;strokeWidth=1;fillColor=none;align=left;verticalAlign=middle;spacingTop=-1;spacingLeft=3;spacingRight=3;rotatable=0;labelPosition=right;points=[];portConstraint=eastwest;strokeColor=inherit;" parent="rrkOhQrYPCJi9ltD8ljX-16" vertex="1">
                    <mxGeometry y="86" width="160" height="8" as="geometry"/>
                </mxCell>
                <mxCell id="rrkOhQrYPCJi9ltD8ljX-21" value="Version Control" style="text;strokeColor=none;fillColor=none;align=left;verticalAlign=top;spacingLeft=4;spacingRight=4;overflow=hidden;rotatable=0;points=[[0,0.5],[1,0.5]];portConstraint=eastwest;whiteSpace=wrap;html=1;" parent="rrkOhQrYPCJi9ltD8ljX-16" vertex="1">
                    <mxGeometry y="94" width="160" height="26" as="geometry"/>
                </mxCell>
                <mxCell id="rrkOhQrYPCJi9ltD8ljX-22" value="Roles" style="swimlane;fontStyle=1;align=center;verticalAlign=top;childLayout=stackLayout;horizontal=1;startSize=26;horizontalStack=0;resizeParent=1;resizeParentMax=0;resizeLast=0;collapsible=1;marginBottom=0;whiteSpace=wrap;html=1;" parent="1" vertex="1">
                    <mxGeometry x="340" y="403.25" width="160" height="154" as="geometry"/>
                </mxCell>
                <mxCell id="rrkOhQrYPCJi9ltD8ljX-23" value="PO, Scrum Master" style="text;strokeColor=none;fillColor=none;align=left;verticalAlign=top;spacingLeft=4;spacingRight=4;overflow=hidden;rotatable=0;points=[[0,0.5],[1,0.5]];portConstraint=eastwest;whiteSpace=wrap;html=1;" parent="rrkOhQrYPCJi9ltD8ljX-22" vertex="1">
                    <mxGeometry y="26" width="160" height="26" as="geometry"/>
                </mxCell>
                <mxCell id="rrkOhQrYPCJi9ltD8ljX-24" value="" style="line;strokeWidth=1;fillColor=none;align=left;verticalAlign=middle;spacingTop=-1;spacingLeft=3;spacingRight=3;rotatable=0;labelPosition=right;points=[];portConstraint=eastwest;strokeColor=inherit;" parent="rrkOhQrYPCJi9ltD8ljX-22" vertex="1">
                    <mxGeometry y="52" width="160" height="8" as="geometry"/>
                </mxCell>
                <mxCell id="rrkOhQrYPCJi9ltD8ljX-25" value="BE, FE Dev Team" style="text;strokeColor=none;fillColor=none;align=left;verticalAlign=top;spacingLeft=4;spacingRight=4;overflow=hidden;rotatable=0;points=[[0,0.5],[1,0.5]];portConstraint=eastwest;whiteSpace=wrap;html=1;" parent="rrkOhQrYPCJi9ltD8ljX-22" vertex="1">
                    <mxGeometry y="60" width="160" height="26" as="geometry"/>
                </mxCell>
                <mxCell id="rrkOhQrYPCJi9ltD8ljX-26" value="" style="line;strokeWidth=1;fillColor=none;align=left;verticalAlign=middle;spacingTop=-1;spacingLeft=3;spacingRight=3;rotatable=0;labelPosition=right;points=[];portConstraint=eastwest;strokeColor=inherit;" parent="rrkOhQrYPCJi9ltD8ljX-22" vertex="1">
                    <mxGeometry y="86" width="160" height="8" as="geometry"/>
                </mxCell>
                <mxCell id="rrkOhQrYPCJi9ltD8ljX-27" value="QA, AQA Team" style="text;strokeColor=none;fillColor=none;align=left;verticalAlign=top;spacingLeft=4;spacingRight=4;overflow=hidden;rotatable=0;points=[[0,0.5],[1,0.5]];portConstraint=eastwest;whiteSpace=wrap;html=1;" parent="rrkOhQrYPCJi9ltD8ljX-22" vertex="1">
                    <mxGeometry y="94" width="160" height="26" as="geometry"/>
                </mxCell>
                <mxCell id="rrkOhQrYPCJi9ltD8ljX-28" value="" style="line;strokeWidth=1;fillColor=none;align=left;verticalAlign=middle;spacingTop=-1;spacingLeft=3;spacingRight=3;rotatable=0;labelPosition=right;points=[];portConstraint=eastwest;strokeColor=inherit;" parent="rrkOhQrYPCJi9ltD8ljX-22" vertex="1">
                    <mxGeometry y="120" width="160" height="8" as="geometry"/>
                </mxCell>
                <mxCell id="rrkOhQrYPCJi9ltD8ljX-29" value="DevOps Team" style="text;strokeColor=none;fillColor=none;align=left;verticalAlign=top;spacingLeft=4;spacingRight=4;overflow=hidden;rotatable=0;points=[[0,0.5],[1,0.5]];portConstraint=eastwest;whiteSpace=wrap;html=1;" parent="rrkOhQrYPCJi9ltD8ljX-22" vertex="1">
                    <mxGeometry y="128" width="160" height="26" as="geometry"/>
                </mxCell>
            </root>
        </mxGraphModel>
    </diagram>
</mxfile>